SplineFontDB: 3.2
FontName: MetroVancouverRegular
FullName: Metro Vancouver Regular
FamilyName: Metro Vancouver
Weight: Regular
Copyright: Copyright Faraaz Jan 2023
Version: 1.3
ItalicAngle: 0
UnderlinePosition: 0
UnderlineWidth: 0
Ascent: 1638
Descent: 410
InvalidEm: 0
sfntRevision: 0x00010000
LayerCount: 2
Layer: 0 0 "Back" 1
Layer: 1 0 "Fore" 0
XUID: [1021 922 -582538698 6354]
StyleMap: 0x0040
FSType: 0
OS2Version: 3
OS2_WeightWidthSlopeOnly: 0
OS2_UseTypoMetrics: 0
CreationTime: 1701813647
ModificationTime: 1701836412
PfmFamily: 81
TTFWeight: 500
TTFWidth: 5
LineGap: 0
VLineGap: 0
Panose: 0 0 0 0 0 0 0 0 0 0
OS2TypoAscent: 2100
OS2TypoAOffset: 0
OS2TypoDescent: -512
OS2TypoDOffset: 0
OS2TypoLinegap: 0
OS2WinAscent: 2112
OS2WinAOffset: 0
OS2WinDescent: 512
OS2WinDOffset: 0
HheadAscent: 2100
HheadAOffset: 0
HheadDescent: -512
HheadDOffset: 0
OS2SubXSize: 650
OS2SubYSize: 699
OS2SubXOff: 0
OS2SubYOff: 140
OS2SupXSize: 650
OS2SupYSize: 699
OS2SupXOff: 0
OS2SupYOff: 479
OS2StrikeYSize: 49
OS2StrikeYPos: 258
OS2CapHeight: 1536
OS2XHeight: 1024
OS2Vendor: 'XXXX'
OS2CodePages: 00000001.00000000
OS2UnicodeRanges: a0000007.4000000a.00000000.00000000
Lookup: 258 0 0 "'kern' Horizontal Kerning in Latin lookup 0" { "'kern' Horizontal Kerning in Latin lookup 0-1" [307,0,7] } ['kern' ('DFLT' <'dflt' > 'latn' <'dflt' > ) ]
MarkAttachClasses: 1
DEI: 91125
KernClass2: 21 19 "'kern' Horizontal Kerning in Latin lookup 0-1"
 50 A Agrave Aacute Acircumflex Atilde Adieresis Aring
 1 F
 1 P
 1 T
 22 Y yen Yacute Ydieresis
 1 W
 1 V
 1 v
 1 f
 1 X
 1 L
 16 dollar S section
 50 a agrave aacute acircumflex atilde adieresis aring
 40 e ae egrave eacute ecircumflex edieresis
 51 o ograve oacute ocircumflex otilde odieresis oslash
 85 B C D G O Ccedilla Eth Ograve Oacute Ocircumflex Otilde Odieresis Oslash uni1E9E Euro
 1 J
 37 U Ugrave Uacute Ucircumflex Udieresis

StartChar: .notdef
Encoding: 0 0 0
Width: 988
GlyphClass: 1
Flags: W
LayerCount: 2
Fore
SplineSet
20 1536 m 1
 968 1536 l 1
 968 0 l 1
 20 0 l 1
 20 1536 l 1
130 110 m 1
 858 110 l 1
 858 1426 l 1
 130 1426 l 1
 130 110 l 1
EndSplineSet
Validated: 1
EndChar

StartChar: exclam
Encoding: 33 33 2
Width: 436
GlyphClass: 1
Flags: W
LayerCount: 2
Fore
SplineSet
256 0 m 1
 0 0 l 1
 0 256 l 1
 256 256 l 1
 256 0 l 1
256 384 m 1
 0 384 l 1
 0 1536 l 1
 256 1536 l 1
 256 384 l 1
EndSplineSet
Validated: 1
EndChar

StartChar: quotedbl
Encoding: 34 34 3
Width: 900
GlyphClass: 1
Flags: W
LayerCount: 2
Fore
SplineSet
256 1288 m 1
 0 1288 l 1
 0 1800 l 1
 256 1800 l 1
 256 1288 l 1
768 1288 m 1
 512 1288 l 1
 512 1800 l 1
 768 1800 l 1
 768 1288 l 1
EndSplineSet
Validated: 1
EndChar

StartChar: numbersign
Encoding: 35 35 4
Width: 1450
GlyphClass: 1
Flags: W
LayerCount: 2
Fore
SplineSet
512 512 m 1
 768 512 l 1
 768 768 l 1
 512 768 l 1
 512 512 l 1
512 0 m 1
 256 0 l 1
 256 256 l 1
 0 256 l 1
 0 512 l 1
 256 512 l 1
 256 768 l 1
 0 768 l 1
 0 1024 l 1
 256 1024 l 1
 256 1280 l 1
 512 1280 l 1
 512 1024 l 1
 768 1024 l 1
 768 1280 l 1
 1024 1280 l 1
 1024 1024 l 1
 1280 1024 l 1
 1280 768 l 1
 1024 768 l 1
 1024 512 l 1
 1280 512 l 1
 1280 256 l 1
 1024 256 l 1
 1024 0 l 1
 768 0 l 1
 768 256 l 1
 512 256 l 1
 512 0 l 1
EndSplineSet
Validated: 1
EndChar

StartChar: dollar
Encoding: 36 36 5
Width: 1200
GlyphClass: 1
Flags: W
LayerCount: 2
Fore
SplineSet
640 -128 m 1
 384 -128 l 1
 384 15 l 1
 296 36 218 81 150 150 c 1
 150 150 l 1
 50 250 0 371 0 512 c 1
 0 512 l 1
 256 512 l 1
 256 441 281 381 331 331 c 1
 331 331 l 1
 381 281 441 256 512 256 c 1
 512 256 l 1
 582 256 642 281 692 331 c 1
 692 331 l 1
 743 381 768 441 768 512 c 1
 768 512 l 1
 768 582 743 642 692 692 c 1
 692 692 l 1
 642 743 582 768 512 768 c 1
 512 768 l 1
 512 1024 l 1
 653 1024 773 974 873 873 c 1
 873 873 l 1
 974 773 1024 653 1024 512 c 1
 1024 512 l 1
 1024 371 974 250 873 150 c 1
 873 150 l 1
 805 81 727 36 640 15 c 1
 640 15 l 1
 640 -128 l 1
512 768 m 1
 512 512 l 1
 371 512 250 562 150 662 c 1
 150 662 l 1
 50 762 0 883 0 1024 c 1
 0 1024 l 1
 0 1165 50 1285 150 1385 c 1
 150 1385 l 1
 218 1454 296 1499 384 1520 c 1
 384 1520 l 1
 384 1664 l 1
 640 1664 l 1
 640 1520 l 1
 727 1499 805 1454 873 1385 c 1
 873 1385 l 1
 974 1285 1024 1165 1024 1024 c 1
 1024 1024 l 1
 768 1024 l 1
 768 1094 743 1154 692 1204 c 1
 692 1204 l 1
 642 1255 582 1280 512 1280 c 1
 512 1280 l 1
 441 1280 381 1255 331 1204 c 1
 331 1204 l 1
 281 1154 256 1094 256 1024 c 1
 256 1024 l 1
 256 953 281 893 331 843 c 1
 331 843 l 1
 381 793 441 768 512 768 c 1
 512 768 l 1
EndSplineSet
Validated: 5
EndChar

StartChar: percent
Encoding: 37 37 6
Width: 1250
GlyphClass: 1
Flags: W
LayerCount: 2
Fore
SplineSet
1024 256 m 1
 768 256 l 1
 768 512 l 1
 1024 512 l 1
 1024 256 l 1
256 1024 m 1
 0 1024 l 1
 0 1280 l 1
 256 1280 l 1
 256 1024 l 1
256 0 m 1
 0 0 l 1
 768 1536 l 1
 1024 1536 l 1
 256 0 l 1
EndSplineSet
Validated: 1
EndChar

StartChar: ampersand
Encoding: 38 38 7
Width: 1150
GlyphClass: 1
Flags: W
LayerCount: 2
Fore
SplineSet
512 256 m 1
 512 256 l 1
 553 256 591 265 626 282 c 1
 626 282 l 1
 397 741 l 1
 373 729 351 713 331 692 c 1
 331 692 l 1
 281 642 256 582 256 512 c 1
 256 512 l 1
 256 441 281 381 331 331 c 1
 331 331 l 1
 381 281 441 256 512 256 c 1
384 1280 m 1
 498 1050 l 1
 522 1062 544 1078 564 1099 c 1
 564 1099 l 1
 615 1149 640 1209 640 1280 c 1
 640 1280 l 1
 384 1280 l 1
512 0 m 1
 512 0 l 1
 371 0 250 50 150 150 c 1
 150 150 l 1
 50 250 0 371 0 512 c 1
 0 512 l 1
 0 653 50 773 150 873 c 1
 150 873 l 1
 191 914 235 947 282 971 c 1
 282 971 l 1
 128 1280 l 1
 128 1350 153 1410 202 1461 c 1
 202 1461 l 1
 253 1511 313 1536 384 1536 c 1
 384 1536 l 1
 640 1536 l 2
 710 1536 770 1511 821 1461 c 1
 821 1461 l 1
 871 1410 896 1350 896 1280 c 1
 896 1280 l 1
 896 1139 846 1018 745 918 c 1
 745 918 l 1
 704 877 660 844 613 820 c 1
 613 820 l 1
 768 512 l 1
 1024 512 l 1
 1024 395 990 293 921 204 c 1
 921 204 l 1
 1024 0 l 1
 768 0 l 1
 741 52 l 1
 672 17 595 0 512 0 c 1
EndSplineSet
Validated: 5
EndChar

StartChar: quotesingle
Encoding: 39 39 8
Width: 350
GlyphClass: 1
Flags: W
LayerCount: 2
Fore
SplineSet
256 1288 m 1
 0 1288 l 1
 0 1800 l 1
 256 1800 l 1
 256 1288 l 1
EndSplineSet
Validated: 1
EndChar

StartChar: parenleft
Encoding: 40 40 9
Width: 550
GlyphClass: 1
Flags: W
LayerCount: 2
Fore
SplineSet
330 74 m 1
 150 -105 l 1
 103 -58 66 -5 40 56 c 1
 40 56 l 1
 13 120 0 187 0 256 c 1
 0 256 l 1
 0 1431 l 2
 0 1500 13 1566 40 1630 c 1
 40 1630 l 1
 66 1691 103 1745 150 1792 c 1
 330 1612 l 1
 307 1588 288 1561 275 1530 c 1
 275 1530 l 1
 262 1499 256 1315 256 1280 c 1
 256 1431 l 1
 256 256 l 2
 256 221 262 187 275 156 c 1
 275 156 l 1
 288 125 307 98 330 74 c 1
 330 74 l 1
EndSplineSet
Validated: 5
EndChar

StartChar: parenright
Encoding: 41 41 10
Width: 742
GlyphClass: 1
Flags: W
LayerCount: 2
Fore
SplineSet
361 -105 m 1
 361 -105 l 1
 181 74 l 1
 204 98 223 125 236 156 c 1
 236 156 l 1
 249 187 256 221 256 256 c 1
 256 256 l 1
 256 1431 l 2
 256 1466 249 1499 236 1530 c 1
 236 1530 l 1
 223 1561 204 1588 181 1612 c 1
 181 1612 l 1
 361 1792 l 1
 408 1745 445 1691 471 1630 c 1
 471 1630 l 1
 498 1566 512 1500 512 1431 c 1
 512 1431 l 1
 512 256 l 2
 512 187 498 120 471 56 c 1
 471 56 l 1
 445 -5 408 -58 361 -105 c 1
EndSplineSet
Validated: 5
EndChar

StartChar: asterisk
Encoding: 42 42 11
Width: 552
GlyphClass: 1
Flags: W
LayerCount: 2
Fore
SplineSet
313 1336 m 1
 313 1188 l 1
 188 1188 l 1
 188 1336 l 1
 61 1261 l 1
 0 1369 l 1
 125 1444 l 1
 0 1518 l 1
 61 1625 l 1
 188 1551 l 1
 188 1700 l 1
 313 1700 l 1
 313 1551 l 1
 440 1625 l 1
 502 1517 l 1
 376 1443 l 1
 502 1369 l 1
 440 1261 l 1
 313 1336 l 1
EndSplineSet
Validated: 1
EndChar

StartChar: plus
Encoding: 43 43 12
Width: 1150
GlyphClass: 1
Flags: W
LayerCount: 2
Fore
SplineSet
640 0 m 1
 384 0 l 1
 384 384 l 1
 0 384 l 1
 0 640 l 1
 384 640 l 1
 384 1024 l 1
 640 1024 l 1
 640 640 l 1
 1024 640 l 1
 1024 384 l 1
 640 384 l 1
 640 0 l 1
EndSplineSet
Validated: 1
EndChar

StartChar: comma
Encoding: 44 44 13
Width: 350
GlyphClass: 1
Flags: W
LayerCount: 2
Fore
SplineSet
256 0 m 1
 0 -256 l 1
 0 256 l 1
 256 256 l 1
 256 0 l 1
EndSplineSet
Validated: 1
EndChar

StartChar: hyphen
Encoding: 45 45 14
Width: 1150
GlyphClass: 1
Flags: W
LayerCount: 2
Fore
SplineSet
1024 384 m 1
 0 384 l 1
 0 640 l 1
 1024 640 l 1
 1024 384 l 1
EndSplineSet
Validated: 1
EndChar

StartChar: period
Encoding: 46 46 15
Width: 350
GlyphClass: 1
Flags: W
LayerCount: 2
Fore
SplineSet
256 0 m 1
 0 0 l 1
 0 256 l 1
 256 256 l 1
 256 0 l 1
EndSplineSet
Validated: 1
EndChar

StartChar: slash
Encoding: 47 47 16
Width: 850
GlyphClass: 1
Flags: W
LayerCount: 2
Fore
SplineSet
156 0 m 1
 -100 0 l 1
 668 1536 l 1
 924 1536 l 1
 156 0 l 1
EndSplineSet
Validated: 1
EndChar

StartChar: zero
Encoding: 48 48 17
Width: 1130
GlyphClass: 1
Flags: W
LayerCount: 2
Fore
SplineSet
512 256 m 1
 512 256 l 1
 582 256 642 281 692 331 c 1
 692 331 l 1
 743 381 768 441 768 512 c 1
 768 512 l 1
 768 1024 l 2
 768 1094 743 1154 692 1204 c 1
 692 1204 l 1
 642 1255 582 1280 512 1280 c 1
 512 1280 l 1
 441 1280 381 1255 331 1204 c 1
 331 1204 l 1
 281 1154 256 1094 256 1024 c 1
 256 1024 l 1
 256 512 l 2
 256 441 281 381 331 331 c 1
 331 331 l 1
 381 281 441 256 512 256 c 1
512 0 m 1
 512 0 l 1
 371 0 250 50 150 150 c 1
 150 150 l 1
 50 250 0 371 0 512 c 1
 0 512 l 1
 0 1024 l 2
 0 1165 50 1285 150 1385 c 1
 150 1385 l 1
 250 1486 371 1536 512 1536 c 1
 512 1536 l 1
 653 1536 773 1486 873 1385 c 1
 873 1385 l 1
 974 1285 1024 1165 1024 1024 c 1
 1024 1024 l 1
 1024 512 l 2
 1024 371 974 250 873 150 c 1
 873 150 l 1
 773 50 653 0 512 0 c 1
EndSplineSet
Validated: 5
EndChar

StartChar: one
Encoding: 49 49 18
Width: 680
GlyphClass: 1
Flags: W
LayerCount: 2
Fore
SplineSet
512 0 m 1
 256 0 l 1
 256 1024 l 1
 0 1024 l 1
 256 1536 l 1
 512 1536 l 1
 512 0 l 1
EndSplineSet
Validated: 1
EndChar

StartChar: two
Encoding: 50 50 19
Width: 1150
GlyphClass: 1
Flags: W
LayerCount: 2
Fore
SplineSet
1024 0 m 1
 0 0 l 1
 0 256 l 2
 0 397 50 517 150 617 c 1
 150 617 l 1
 250 718 371 768 512 768 c 1
 512 768 l 1
 582 768 642 793 692 843 c 1
 692 843 l 1
 743 893 768 953 768 1024 c 1
 768 1024 l 1
 768 1094 743 1154 692 1204 c 1
 692 1204 l 1
 642 1255 582 1280 512 1280 c 1
 512 1280 l 1
 441 1280 381 1255 331 1204 c 1
 331 1204 l 1
 281 1154 256 1094 256 1024 c 1
 256 1024 l 1
 0 1024 l 1
 0 1165 50 1285 150 1385 c 1
 150 1385 l 1
 250 1486 371 1536 512 1536 c 1
 512 1536 l 1
 653 1536 773 1486 873 1385 c 1
 873 1385 l 1
 974 1285 1024 1165 1024 1024 c 1
 1024 1024 l 1
 1024 883 974 762 873 662 c 1
 873 662 l 1
 773 562 653 512 512 512 c 1
 512 512 l 1
 441 512 381 487 331 436 c 1
 331 436 l 1
 281 386 256 326 256 256 c 1
 256 256 l 1
 1024 256 l 1
 1024 0 l 1
EndSplineSet
Validated: 5
EndChar

StartChar: three
Encoding: 51 51 20
Width: 1150
GlyphClass: 1
Flags: W
LayerCount: 2
Fore
SplineSet
512 0 m 1
 512 0 l 1
 371 0 250 50 150 150 c 1
 150 150 l 1
 50 250 0 371 0 512 c 1
 0 512 l 1
 256 512 l 1
 256 441 281 381 331 331 c 1
 331 331 l 1
 381 281 441 256 512 256 c 1
 512 256 l 1
 582 256 642 281 692 331 c 1
 692 331 l 1
 743 381 768 441 768 512 c 1
 768 512 l 1
 1024 512 l 1
 1024 371 974 250 873 150 c 1
 873 150 l 1
 773 50 653 0 512 0 c 1
512 512 m 1
 512 512 l 1
 512 768 l 1
 582 768 642 793 692 843 c 1
 692 843 l 1
 743 893 768 953 768 1024 c 1
 768 1024 l 1
 768 1094 743 1154 692 1204 c 1
 692 1204 l 1
 642 1255 582 1280 512 1280 c 1
 512 1280 l 1
 441 1280 381 1255 331 1204 c 1
 331 1204 l 1
 281 1154 256 1094 256 1024 c 1
 256 1024 l 1
 0 1024 l 1
 0 1165 50 1285 150 1385 c 1
 150 1385 l 1
 250 1486 371 1536 512 1536 c 1
 512 1536 l 1
 653 1536 773 1486 873 1385 c 1
 873 1385 l 1
 974 1285 1024 1165 1024 1024 c 1
 1024 1024 l 1
 1024 883 974 762 873 662 c 1
 873 662 l 1
 773 562 653 512 512 512 c 1
EndSplineSet
Validated: 5
EndChar

StartChar: four
Encoding: 52 52 21
Width: 1150
GlyphClass: 1
Flags: W
LayerCount: 2
Fore
SplineSet
1024 0 m 1
 768 0 l 1
 768 512 l 1
 0 512 l 1
 0 768 l 1
 256 1280 l 1
 512 1280 l 1
 256 768 l 1
 768 768 l 1
 768 1536 l 1
 1024 1536 l 1
 1024 0 l 1
EndSplineSet
Validated: 1
EndChar

StartChar: five
Encoding: 53 53 22
Width: 1150
GlyphClass: 1
Flags: W
LayerCount: 2
Fore
SplineSet
512 0 m 1
 512 0 l 1
 371 0 250 50 150 150 c 1
 150 150 l 1
 50 250 0 371 0 512 c 1
 0 512 l 1
 256 512 l 1
 256 441 281 381 331 331 c 1
 331 331 l 1
 381 281 441 256 512 256 c 1
 512 256 l 1
 582 256 642 281 692 331 c 1
 692 331 l 1
 743 381 768 441 768 512 c 1
 768 512 l 1
 768 582 743 642 692 692 c 1
 692 692 l 1
 642 743 582 768 512 768 c 1
 512 768 l 1
 371 768 250 818 150 918 c 1
 150 918 l 1
 50 1018 0 1139 0 1280 c 1
 0 1280 l 1
 0 1536 l 1
 1024 1536 l 1
 1024 1280 l 1
 256 1280 l 1
 256 1209 281 1149 331 1099 c 1
 331 1099 l 1
 381 1049 441 1024 512 1024 c 1
 512 1024 l 1
 653 1024 773 974 873 873 c 1
 873 873 l 1
 974 773 1024 653 1024 512 c 1
 1024 512 l 1
 1024 371 974 250 873 150 c 1
 873 150 l 1
 773 50 653 0 512 0 c 1
EndSplineSet
Validated: 5
EndChar

StartChar: six
Encoding: 54 54 23
Width: 1150
GlyphClass: 1
Flags: W
LayerCount: 2
Fore
SplineSet
512 256 m 1
 512 256 l 1
 582 256 642 281 692 331 c 1
 692 331 l 1
 743 381 768 441 768 512 c 1
 768 512 l 1
 768 582 743 642 692 692 c 1
 692 692 l 1
 642 743 582 768 512 768 c 1
 512 768 l 1
 441 768 381 743 331 692 c 1
 331 692 l 1
 281 642 256 582 256 512 c 1
 256 512 l 1
 256 441 281 381 331 331 c 1
 331 331 l 1
 381 281 441 256 512 256 c 1
512 0 m 1
 512 0 l 1
 371 0 250 50 150 150 c 1
 150 150 l 1
 50 250 0 371 0 512 c 1
 0 512 l 1
 0 1024 l 2
 0 1165 50 1285 150 1385 c 1
 150 1385 l 1
 250 1486 371 1536 512 1536 c 1
 512 1536 l 1
 653 1536 773 1486 873 1385 c 1
 873 1385 l 1
 974 1285 1024 1165 1024 1024 c 1
 1024 1024 l 1
 768 1024 l 1
 768 1094 743 1154 692 1204 c 1
 692 1204 l 1
 642 1255 582 1280 512 1280 c 1
 512 1280 l 1
 441 1280 381 1255 331 1204 c 1
 331 1204 l 1
 281 1154 256 1094 256 1024 c 1
 256 1024 l 1
 256 956 l 1
 332 1001 417 1024 512 1024 c 1
 512 1024 l 1
 653 1024 773 974 873 873 c 1
 873 873 l 1
 974 773 1024 653 1024 512 c 1
 1024 512 l 1
 1024 371 974 250 873 150 c 1
 873 150 l 1
 773 50 653 0 512 0 c 1
EndSplineSet
Validated: 5
EndChar

StartChar: seven
Encoding: 55 55 24
Width: 1150
GlyphClass: 1
Flags: W
LayerCount: 2
Fore
SplineSet
256 0 m 1
 0 0 l 1
 640 1280 l 1
 0 1280 l 1
 0 1536 l 1
 1024 1536 l 1
 256 0 l 1
EndSplineSet
Validated: 1
EndChar

StartChar: eight
Encoding: 56 56 25
Width: 1150
GlyphClass: 1
Flags: W
LayerCount: 2
Fore
SplineSet
512 256 m 1
 512 256 l 1
 582 256 642 281 692 331 c 1
 692 331 l 1
 743 381 768 441 768 512 c 1
 768 512 l 1
 768 582 743 642 692 692 c 1
 692 692 l 1
 642 743 582 768 512 768 c 1
 512 768 l 1
 441 768 381 743 331 692 c 1
 331 692 l 1
 281 642 256 582 256 512 c 1
 256 512 l 1
 256 441 281 381 331 331 c 1
 331 331 l 1
 381 281 441 256 512 256 c 1
768 956 m 1
 768 956 l 1
 768 1024 l 2
 768 1094 743 1154 692 1204 c 1
 692 1204 l 1
 642 1255 582 1280 512 1280 c 1
 512 1280 l 1
 441 1280 381 1255 331 1204 c 1
 331 1204 l 1
 281 1154 256 1094 256 1024 c 1
 256 1024 l 1
 256 956 l 1
 332 1001 417 1024 512 1024 c 1
 512 1024 l 1
 606 1024 691 1001 768 956 c 1
512 0 m 1
 512 0 l 1
 371 0 250 50 150 150 c 1
 150 150 l 1
 50 250 0 371 0 512 c 1
 0 512 l 1
 0 1024 l 2
 0 1165 50 1285 150 1385 c 1
 150 1385 l 1
 250 1486 371 1536 512 1536 c 1
 512 1536 l 1
 653 1536 773 1486 873 1385 c 1
 873 1385 l 1
 974 1285 1024 1165 1024 1024 c 1
 1024 1024 l 1
 1024 512 l 2
 1024 371 974 250 873 150 c 1
 873 150 l 1
 773 50 653 0 512 0 c 1
EndSplineSet
Validated: 5
EndChar

StartChar: nine
Encoding: 57 57 26
Width: 1150
GlyphClass: 1
Flags: W
LayerCount: 2
Fore
SplineSet
512 0 m 1
 512 0 l 1
 371 0 250 50 150 150 c 1
 150 150 l 1
 50 250 0 371 0 512 c 1
 0 512 l 1
 256 512 l 1
 256 441 281 381 331 331 c 1
 331 331 l 1
 381 281 441 256 512 256 c 1
 512 256 l 1
 582 256 642 281 692 331 c 1
 692 331 l 1
 743 381 768 441 768 512 c 1
 768 512 l 1
 768 1024 l 2
 768 1094 743 1154 692 1204 c 1
 692 1204 l 1
 642 1255 582 1280 512 1280 c 1
 512 1280 l 1
 441 1280 381 1255 331 1204 c 1
 331 1204 l 1
 281 1154 256 1094 256 1024 c 1
 256 1024 l 1
 256 953 281 893 331 843 c 1
 331 843 l 1
 381 793 441 768 512 768 c 1
 512 768 l 1
 512 512 l 1
 371 512 250 562 150 662 c 1
 150 662 l 1
 50 762 0 883 0 1024 c 1
 0 1024 l 1
 0 1165 50 1285 150 1385 c 1
 150 1385 l 1
 250 1486 371 1536 512 1536 c 1
 512 1536 l 1
 653 1536 773 1486 873 1385 c 1
 873 1385 l 1
 974 1285 1024 1165 1024 1024 c 1
 1024 1024 l 1
 1024 512 l 2
 1024 371 974 250 873 150 c 1
 873 150 l 1
 773 50 653 0 512 0 c 1
EndSplineSet
Validated: 5
EndChar

StartChar: colon
Encoding: 58 58 27
Width: 350
GlyphClass: 1
Flags: W
LayerCount: 2
Fore
SplineSet
256 256 m 1
 0 256 l 1
 0 512 l 1
 256 512 l 1
 256 256 l 1
256 1024 m 1
 0 1024 l 1
 0 1280 l 1
 256 1280 l 1
 256 1024 l 1
EndSplineSet
Validated: 1
EndChar

StartChar: semicolon
Encoding: 59 59 28
Width: 350
GlyphClass: 1
Flags: W
LayerCount: 2
Fore
SplineSet
256 256 m 1
 0 0 l 1
 0 512 l 1
 256 512 l 1
 256 256 l 1
256 1024 m 1
 0 1024 l 1
 0 1280 l 1
 256 1280 l 1
 256 1024 l 1
EndSplineSet
Validated: 1
EndChar

StartChar: less
Encoding: 60 60 29
Width: 1150
GlyphClass: 1
Flags: W
LayerCount: 2
Fore
SplineSet
1024 256 m 1
 1024 0 l 1
 0 512 l 1
 1024 1024 l 1
 1024 768 l 1
 512 512 l 1
 1024 256 l 1
EndSplineSet
Validated: 1
EndChar

StartChar: equal
Encoding: 61 61 30
Width: 1150
GlyphClass: 1
Flags: W
LayerCount: 2
Fore
SplineSet
1024 128 m 1
 0 128 l 1
 0 384 l 1
 1024 384 l 1
 1024 128 l 1
1024 640 m 1
 0 640 l 1
 0 896 l 1
 1024 896 l 1
 1024 640 l 1
EndSplineSet
Validated: 1
EndChar

StartChar: greater
Encoding: 62 62 31
Width: 1150
GlyphClass: 1
Flags: W
LayerCount: 2
Fore
SplineSet
1024 512 m 1
 0 0 l 1
 0 256 l 1
 512 512 l 1
 0 768 l 1
 0 1024 l 1
 1024 512 l 1
EndSplineSet
Validated: 1
EndChar

StartChar: question
Encoding: 63 63 32
Width: 1150
GlyphClass: 1
Flags: W
LayerCount: 2
Fore
SplineSet
640 0 m 1
 384 0 l 1
 384 256 l 1
 640 256 l 1
 640 0 l 1
640 384 m 1
 384 384 l 1
 384 768 l 1
 512 768 l 2
 582 768 642 793 692 843 c 1
 692 843 l 1
 743 893 768 953 768 1024 c 1
 768 1024 l 1
 768 1094 743 1154 692 1204 c 1
 692 1204 l 1
 642 1255 582 1280 512 1280 c 1
 512 1280 l 1
 441 1280 381 1255 331 1204 c 1
 331 1204 l 1
 281 1154 256 1094 256 1024 c 1
 256 1024 l 1
 0 1024 l 1
 0 1165 50 1285 150 1385 c 1
 150 1385 l 1
 250 1486 371 1536 512 1536 c 1
 512 1536 l 1
 653 1536 773 1486 873 1385 c 1
 873 1385 l 1
 974 1285 1024 1165 1024 1024 c 1
 1024 1024 l 1
 1024 883 974 762 873 662 c 1
 873 662 l 1
 805 593 727 548 640 527 c 1
 640 527 l 1
 640 384 l 1
EndSplineSet
Validated: 5
EndChar

StartChar: at
Encoding: 64 64 33
Width: 1700
GlyphClass: 1
Flags: W
LayerCount: 2
Fore
SplineSet
768 256 m 1
 768 256 l 1
 838 256 898 281 948 331 c 1
 948 331 l 1
 999 381 1024 441 1024 512 c 1
 1024 512 l 1
 1024 582 999 642 948 692 c 1
 948 692 l 1
 898 743 838 768 768 768 c 1
 768 768 l 1
 697 768 637 743 587 692 c 1
 587 692 l 1
 537 642 512 582 512 512 c 1
 512 512 l 1
 512 441 537 381 587 331 c 1
 587 331 l 1
 637 281 697 256 768 256 c 1
768 0 m 1
 768 0 l 1
 627 0 506 50 406 150 c 1
 406 150 l 1
 306 250 256 371 256 512 c 1
 256 512 l 1
 256 653 306 773 406 873 c 1
 406 873 l 1
 506 974 627 1024 768 1024 c 1
 768 1024 l 1
 909 1024 1029 974 1129 873 c 1
 1129 873 l 1
 1230 773 1280 653 1280 512 c 1
 1280 512 l 1
 1280 896 l 2
 1280 966 1255 1026 1204 1076 c 1
 1204 1076 l 1
 1154 1127 1094 1152 1024 1152 c 1
 1024 1152 l 1
 512 1152 l 2
 441 1152 381 1127 331 1076 c 1
 331 1076 l 1
 281 1026 256 966 256 896 c 1
 256 896 l 1
 256 384 l 1
 0 384 l 1
 0 896 l 2
 0 1037 50 1157 150 1257 c 1
 150 1257 l 1
 250 1358 371 1408 512 1408 c 1
 512 1408 l 1
 1024 1408 l 2
 1165 1408 1285 1358 1385 1257 c 1
 1385 1257 l 1
 1470 1173 1519 1074 1532 960 c 1
 1532 960 l 1
 1536 960 l 1
 1536 448 l 1
 1532 448 l 1
 1519 333 1470 234 1385 150 c 1
 1385 150 l 1
 1352 117 1317 89 1280 67 c 1
 1280 67 l 1
 1280 0 l 1
 1024 0 l 1
 1024 67 l 1
 947 22 862 0 768 0 c 1
EndSplineSet
Validated: 5
EndChar

StartChar: A
Encoding: 65 65 34
Width: 1704
GlyphClass: 1
Flags: W
LayerCount: 2
Fore
SplineSet
569 704 m 1
 1023 704 l 1
 796 1215 l 1
 569 704 l 1
256 0 m 1
 0 0 l 1
 682 1536 l 1
 910 1536 l 1
 1592 0 l 1
 1365 0 l 2
 1336 0 1137 447 1137 447 c 1
 455 447 l 1
 256 0 l 1
EndSplineSet
Validated: 1
EndChar

StartChar: B
Encoding: 66 66 35
Width: 1420
GlyphClass: 1
Flags: W
LayerCount: 2
Fore
SplineSet
768 0 m 1
 0 0 l 1
 0 1536 l 1
 768 1536 l 2
 909 1536 1029 1486 1129 1385 c 1
 1230 1285 1280 1165 1280 1024 c 1
 1280 883 1230 762 1129 662 c 1
 1029 562 909 512 768 512 c 1
 512 512 l 1
 512 768 l 1
 768 768 l 2
 838 768 898 793 948 843 c 1
 999 893 1024 953 1024 1024 c 1
 1024 1094 999 1154 948 1204 c 1
 898 1255 838 1280 768 1280 c 1
 256 1280 l 1
 256 256 l 1
 768 256 l 2
 838 256 898 281 948 331 c 1
 999 381 1024 441 1024 512 c 1
 1280 512 l 1
 1280 371 1230 250 1129 150 c 1
 1029 50 909 0 768 0 c 1
EndSplineSet
Validated: 1
EndChar

StartChar: C
Encoding: 67 67 36
Width: 1420
GlyphClass: 1
Flags: W
LayerCount: 2
Fore
SplineSet
768 0 m 1
 512 0 l 2
 371 0 250 50 150 150 c 1
 150 150 l 1
 50 250 0 371 0 512 c 1
 0 512 l 1
 0 1024 l 2
 0 1165 50 1285 150 1385 c 1
 150 1385 l 1
 250 1486 371 1536 512 1536 c 1
 512 1536 l 1
 768 1536 l 2
 909 1536 1029 1486 1129 1385 c 1
 1129 1385 l 1
 1230 1285 1280 1165 1280 1024 c 1
 1280 1024 l 1
 1024 1024 l 1
 1024 1094 999 1154 948 1204 c 1
 948 1204 l 1
 898 1255 838 1280 768 1280 c 1
 768 1280 l 1
 512 1280 l 2
 441 1280 381 1255 331 1204 c 1
 331 1204 l 1
 281 1154 256 1094 256 1024 c 1
 256 1024 l 1
 256 512 l 2
 256 441 281 381 331 331 c 1
 331 331 l 1
 381 281 441 256 512 256 c 1
 512 256 l 1
 768 256 l 2
 838 256 898 281 948 331 c 1
 948 331 l 1
 999 381 1024 441 1024 512 c 1
 1024 512 l 1
 1280 512 l 1
 1280 371 1230 250 1129 150 c 1
 1129 150 l 1
 1029 50 909 0 768 0 c 1
 768 0 l 1
EndSplineSet
Validated: 5
EndChar

StartChar: D
Encoding: 68 68 37
Width: 1420
GlyphClass: 1
Flags: W
LayerCount: 2
Fore
SplineSet
256 256 m 1
 768 256 l 2
 838 256 898 281 948 331 c 1
 948 331 l 1
 999 381 1024 441 1024 512 c 1
 1024 512 l 1
 1024 1024 l 2
 1024 1094 999 1154 948 1204 c 1
 948 1204 l 1
 898 1255 838 1280 768 1280 c 1
 768 1280 l 1
 256 1280 l 1
 256 256 l 1
768 0 m 1
 0 0 l 1
 0 1536 l 1
 768 1536 l 2
 909 1536 1029 1486 1129 1385 c 1
 1129 1385 l 1
 1230 1285 1280 1165 1280 1024 c 1
 1280 1024 l 1
 1280 512 l 2
 1280 371 1230 250 1129 150 c 1
 1129 150 l 1
 1029 50 909 0 768 0 c 1
 768 0 l 1
EndSplineSet
Validated: 5
EndChar

StartChar: E
Encoding: 69 69 38
Width: 1150
GlyphClass: 1
Flags: W
LayerCount: 2
Fore
SplineSet
1024 0 m 1
 0 0 l 1
 0 1536 l 1
 1024 1536 l 1
 1024 1280 l 1
 256 1280 l 1
 256 896 l 1
 1024 896 l 1
 1024 640 l 1
 256 640 l 1
 256 256 l 1
 1024 256 l 1
 1024 0 l 1
EndSplineSet
Validated: 1
EndChar

StartChar: F
Encoding: 70 70 39
Width: 1126
GlyphClass: 1
Flags: W
LayerCount: 2
Fore
SplineSet
256 0 m 1
 0 0 l 1
 0 1536 l 1
 1024 1536 l 1
 1024 1280 l 1
 256 1280 l 1
 256 768 l 1
 768 768 l 1
 768 512 l 1
 256 512 l 1
 256 0 l 1
EndSplineSet
Validated: 1
EndChar

StartChar: G
Encoding: 71 71 40
Width: 1420
GlyphClass: 1
Flags: W
LayerCount: 2
Fore
SplineSet
768 0 m 1
 512 0 l 2
 371 0 250 50 150 150 c 1
 150 150 l 1
 50 250 0 371 0 512 c 1
 0 512 l 1
 0 1024 l 2
 0 1165 50 1285 150 1385 c 1
 150 1385 l 1
 250 1486 371 1536 512 1536 c 1
 512 1536 l 1
 768 1536 l 2
 909 1536 1029 1486 1129 1385 c 1
 1129 1385 l 1
 1230 1285 1280 1165 1280 1024 c 1
 1280 1024 l 1
 1024 1024 l 1
 1024 1094 999 1154 948 1204 c 1
 948 1204 l 1
 898 1255 838 1280 768 1280 c 1
 768 1280 l 1
 512 1280 l 2
 441 1280 381 1255 331 1204 c 1
 331 1204 l 1
 281 1154 256 1094 256 1024 c 1
 256 1024 l 1
 256 512 l 2
 256 441 281 381 331 331 c 1
 331 331 l 1
 381 281 441 256 512 256 c 1
 512 256 l 1
 768 256 l 2
 838 256 898 281 948 331 c 1
 948 331 l 1
 999 381 1024 441 1024 512 c 1
 1024 512 l 1
 768 512 l 1
 768 768 l 1
 1280 768 l 1
 1280 512 l 2
 1280 371 1230 250 1129 150 c 1
 1129 150 l 1
 1029 50 909 0 768 0 c 1
 768 0 l 1
EndSplineSet
Validated: 5
EndChar

StartChar: H
Encoding: 72 72 41
Width: 1446
GlyphClass: 1
Flags: W
LayerCount: 2
Fore
SplineSet
256 0 m 1
 0 0 l 1
 0 1536 l 1
 256 1536 l 1
 256 896 l 1
 1024 896 l 1
 1024 1536 l 1
 1280 1536 l 1
 1280 0 l 1
 1024 0 l 1
 1024 640 l 1
 256 640 l 1
 256 0 l 1
EndSplineSet
Validated: 1
EndChar

StartChar: I
Encoding: 73 73 42
Width: 436
GlyphClass: 1
Flags: W
LayerCount: 2
Fore
SplineSet
256 0 m 1
 0 0 l 1
 0 1536 l 1
 256 1536 l 1
 256 0 l 1
EndSplineSet
Validated: 1
EndChar

StartChar: J
Encoding: 74 74 43
Width: 1062
GlyphClass: 1
Flags: W
LayerCount: 2
Fore
SplineSet
384 0 m 1
 384 0 l 1
 315 0 248 13 184 40 c 1
 184 40 l 1
 123 66 69 103 22 150 c 1
 22 150 l 1
 202 330 l 1
 226 307 253 288 284 275 c 1
 284 275 l 1
 315 262 349 256 384 256 c 1
 384 256 l 1
 454 256 514 281 564 331 c 1
 564 331 l 1
 615 381 640 441 640 512 c 1
 640 512 l 1
 640 1536 l 1
 896 1536 l 1
 896 512 l 2
 896 371 846 250 745 150 c 1
 745 150 l 1
 645 50 525 0 384 0 c 1
EndSplineSet
Validated: 5
EndChar

StartChar: K
Encoding: 75 75 44
Width: 1190
GlyphClass: 1
Flags: W
LayerCount: 2
Fore
SplineSet
256 0 m 1
 0 0 l 1
 0 1536 l 1
 256 1536 l 1
 256 768 l 1
 384 768 l 1
 768 1536 l 1
 1024 1536 l 1
 640 768 l 1
 1024 0 l 1
 768 0 l 1
 512 512 l 1
 256 512 l 1
 256 0 l 1
EndSplineSet
Validated: 1
EndChar

StartChar: L
Encoding: 76 76 45
Width: 1190
GlyphClass: 1
Flags: W
LayerCount: 2
Fore
SplineSet
1024 0 m 1
 0 0 l 1
 0 1536 l 1
 256 1536 l 1
 256 256 l 1
 1024 256 l 1
 1024 0 l 1
EndSplineSet
Validated: 1
EndChar

StartChar: M
Encoding: 77 77 46
Width: 1958
GlyphClass: 1
Flags: W
LayerCount: 2
Fore
SplineSet
256 0 m 1
 0 0 l 1
 0 1536 l 1
 256 1536 l 1
 896 256 l 1
 1536 1536 l 1
 1792 1536 l 1
 1792 0 l 1
 1536 0 l 1
 1536 1024 l 1
 1024 0 l 1
 768 0 l 1
 256 1024 l 1
 256 0 l 1
EndSplineSet
Validated: 1
EndChar

StartChar: N
Encoding: 78 78 47
Width: 1446
GlyphClass: 1
Flags: W
LayerCount: 2
Fore
SplineSet
256 0 m 1
 0 0 l 1
 0 1536 l 1
 256 1536 l 1
 1024 384 l 1
 1024 1536 l 1
 1280 1536 l 1
 1280 0 l 1
 1024 0 l 1
 256 1152 l 1
 256 0 l 1
EndSplineSet
Validated: 1
EndChar

StartChar: O
Encoding: 79 79 48
Width: 1420
GlyphClass: 1
Flags: W
LayerCount: 2
Fore
SplineSet
512 256 m 1
 768 256 l 2
 838 256 898 281 948 331 c 1
 948 331 l 1
 999 381 1024 441 1024 512 c 1
 1024 512 l 1
 1024 1024 l 2
 1024 1094 999 1154 948 1204 c 1
 948 1204 l 1
 898 1255 838 1280 768 1280 c 1
 768 1280 l 1
 512 1280 l 2
 441 1280 381 1255 331 1204 c 1
 331 1204 l 1
 281 1154 256 1094 256 1024 c 1
 256 1024 l 1
 256 512 l 2
 256 441 281 381 331 331 c 1
 331 331 l 1
 381 281 441 256 512 256 c 1
 512 256 l 1
768 0 m 1
 512 0 l 2
 371 0 250 50 150 150 c 1
 150 150 l 1
 50 250 0 371 0 512 c 1
 0 512 l 1
 0 1024 l 2
 0 1165 50 1285 150 1385 c 1
 150 1385 l 1
 250 1486 371 1536 512 1536 c 1
 512 1536 l 1
 768 1536 l 2
 909 1536 1029 1486 1129 1385 c 1
 1129 1385 l 1
 1230 1285 1280 1165 1280 1024 c 1
 1280 1024 l 1
 1280 512 l 2
 1280 371 1230 250 1129 150 c 1
 1129 150 l 1
 1029 50 909 0 768 0 c 1
 768 0 l 1
EndSplineSet
Validated: 5
EndChar

StartChar: P
Encoding: 80 80 49
Width: 1120
GlyphClass: 1
Flags: W
LayerCount: 2
Fore
SplineSet
256 768 m 1
 512 768 l 2
 582 768 642 793 692 843 c 1
 743 893 768 953 768 1024 c 1
 768 1094 743 1154 692 1204 c 1
 642 1255 582 1280 512 1280 c 1
 256 1280 l 1
 256 768 l 1
256 0 m 1
 0 0 l 1
 0 1536 l 1
 512 1536 l 2
 653 1536 773 1486 873 1385 c 1
 974 1285 1024 1165 1024 1024 c 1
 1024 883 974 762 873 662 c 1
 773 562 653 512 512 512 c 1
 256 512 l 1
 256 0 l 1
EndSplineSet
Validated: 5
EndChar

StartChar: Q
Encoding: 81 81 50
Width: 1420
GlyphClass: 1
Flags: W
LayerCount: 2
Fore
SplineSet
512 256 m 1
 768 256 l 2
 809 256 847 265 882 282 c 1
 882 282 l 1
 640 768 l 1
 896 768 l 1
 1024 512 l 1
 1024 1024 l 2
 1024 1094 999 1154 948 1204 c 1
 948 1204 l 1
 898 1255 838 1280 768 1280 c 1
 768 1280 l 1
 512 1280 l 2
 441 1280 381 1255 331 1204 c 1
 331 1204 l 1
 281 1154 256 1094 256 1024 c 1
 256 1024 l 1
 256 512 l 2
 256 441 281 381 331 331 c 1
 331 331 l 1
 381 281 441 256 512 256 c 1
 512 256 l 1
768 0 m 1
 512 0 l 2
 371 0 250 50 150 150 c 1
 150 150 l 1
 50 250 0 371 0 512 c 1
 0 512 l 1
 0 1024 l 2
 0 1165 50 1285 150 1385 c 1
 150 1385 l 1
 250 1486 371 1536 512 1536 c 1
 512 1536 l 1
 768 1536 l 2
 909 1536 1029 1486 1129 1385 c 1
 1129 1385 l 1
 1230 1285 1280 1165 1280 1024 c 1
 1280 1024 l 1
 1280 512 l 2
 1280 395 1246 293 1177 204 c 1
 1177 204 l 1
 1280 0 l 1
 1024 0 l 1
 997 52 l 1
 928 17 851 0 768 0 c 1
 768 0 l 1
EndSplineSet
Validated: 5
EndChar

StartChar: R
Encoding: 82 82 51
Width: 1150
GlyphClass: 1
Flags: W
LayerCount: 2
Fore
SplineSet
256 768 m 1
 512 768 l 2
 582 768 642 793 692 843 c 1
 692 843 l 1
 743 893 768 953 768 1024 c 1
 768 1024 l 1
 768 1094 743 1154 692 1204 c 1
 692 1204 l 1
 642 1255 582 1280 512 1280 c 1
 512 1280 l 1
 256 1280 l 1
 256 768 l 1
256 0 m 1
 0 0 l 1
 0 1536 l 1
 512 1536 l 2
 653 1536 773 1486 873 1385 c 1
 873 1385 l 1
 974 1285 1024 1165 1024 1024 c 1
 1024 1024 l 1
 1024 883 974 762 873 662 c 1
 873 662 l 1
 840 629 805 601 768 579 c 1
 768 579 l 1
 739 558 l 1
 1024 0 l 1
 768 0 l 1
 512 512 l 1
 256 512 l 1
 256 0 l 1
EndSplineSet
Validated: 5
EndChar

StartChar: S
Encoding: 83 83 52
Width: 1190
GlyphClass: 1
Flags: W
LayerCount: 2
Fore
SplineSet
512 0 m 1
 512 0 l 1
 371 0 250 50 150 150 c 1
 150 150 l 1
 50 250 0 371 0 512 c 1
 0 512 l 1
 256 512 l 1
 256 441 281 381 331 331 c 1
 331 331 l 1
 381 281 441 256 512 256 c 1
 512 256 l 1
 582 256 642 281 692 331 c 1
 692 331 l 1
 743 381 768 441 768 512 c 1
 768 512 l 1
 768 582 743 642 692 692 c 1
 692 692 l 1
 642 743 582 768 512 768 c 1
 512 768 l 1
 512 1024 l 1
 653 1024 773 974 873 873 c 1
 873 873 l 1
 974 773 1024 653 1024 512 c 1
 1024 512 l 1
 1024 371 974 250 873 150 c 1
 873 150 l 1
 773 50 653 0 512 0 c 1
512 768 m 1
 512 512 l 1
 371 512 250 562 150 662 c 1
 150 662 l 1
 50 762 0 883 0 1024 c 1
 0 1024 l 1
 0 1165 50 1285 150 1385 c 1
 150 1385 l 1
 250 1486 371 1536 512 1536 c 1
 512 1536 l 1
 653 1536 773 1486 873 1385 c 1
 873 1385 l 1
 974 1285 1024 1165 1024 1024 c 1
 1024 1024 l 1
 768 1024 l 1
 768 1094 743 1154 692 1204 c 1
 692 1204 l 1
 642 1255 582 1280 512 1280 c 1
 512 1280 l 1
 441 1280 381 1255 331 1204 c 1
 331 1204 l 1
 281 1154 256 1094 256 1024 c 1
 256 1024 l 1
 256 953 281 893 331 843 c 1
 331 843 l 1
 381 793 441 768 512 768 c 1
 512 768 l 1
EndSplineSet
Validated: 5
EndChar

StartChar: T
Encoding: 84 84 53
Width: 1230
GlyphClass: 1
Flags: W
LayerCount: 2
Fore
SplineSet
668 0 m 1
 412 0 l 1
 412 1280 l 1
 -100 1280 l 1
 -100 1536 l 1
 1180 1536 l 1
 1180 1280 l 1
 668 1280 l 1
 668 0 l 1
EndSplineSet
Validated: 1
EndChar

StartChar: U
Encoding: 85 85 54
Width: 1420
GlyphClass: 1
Flags: W
LayerCount: 2
Fore
SplineSet
768 0 m 1
 512 0 l 2
 371 0 250 50 150 150 c 1
 150 150 l 1
 50 250 0 371 0 512 c 1
 0 512 l 1
 0 1536 l 1
 256 1536 l 1
 256 512 l 2
 256 441 281 381 331 331 c 1
 331 331 l 1
 381 281 441 256 512 256 c 1
 512 256 l 1
 768 256 l 2
 838 256 898 281 948 331 c 1
 948 331 l 1
 999 381 1024 441 1024 512 c 1
 1024 512 l 1
 1024 1536 l 1
 1280 1536 l 1
 1280 512 l 2
 1280 371 1230 250 1129 150 c 1
 1129 150 l 1
 1029 50 909 0 768 0 c 1
 768 0 l 1
EndSplineSet
Validated: 5
EndChar

StartChar: V
Encoding: 86 86 55
Width: 1370
GlyphClass: 1
Flags: W
LayerCount: 2
Fore
SplineSet
768 0 m 1
 512 0 l 1
 0 1024 l 1
 0 1536 l 1
 256 1536 l 1
 256 1024 l 1
 640 256 l 1
 1024 1024 l 1
 1024 1536 l 1
 1280 1536 l 1
 1280 1024 l 1
 768 0 l 1
EndSplineSet
Validated: 1
EndChar

StartChar: W
Encoding: 87 87 56
Width: 2150
GlyphClass: 1
Flags: W
LayerCount: 2
Fore
SplineSet
768 0 m 1
 512 0 l 1
 0 1024 l 1
 0 1536 l 1
 256 1536 l 1
 256 1024 l 1
 640 256 l 1
 1024 1024 l 1
 1408 256 l 1
 1792 1024 l 1
 1792 1536 l 1
 2048 1536 l 1
 2048 1024 l 1
 1536 0 l 1
 1280 0 l 1
 1024 512 l 1
 768 0 l 1
EndSplineSet
Validated: 1
EndChar

StartChar: X
Encoding: 88 88 57
Width: 1190
GlyphClass: 1
Flags: W
LayerCount: 2
Fore
SplineSet
256 0 m 1
 0 0 l 1
 422 768 l 1
 0 1536 l 1
 256 1536 l 1
 562 979 l 1
 868 1536 l 1
 1124 1536 l 1
 703 768 l 1
 1124 0 l 1
 868 0 l 1
 562 557 l 1
 256 0 l 1
EndSplineSet
Validated: 1
EndChar

StartChar: Y
Encoding: 89 89 58
Width: 1140
GlyphClass: 1
Flags: W
LayerCount: 2
Fore
SplineSet
618 0 m 1
 362 0 l 1
 362 512 l 1
 -150 1536 l 1
 106 1536 l 1
 490 768 l 1
 874 1536 l 1
 1130 1536 l 1
 618 512 l 1
 618 0 l 1
EndSplineSet
Validated: 1
EndChar

StartChar: Z
Encoding: 90 90 59
Width: 1130
GlyphClass: 1
Flags: W
LayerCount: 2
Fore
SplineSet
1024 0 m 1
 0 0 l 1
 640 1280 l 1
 0 1280 l 1
 0 1536 l 1
 1024 1536 l 1
 384 256 l 1
 1024 256 l 1
 1024 0 l 1
EndSplineSet
Validated: 1
EndChar

StartChar: bracketleft
Encoding: 91 91 60
Width: 600
GlyphClass: 1
Flags: W
LayerCount: 2
Fore
SplineSet
512 -256 m 1
 0 -256 l 1
 0 1792 l 1
 512 1792 l 1
 512 1536 l 1
 256 1536 l 1
 256 0 l 1
 512 0 l 1
 512 -256 l 1
EndSplineSet
Validated: 1
EndChar

StartChar: backslash
Encoding: 92 92 61
Width: 950
GlyphClass: 1
Flags: W
LayerCount: 2
Fore
SplineSet
924 0 m 1
 668 0 l 1
 -100 1536 l 1
 156 1536 l 1
 924 0 l 1
EndSplineSet
Validated: 1
EndChar

StartChar: bracketright
Encoding: 93 93 62
Width: 650
GlyphClass: 1
Flags: W
LayerCount: 2
Fore
SplineSet
512 -256 m 1
 0 -256 l 1
 0 0 l 1
 256 0 l 1
 256 1536 l 1
 0 1536 l 1
 0 1792 l 1
 512 1792 l 1
 512 -256 l 1
EndSplineSet
Validated: 1
EndChar

StartChar: asciicircum
Encoding: 94 94 63
Width: 850
GlyphClass: 1
Flags: W
LayerCount: 2
Fore
SplineSet
256 768 m 1
 0 768 l 1
 384 1152 l 1
 768 768 l 1
 512 768 l 1
 384 896 l 1
 256 768 l 1
EndSplineSet
Validated: 1
EndChar

StartChar: underscore
Encoding: 95 95 64
Width: 1400
GlyphClass: 1
Flags: W
LayerCount: 2
Fore
SplineSet
1280 0 m 1
 0 0 l 1
 0 256 l 1
 1280 256 l 1
 1280 0 l 1
EndSplineSet
Validated: 1
EndChar

StartChar: grave
Encoding: 96 96 65
Width: 600
GlyphClass: 1
Flags: W
LayerCount: 2
Fore
SplineSet
312 1288 m 1
 56 1288 l 1
 -200 1800 l 1
 56 1800 l 1
 312 1288 l 1
EndSplineSet
Validated: 1
EndChar

StartChar: a
Encoding: 97 97 66
Width: 1150
GlyphClass: 1
Flags: W
LayerCount: 2
Fore
SplineSet
512 256 m 1
 512 256 l 1
 582 256 642 281 692 331 c 1
 692 331 l 1
 743 381 768 441 768 512 c 1
 768 512 l 1
 768 582 743 642 692 692 c 1
 692 692 l 1
 642 743 582 768 512 768 c 1
 512 768 l 1
 441 768 381 743 331 692 c 1
 331 692 l 1
 281 642 256 582 256 512 c 1
 256 512 l 1
 256 441 281 381 331 331 c 1
 331 331 l 1
 381 281 441 256 512 256 c 1
512 0 m 1
 512 0 l 1
 371 0 250 50 150 150 c 1
 150 150 l 1
 50 250 0 371 0 512 c 1
 0 512 l 1
 0 653 50 773 150 873 c 1
 150 873 l 1
 250 974 371 1024 512 1024 c 1
 512 1024 l 1
 653 1024 773 974 873 873 c 1
 873 873 l 1
 974 773 1024 653 1024 512 c 1
 1024 512 l 1
 1024 0 l 1
 768 0 l 1
 768 67 l 1
 691 22 606 0 512 0 c 1
EndSplineSet
Validated: 5
EndChar

StartChar: b
Encoding: 98 98 67
Width: 1150
GlyphClass: 1
Flags: W
LayerCount: 2
Fore
SplineSet
512 256 m 1
 512 256 l 1
 582 256 642 281 692 331 c 1
 692 331 l 1
 743 381 768 441 768 512 c 1
 768 512 l 1
 768 582 743 642 692 692 c 1
 692 692 l 1
 642 743 582 768 512 768 c 1
 512 768 l 1
 441 768 381 743 331 692 c 1
 331 692 l 1
 281 642 256 582 256 512 c 1
 256 512 l 1
 256 441 281 381 331 331 c 1
 331 331 l 1
 381 281 441 256 512 256 c 1
256 0 m 1
 0 0 l 1
 0 1536 l 1
 256 1536 l 1
 256 956 l 1
 332 1001 417 1024 512 1024 c 1
 512 1024 l 1
 653 1024 773 974 873 873 c 1
 873 873 l 1
 974 773 1024 653 1024 512 c 1
 1024 512 l 1
 1024 371 974 250 873 150 c 1
 873 150 l 1
 773 50 653 0 512 0 c 1
 512 0 l 1
 417 0 332 22 256 67 c 1
 256 67 l 1
 256 0 l 1
EndSplineSet
Validated: 5
EndChar

StartChar: c
Encoding: 99 99 68
Width: 950
GlyphClass: 1
Flags: W
LayerCount: 2
Fore
SplineSet
512 0 m 1
 512 0 l 1
 371 0 250 50 150 150 c 1
 150 150 l 1
 50 250 0 371 0 512 c 1
 0 512 l 1
 0 653 50 773 150 873 c 1
 150 873 l 1
 250 974 371 1024 512 1024 c 1
 512 1024 l 1
 581 1024 647 1010 711 983 c 1
 711 983 l 1
 772 957 826 920 873 873 c 1
 873 873 l 1
 693 693 l 1
 669 716 642 735 611 748 c 1
 611 748 l 1
 580 761 547 768 512 768 c 1
 512 768 l 1
 441 768 381 743 331 692 c 1
 331 692 l 1
 281 642 256 582 256 512 c 1
 256 512 l 1
 256 441 281 381 331 331 c 1
 331 331 l 1
 381 281 441 256 512 256 c 1
 512 256 l 1
 547 256 580 262 611 275 c 1
 611 275 l 1
 642 288 669 307 693 330 c 1
 693 330 l 1
 873 150 l 1
 826 103 772 66 711 40 c 1
 711 40 l 1
 647 13 581 0 512 0 c 1
EndSplineSet
Validated: 5
EndChar

StartChar: d
Encoding: 100 100 69
Width: 1204
GlyphClass: 1
Flags: W
LayerCount: 2
Fore
SplineSet
512 256 m 1
 512 256 l 1
 582 256 642 281 692 331 c 1
 692 331 l 1
 743 381 768 441 768 512 c 1
 768 512 l 1
 768 582 743 642 692 692 c 1
 692 692 l 1
 642 743 582 768 512 768 c 1
 512 768 l 1
 441 768 381 743 331 692 c 1
 331 692 l 1
 281 642 256 582 256 512 c 1
 256 512 l 1
 256 441 281 381 331 331 c 1
 331 331 l 1
 381 281 441 256 512 256 c 1
512 0 m 1
 512 0 l 1
 371 0 250 50 150 150 c 1
 150 150 l 1
 50 250 0 371 0 512 c 1
 0 512 l 1
 0 653 50 773 150 873 c 1
 150 873 l 1
 250 974 371 1024 512 1024 c 1
 512 1024 l 1
 606 1024 691 1001 768 956 c 1
 768 956 l 1
 768 1536 l 1
 1024 1536 l 1
 1024 0 l 1
 768 0 l 1
 768 67 l 1
 691 22 606 0 512 0 c 1
EndSplineSet
Validated: 5
EndChar

StartChar: e
Encoding: 101 101 70
Width: 1150
GlyphClass: 1
Flags: W
LayerCount: 2
Fore
SplineSet
512 0 m 1
 512 0 l 1
 371 0 250 50 150 150 c 1
 150 150 l 1
 50 250 0 371 0 512 c 1
 0 512 l 1
 0 653 50 773 150 873 c 1
 150 873 l 1
 250 974 371 1024 512 1024 c 1
 512 1024 l 1
 653 1024 773 974 873 873 c 1
 873 873 l 1
 974 773 1024 653 1024 512 c 1
 1024 512 l 1
 768 512 l 1
 768 582 743 642 692 692 c 1
 692 692 l 1
 642 743 582 768 512 768 c 1
 512 768 l 1
 441 768 381 743 331 692 c 1
 331 692 l 1
 281 642 256 582 256 512 c 1
 256 512 l 1
 256 441 281 381 331 331 c 1
 331 331 l 1
 381 281 441 256 512 256 c 1
 512 256 l 1
 547 256 580 262 611 275 c 1
 611 275 l 1
 642 288 669 307 693 330 c 1
 693 330 l 1
 873 150 l 1
 826 103 772 66 711 40 c 1
 711 40 l 1
 647 13 581 0 512 0 c 1
EndSplineSet
Validated: 5
EndChar

StartChar: f
Encoding: 102 102 71
Width: 742
GlyphClass: 1
Flags: W
LayerCount: 2
Fore
SplineSet
256 0 m 1
 0 0 l 1
 0 1024 l 2
 0 1165 50 1285 150 1385 c 1
 150 1385 l 1
 250 1486 371 1536 512 1536 c 1
 512 1536 l 1
 581 1536 647 1522 711 1495 c 1
 711 1495 l 1
 772 1469 826 1432 873 1385 c 1
 873 1385 l 1
 693 1205 l 1
 669 1228 642 1247 611 1260 c 1
 611 1260 l 1
 580 1273 547 1280 512 1280 c 1
 512 1280 l 1
 441 1280 381 1255 331 1204 c 1
 331 1204 l 1
 281 1154 256 1094 256 1024 c 1
 256 1024 l 1
 256 768 l 1
 512 768 l 1
 512 512 l 1
 256 512 l 1
 256 0 l 1
EndSplineSet
Validated: 5
EndChar

StartChar: g
Encoding: 103 103 72
Width: 1150
GlyphClass: 1
Flags: W
LayerCount: 2
Fore
SplineSet
512 256 m 1
 512 256 l 1
 582 256 642 281 692 331 c 1
 692 331 l 1
 743 381 768 441 768 512 c 1
 768 512 l 1
 768 582 743 642 692 692 c 1
 692 692 l 1
 642 743 582 768 512 768 c 1
 512 768 l 1
 441 768 381 743 331 692 c 1
 331 692 l 1
 281 642 256 582 256 512 c 1
 256 512 l 1
 256 441 281 381 331 331 c 1
 331 331 l 1
 381 281 441 256 512 256 c 1
512 -512 m 1
 512 -512 l 1
 443 -512 376 -498 312 -471 c 1
 312 -471 l 1
 251 -445 197 -408 150 -361 c 1
 150 -361 l 1
 330 -181 l 1
 354 -204 381 -223 412 -236 c 1
 412 -236 l 1
 443 -249 477 -256 512 -256 c 1
 512 -256 l 1
 582 -256 642 -231 692 -180 c 1
 692 -180 l 1
 743 -130 768 -70 768 0 c 1
 768 0 l 1
 768 67 l 1
 691 22 606 0 512 0 c 1
 512 0 l 1
 371 0 250 50 150 150 c 1
 150 150 l 1
 50 250 0 371 0 512 c 1
 0 512 l 1
 0 653 50 773 150 873 c 1
 150 873 l 1
 250 974 371 1024 512 1024 c 1
 512 1024 l 1
 606 1024 691 1001 768 956 c 1
 768 956 l 1
 768 1024 l 1
 1024 1024 l 1
 1024 0 l 2
 1024 -141 974 -261 873 -361 c 1
 873 -361 l 1
 773 -462 653 -512 512 -512 c 1
EndSplineSet
Validated: 5
EndChar

StartChar: h
Encoding: 104 104 73
Width: 1150
GlyphClass: 1
Flags: W
LayerCount: 2
Fore
SplineSet
256 0 m 1
 0 0 l 1
 0 1536 l 1
 256 1536 l 1
 256 956 l 1
 332 1001 417 1024 512 1024 c 1
 512 1024 l 1
 653 1024 773 974 873 873 c 1
 873 873 l 1
 974 773 1024 653 1024 512 c 1
 1024 512 l 1
 1024 0 l 1
 768 0 l 1
 768 512 l 2
 768 582 743 642 692 692 c 1
 692 692 l 1
 642 743 582 768 512 768 c 1
 512 768 l 1
 441 768 381 743 331 692 c 1
 331 692 l 1
 281 642 256 582 256 512 c 1
 256 512 l 1
 256 0 l 1
EndSplineSet
Validated: 5
EndChar

StartChar: i
Encoding: 105 105 74
Width: 436
GlyphClass: 1
Flags: W
LayerCount: 2
Fore
SplineSet
256 0 m 1
 0 0 l 1
 0 1024 l 1
 256 1024 l 1
 256 0 l 1
256 1280 m 1
 0 1280 l 1
 0 1536 l 1
 256 1536 l 1
 256 1280 l 1
EndSplineSet
Validated: 1
EndChar

StartChar: j
Encoding: 106 106 75
Width: 550
GlyphClass: 1
Flags: W
LayerCount: 2
Fore
SplineSet
-128 -512 m 1
 -128 -512 l 1
 -197 -512 -263 -498 -327 -471 c 1
 -327 -471 l 1
 -388 -445 -442 -408 -489 -361 c 1
 -489 -361 l 1
 -309 -181 l 1
 -285 -204 -258 -223 -227 -236 c 1
 -227 -236 l 1
 -196 -249 -163 -256 -128 -256 c 1
 -128 -256 l 1
 -57 -256 3 -231 52 -180 c 1
 52 -180 l 1
 103 -130 128 -70 128 0 c 1
 128 0 l 1
 128 1024 l 1
 384 1024 l 1
 384 0 l 2
 384 -141 334 -261 233 -361 c 1
 233 -361 l 1
 133 -462 13 -512 -128 -512 c 1
384 1280 m 1
 128 1280 l 1
 128 1536 l 1
 384 1536 l 1
 384 1280 l 1
EndSplineSet
Validated: 5
EndChar

StartChar: k
Encoding: 107 107 76
Width: 840
GlyphClass: 1
Flags: W
LayerCount: 2
Fore
SplineSet
768 0 m 1
 512 0 l 1
 256 512 l 1
 512 1024 l 1
 768 1024 l 1
 512 512 l 1
 768 0 l 1
256 0 m 1
 0 0 l 1
 0 1536 l 1
 256 1536 l 1
 256 0 l 1
EndSplineSet
Validated: 5
EndChar

StartChar: l
Encoding: 108 108 77
Width: 436
GlyphClass: 1
Flags: W
LayerCount: 2
Fore
SplineSet
256 0 m 1
 0 0 l 1
 0 1580 l 1
 256 1580 l 1
 256 0 l 1
EndSplineSet
Validated: 1
EndChar

StartChar: m
Encoding: 109 109 78
Width: 1958
GlyphClass: 1
Flags: W
LayerCount: 2
Fore
SplineSet
256 0 m 1
 0 0 l 1
 0 1024 l 1
 256 1024 l 1
 256 956 l 1
 332 1001 417 1024 512 1024 c 1
 512 1024 l 1
 653 1024 773 974 873 873 c 1
 873 873 l 1
 881 866 889 858 896 850 c 1
 896 850 l 1
 903 858 910 866 918 873 c 1
 918 873 l 1
 1018 974 1139 1024 1280 1024 c 1
 1280 1024 l 1
 1421 1024 1541 974 1641 873 c 1
 1641 873 l 1
 1742 773 1792 653 1792 512 c 1
 1792 512 l 1
 1792 0 l 1
 1536 0 l 1
 1536 512 l 2
 1536 582 1511 642 1460 692 c 1
 1460 692 l 1
 1410 743 1350 768 1280 768 c 1
 1280 768 l 1
 1209 768 1149 743 1099 692 c 1
 1099 692 l 1
 1049 642 1024 582 1024 512 c 1
 1024 512 l 1
 1024 0 l 1
 768 0 l 1
 768 512 l 2
 768 582 743 642 692 692 c 1
 692 692 l 1
 642 743 582 768 512 768 c 1
 512 768 l 1
 441 768 381 743 331 692 c 1
 331 692 l 1
 281 642 256 582 256 512 c 1
 256 512 l 1
 256 0 l 1
EndSplineSet
Validated: 5
EndChar

StartChar: n
Encoding: 110 110 79
Width: 1150
GlyphClass: 1
Flags: W
LayerCount: 2
Fore
SplineSet
256 0 m 1
 0 0 l 1
 0 1024 l 1
 256 1024 l 1
 256 956 l 1
 332 1001 417 1024 512 1024 c 1
 512 1024 l 1
 653 1024 773 974 873 873 c 1
 873 873 l 1
 974 773 1024 653 1024 512 c 1
 1024 512 l 1
 1024 0 l 1
 768 0 l 1
 768 512 l 2
 768 582 743 642 692 692 c 1
 692 692 l 1
 642 743 582 768 512 768 c 1
 512 768 l 1
 441 768 381 743 331 692 c 1
 331 692 l 1
 281 642 256 582 256 512 c 1
 256 512 l 1
 256 0 l 1
EndSplineSet
Validated: 5
EndChar

StartChar: o
Encoding: 111 111 80
Width: 1150
GlyphClass: 1
Flags: W
LayerCount: 2
Fore
SplineSet
512 256 m 1
 512 256 l 1
 582 256 642 281 692 331 c 1
 692 331 l 1
 743 381 768 441 768 512 c 1
 768 512 l 1
 768 582 743 642 692 692 c 1
 692 692 l 1
 642 743 582 768 512 768 c 1
 512 768 l 1
 441 768 381 743 331 692 c 1
 331 692 l 1
 281 642 256 582 256 512 c 1
 256 512 l 1
 256 441 281 381 331 331 c 1
 331 331 l 1
 381 281 441 256 512 256 c 1
512 0 m 1
 512 0 l 1
 371 0 250 50 150 150 c 1
 150 150 l 1
 50 250 0 371 0 512 c 1
 0 512 l 1
 0 653 50 773 150 873 c 1
 150 873 l 1
 250 974 371 1024 512 1024 c 1
 512 1024 l 1
 653 1024 773 974 873 873 c 1
 873 873 l 1
 974 773 1024 653 1024 512 c 1
 1024 512 l 1
 1024 371 974 250 873 150 c 1
 873 150 l 1
 773 50 653 0 512 0 c 1
EndSplineSet
Validated: 5
EndChar

StartChar: p
Encoding: 112 112 81
Width: 1150
GlyphClass: 1
Flags: W
LayerCount: 2
Fore
SplineSet
512 256 m 1
 512 256 l 1
 582 256 642 281 692 331 c 1
 692 331 l 1
 743 381 768 441 768 512 c 1
 768 512 l 1
 768 582 743 642 692 692 c 1
 692 692 l 1
 642 743 582 768 512 768 c 1
 512 768 l 1
 441 768 381 743 331 692 c 1
 331 692 l 1
 281 642 256 582 256 512 c 1
 256 512 l 1
 256 441 281 381 331 331 c 1
 331 331 l 1
 381 281 441 256 512 256 c 1
256 -512 m 1
 0 -512 l 1
 0 1024 l 1
 256 1024 l 1
 256 956 l 1
 332 1001 417 1024 512 1024 c 1
 512 1024 l 1
 653 1024 773 974 873 873 c 1
 873 873 l 1
 974 773 1024 653 1024 512 c 1
 1024 512 l 1
 1024 371 974 250 873 150 c 1
 873 150 l 1
 773 50 653 0 512 0 c 1
 512 0 l 1
 417 0 332 22 256 67 c 1
 256 67 l 1
 256 -512 l 1
EndSplineSet
Validated: 5
EndChar

StartChar: q
Encoding: 113 113 82
Width: 1204
GlyphClass: 1
Flags: W
LayerCount: 2
Fore
SplineSet
512 256 m 1
 512 256 l 1
 582 256 642 281 692 331 c 1
 692 331 l 1
 743 381 768 441 768 512 c 1
 768 512 l 1
 768 582 743 642 692 692 c 1
 692 692 l 1
 642 743 582 768 512 768 c 1
 512 768 l 1
 441 768 381 743 331 692 c 1
 331 692 l 1
 281 642 256 582 256 512 c 1
 256 512 l 1
 256 441 281 381 331 331 c 1
 331 331 l 1
 381 281 441 256 512 256 c 1
1024 -512 m 1
 768 -512 l 1
 768 67 l 1
 691 22 606 0 512 0 c 1
 512 0 l 1
 371 0 250 50 150 150 c 1
 150 150 l 1
 50 250 0 371 0 512 c 1
 0 512 l 1
 0 653 50 773 150 873 c 1
 150 873 l 1
 250 974 371 1024 512 1024 c 1
 512 1024 l 1
 606 1024 691 1001 768 956 c 1
 768 956 l 1
 768 1024 l 1
 1024 1024 l 1
 1024 -512 l 1
EndSplineSet
Validated: 5
EndChar

StartChar: r
Encoding: 114 114 83
Width: 840
GlyphClass: 1
Flags: W
LayerCount: 2
Fore
SplineSet
256 0 m 1
 0 0 l 1
 0 1024 l 1
 256 1024 l 1
 256 956 l 1
 332 1001 417 1024 512 1024 c 1
 512 1024 l 1
 768 1024 l 1
 768 768 l 1
 512 768 l 2
 441 768 381 743 331 692 c 1
 331 692 l 1
 281 642 256 582 256 512 c 1
 256 512 l 1
 256 0 l 1
EndSplineSet
Validated: 5
EndChar

StartChar: s
Encoding: 115 115 84
Width: 934
GlyphClass: 1
Flags: W
LayerCount: 2
Fore
SplineSet
256 0 m 1
 0 0 l 1
 0 256 l 1
 256 256 l 2
 326 256 386 281 436 331 c 1
 436 331 l 1
 487 381 512 441 512 512 c 1
 512 512 l 1
 768 512 l 1
 768 371 718 250 617 150 c 1
 617 150 l 1
 517 50 397 0 256 0 c 1
 256 0 l 1
256 512 m 1
 0 512 l 1
 0 653 50 773 150 873 c 1
 150 873 l 1
 250 974 371 1024 512 1024 c 1
 512 1024 l 1
 768 1024 l 1
 768 768 l 1
 512 768 l 2
 441 768 381 743 331 692 c 1
 331 692 l 1
 281 642 256 582 256 512 c 1
 256 512 l 1
EndSplineSet
Validated: 5
EndChar

StartChar: t
Encoding: 116 116 85
Width: 628
GlyphClass: 1
Flags: W
LayerCount: 2
Fore
SplineSet
512 256 m 1
 512 0 l 1
 371 0 250 50 150 150 c 1
 150 150 l 1
 50 250 0 371 0 512 c 1
 0 512 l 1
 0 1536 l 1
 256 1536 l 1
 256 1280 l 1
 512 1280 l 1
 512 1024 l 1
 256 1024 l 1
 256 512 l 2
 256 441 281 381 331 331 c 1
 331 331 l 1
 381 281 441 256 512 256 c 1
 512 256 l 1
EndSplineSet
Validated: 5
EndChar

StartChar: u
Encoding: 117 117 86
Width: 1150
GlyphClass: 1
Flags: W
LayerCount: 2
Fore
SplineSet
512 0 m 1
 512 0 l 1
 371 0 250 50 150 150 c 1
 150 150 l 1
 50 250 0 371 0 512 c 1
 0 512 l 1
 0 1024 l 1
 256 1024 l 1
 256 512 l 2
 256 441 281 381 331 331 c 1
 331 331 l 1
 381 281 441 256 512 256 c 1
 512 256 l 1
 582 256 642 281 692 331 c 1
 692 331 l 1
 743 381 768 441 768 512 c 1
 768 512 l 1
 768 1024 l 1
 1024 1024 l 1
 1024 0 l 1
 768 0 l 1
 768 67 l 1
 691 22 606 0 512 0 c 1
EndSplineSet
Validated: 5
EndChar

StartChar: v
Encoding: 118 118 87
Width: 960
GlyphClass: 1
Flags: W
LayerCount: 2
Fore
SplineSet
924 1024 m 1
 412 0 l 1
 -100 1024 l 1
 156 1024 l 1
 412 512 l 1
 668 1024 l 1
 924 1024 l 1
EndSplineSet
Validated: 1
EndChar

StartChar: w
Encoding: 119 119 88
Width: 1930
GlyphClass: 1
Flags: W
LayerCount: 2
Fore
SplineSet
896 173 m 1
 896 173 l 1
 896 173 l 1
 896 173 l 1
 896 173 l 1
512 0 m 1
 512 0 l 1
 371 0 250 50 150 150 c 1
 150 150 l 1
 50 250 0 371 0 512 c 1
 0 512 l 1
 0 1024 l 1
 256 1024 l 1
 256 512 l 2
 256 441 281 381 331 331 c 1
 331 331 l 1
 381 281 441 256 512 256 c 1
 512 256 l 1
 582 256 642 281 692 331 c 1
 692 331 l 1
 743 381 768 441 768 512 c 1
 768 512 l 1
 768 1024 l 1
 1024 1024 l 1
 1024 512 l 2
 1024 441 1049 381 1099 331 c 1
 1099 331 l 1
 1149 281 1209 256 1280 256 c 1
 1280 256 l 1
 1350 256 1410 281 1460 331 c 1
 1460 331 l 1
 1511 381 1536 441 1536 512 c 1
 1536 512 l 1
 1536 1024 l 1
 1792 1024 l 1
 1792 512 l 2
 1792 371 1742 250 1641 150 c 1
 1641 150 l 1
 1541 50 1421 0 1280 0 c 1
 1280 0 l 1
 1139 0 1018 50 918 150 c 1
 918 150 l 1
 910 157 903 165 896 173 c 1
 896 173 l 1
 889 165 881 157 873 150 c 1
 873 150 l 1
 773 50 653 0 512 0 c 1
EndSplineSet
Validated: 5
EndChar

StartChar: x
Encoding: 120 120 89
Width: 980
GlyphClass: 1
Flags: W
LayerCount: 2
Fore
SplineSet
206 0 m 1
 -50 0 l 1
 206 512 l 1
 -50 1024 l 1
 206 1024 l 1
 398 640 l 1
 590 1024 l 1
 846 1024 l 1
 590 512 l 1
 846 0 l 1
 590 0 l 1
 398 384 l 1
 206 0 l 1
EndSplineSet
Validated: 1
EndChar

StartChar: y
Encoding: 121 121 90
Width: 1150
GlyphClass: 1
Flags: W
LayerCount: 2
Fore
SplineSet
512 -512 m 1
 256 -512 l 1
 256 -256 l 1
 512 -256 l 2
 582 -256 642 -231 692 -180 c 1
 692 -180 l 1
 743 -130 768 -70 768 0 c 1
 768 0 l 1
 768 67 l 1
 691 22 606 0 512 0 c 1
 512 0 l 1
 371 0 250 50 150 150 c 1
 150 150 l 1
 50 250 0 371 0 512 c 1
 0 512 l 1
 0 1024 l 1
 256 1024 l 1
 256 512 l 2
 256 441 281 381 331 331 c 1
 331 331 l 1
 381 281 441 256 512 256 c 1
 512 256 l 1
 582 256 642 281 692 331 c 1
 692 331 l 1
 743 381 768 441 768 512 c 1
 768 512 l 1
 768 1024 l 1
 1024 1024 l 1
 1024 0 l 2
 1024 -141 974 -261 873 -361 c 1
 873 -361 l 1
 773 -462 653 -512 512 -512 c 1
 512 -512 l 1
EndSplineSet
Validated: 5
EndChar

StartChar: z
Encoding: 122 122 91
Width: 850
GlyphClass: 1
Flags: W
LayerCount: 2
Fore
SplineSet
768 0 m 1
 0 0 l 1
 384 768 l 1
 0 768 l 1
 0 1024 l 1
 768 1024 l 1
 384 256 l 1
 768 256 l 1
 768 0 l 1
EndSplineSet
Validated: 1
EndChar

StartChar: braceleft
Encoding: 123 123 92
Width: 742
GlyphClass: 1
Flags: W
LayerCount: 2
Fore
SplineSet
512 0 m 1
 512 -256 l 1
 371 -256 250 -206 150 -105 c 1
 150 -105 l 1
 50 -6 0 115 0 256 c 1
 0 256 l 1
 0 512 l 1
 256 768 l 1
 0 1024 l 1
 0 1280 l 2
 0 1421 50 1541 150 1641 c 1
 150 1641 l 1
 250 1742 371 1792 512 1792 c 1
 512 1792 l 1
 512 1536 l 1
 441 1536 381 1511 331 1460 c 1
 331 1460 l 1
 281 1410 256 1350 256 1280 c 1
 256 1280 l 1
 256 1024 l 1
 512 768 l 1
 256 512 l 1
 256 256 l 2
 256 185 281 125 331 75 c 1
 331 75 l 1
 381 25 441 0 512 0 c 1
 512 0 l 1
EndSplineSet
Validated: 5
EndChar

StartChar: bar
Encoding: 124 124 93
Width: 550
GlyphClass: 1
Flags: W
LayerCount: 2
Fore
SplineSet
256 -128 m 1
 0 -128 l 1
 0 1664 l 1
 256 1664 l 1
 256 -128 l 1
EndSplineSet
Validated: 1
EndChar

StartChar: braceright
Encoding: 125 125 94
Width: 742
GlyphClass: 1
Flags: W
LayerCount: 2
Fore
SplineSet
0 -256 m 1
 0 -256 l 1
 0 0 l 1
 70 0 130 25 180 75 c 1
 180 75 l 1
 231 125 256 185 256 256 c 1
 256 256 l 1
 256 512 l 1
 0 768 l 1
 256 1024 l 1
 256 1280 l 2
 256 1350 231 1410 180 1460 c 1
 180 1460 l 1
 130 1511 70 1536 0 1536 c 1
 0 1536 l 1
 0 1792 l 1
 141 1792 261 1742 361 1641 c 1
 361 1641 l 1
 462 1541 512 1421 512 1280 c 1
 512 1280 l 1
 512 1024 l 1
 256 768 l 1
 512 512 l 1
 512 256 l 2
 512 115 462 -6 361 -105 c 1
 361 -105 l 1
 261 -206 141 -256 0 -256 c 1
EndSplineSet
Validated: 5
EndChar

StartChar: asciitilde
Encoding: 126 126 95
Width: 1250
GlyphClass: 1
Flags: W
LayerCount: 2
Fore
SplineSet
796 288 m 1
 796 288 l 1
 284 544 l 1
 249 544 215 537 184 524 c 1
 184 524 l 1
 153 511 126 492 102 469 c 1
 102 469 l 1
 -78 649 l 1
 -31 696 23 733 84 759 c 1
 84 759 l 1
 148 786 215 800 284 800 c 1
 284 800 l 1
 796 544 l 1
 831 544 864 550 895 563 c 1
 895 563 l 1
 926 576 953 595 977 618 c 1
 977 618 l 1
 1157 438 l 1
 1110 391 1056 354 995 328 c 1
 995 328 l 1
 931 301 865 288 796 288 c 1
EndSplineSet
Validated: 5
EndChar

StartChar: exclamdown
Encoding: 161 161 97
Width: 436
GlyphClass: 1
Flags: W
LayerCount: 2
Fore
SplineSet
256 -256 m 1
 0 -256 l 1
 0 896 l 1
 256 896 l 1
 256 -256 l 1
256 1024 m 1
 0 1024 l 1
 0 1280 l 1
 256 1280 l 1
 256 1024 l 1
EndSplineSet
Validated: 1
EndChar

StartChar: cent
Encoding: 162 162 98
Width: 950
GlyphClass: 1
Flags: W
LayerCount: 2
Fore
SplineSet
640 -256 m 1
 384 -256 l 1
 384 15 l 1
 383 15 l 1
 296 36 218 81 150 150 c 1
 150 150 l 1
 50 250 0 371 0 512 c 1
 0 512 l 1
 0 653 50 773 150 873 c 1
 150 873 l 1
 218 942 296 987 384 1008 c 1
 384 1008 l 1
 384 1280 l 1
 640 1280 l 1
 640 1007 l 1
 664 1001 688 993 711 983 c 1
 711 983 l 1
 772 957 826 920 873 873 c 1
 873 873 l 1
 693 693 l 1
 669 716 642 735 611 748 c 1
 611 748 l 1
 580 761 547 768 512 768 c 1
 512 768 l 1
 441 768 381 743 331 692 c 1
 331 692 l 1
 281 642 256 582 256 512 c 1
 256 512 l 1
 256 441 281 381 331 331 c 1
 331 331 l 1
 381 281 441 256 512 256 c 1
 512 256 l 1
 547 256 580 262 611 275 c 1
 611 275 l 1
 642 288 669 307 693 330 c 1
 693 330 l 1
 873 150 l 1
 826 103 772 66 711 40 c 1
 711 40 l 1
 688 30 664 22 640 16 c 1
 640 16 l 1
 640 -256 l 1
EndSplineSet
Validated: 5
EndChar

StartChar: sterling
Encoding: 163 163 99
Width: 1150
GlyphClass: 1
Flags: W
LayerCount: 2
Fore
SplineSet
1024 0 m 1
 0 0 l 1
 0 256 l 1
 70 256 130 281 180 331 c 1
 180 331 l 1
 231 381 256 441 256 512 c 1
 256 512 l 1
 0 512 l 1
 0 768 l 1
 256 768 l 1
 256 1024 l 2
 256 1165 306 1285 406 1385 c 1
 406 1385 l 1
 506 1486 627 1536 768 1536 c 1
 768 1536 l 1
 1024 1536 l 1
 1024 1280 l 1
 768 1280 l 2
 697 1280 637 1255 587 1204 c 1
 587 1204 l 1
 537 1154 512 1094 512 1024 c 1
 512 1024 l 1
 512 768 l 1
 768 768 l 1
 768 512 l 1
 512 512 l 1
 512 417 489 332 444 256 c 1
 444 256 l 1
 1024 256 l 1
 1024 0 l 1
EndSplineSet
Validated: 5
EndChar

StartChar: currency
Encoding: 164 164 100
Width: 740
GlyphClass: 1
Flags: W
LayerCount: 2
Fore
SplineSet
192 1217 m 1
 192 1217 l 1
 191 1217 l 1
 192 1217 192 1217 192 1217 c 1
288 1288 m 1
 288 1288 l 1
 314 1288 337 1297 356 1316 c 1
 356 1316 l 1
 374 1334 384 1357 384 1384 c 1
 384 1384 l 1
 384 1410 374 1433 356 1452 c 1
 356 1452 l 1
 337 1470 314 1480 288 1480 c 1
 288 1480 l 1
 261 1480 238 1470 220 1452 c 1
 220 1452 l 1
 201 1433 192 1410 192 1384 c 1
 192 1384 l 1
 192 1357 201 1334 220 1316 c 1
 220 1316 l 1
 238 1297 261 1288 288 1288 c 1
192 1217 m 1
 192 1096 l 1
 0 1288 l 1
 121 1288 l 1
 104 1317 96 1349 96 1384 c 1
 96 1384 l 1
 96 1419 104 1451 121 1480 c 1
 121 1480 l 1
 0 1480 l 1
 192 1672 l 1
 192 1551 l 1
 221 1568 253 1576 288 1576 c 1
 288 1576 l 1
 323 1576 355 1568 384 1551 c 1
 384 1551 l 1
 384 1672 l 1
 576 1480 l 1
 455 1480 l 1
 472 1451 480 1419 480 1384 c 1
 480 1384 l 1
 480 1349 472 1317 455 1288 c 1
 455 1288 l 1
 576 1288 l 1
 384 1096 l 1
 384 1217 l 1
 355 1200 323 1192 288 1192 c 1
 288 1192 l 1
 253 1192 221 1200 192 1217 c 1
 192 1217 l 1
EndSplineSet
Validated: 5
EndChar

StartChar: yen
Encoding: 165 165 101
Width: 1140
GlyphClass: 1
Flags: W
LayerCount: 2
Fore
SplineSet
618 0 m 1
 362 0 l 1
 362 512 l 1
 106 512 l 1
 106 768 l 1
 234 768 l 1
 -150 1536 l 1
 106 1536 l 1
 490 768 l 1
 874 1536 l 1
 1130 1536 l 1
 746 768 l 1
 874 768 l 1
 874 512 l 1
 618 512 l 1
 618 0 l 1
EndSplineSet
Validated: 1
EndChar

StartChar: brokenbar
Encoding: 166 166 102
Width: 436
GlyphClass: 1
Flags: W
LayerCount: 2
Fore
SplineSet
256 -128 m 1
 0 -128 l 1
 0 512 l 1
 256 512 l 1
 256 -128 l 1
256 1024 m 1
 0 1024 l 1
 0 1664 l 1
 256 1664 l 1
 256 1024 l 1
EndSplineSet
Validated: 1
EndChar

StartChar: section
Encoding: 167 167 103
Width: 1190
GlyphClass: 1
Flags: W
LayerCount: 2
Fore
SplineSet
512 0 m 1
 512 0 l 1
 371 0 250 50 150 150 c 1
 150 150 l 1
 50 250 0 371 0 512 c 1
 0 512 l 1
 256 512 l 1
 256 441 281 381 331 331 c 1
 331 331 l 1
 381 281 441 256 512 256 c 1
 512 256 l 1
 582 256 642 281 692 331 c 1
 692 331 l 1
 743 381 768 441 768 512 c 1
 768 512 l 1
 512 512 l 2
 371 512 250 562 150 662 c 1
 150 662 l 1
 50 762 0 883 0 1024 c 1
 0 1024 l 1
 0 1165 50 1285 150 1385 c 1
 150 1385 l 1
 250 1486 371 1536 512 1536 c 1
 512 1536 l 1
 653 1536 773 1486 873 1385 c 1
 873 1385 l 1
 974 1285 1024 1165 1024 1024 c 1
 1024 1024 l 1
 768 1024 l 1
 768 1094 743 1154 692 1204 c 1
 692 1204 l 1
 642 1255 582 1280 512 1280 c 1
 512 1280 l 1
 441 1280 381 1255 331 1204 c 1
 331 1204 l 1
 281 1154 256 1094 256 1024 c 1
 256 1024 l 1
 512 1024 l 2
 653 1024 773 974 873 873 c 1
 873 873 l 1
 974 773 1024 653 1024 512 c 1
 1024 512 l 1
 1024 371 974 250 873 150 c 1
 873 150 l 1
 773 50 653 0 512 0 c 1
EndSplineSet
Validated: 5
EndChar

StartChar: dieresis
Encoding: 168 168 104
Width: 900
GlyphClass: 1
Flags: W
LayerCount: 2
Fore
SplineSet
256 1280 m 1
 0 1280 l 1
 0 1536 l 1
 256 1536 l 1
 256 1280 l 1
768 1280 m 1
 512 1280 l 1
 512 1536 l 1
 768 1536 l 1
 768 1280 l 1
EndSplineSet
Validated: 1
EndChar

StartChar: copyright
Encoding: 169 169 105
Width: 1150
GlyphClass: 1
Flags: W
LayerCount: 2
Fore
SplineSet
512 1544 m 1
 512 1032 l 1
 441 1032 381 1057 330 1106 c 1
 330 1106 l 1
 281 1157 256 1217 256 1288 c 1
 256 1288 l 1
 256 1358 281 1418 330 1469 c 1
 330 1469 l 1
 381 1519 441 1544 512 1544 c 1
 512 1544 l 1
512 904 m 1
 512 904 l 1
 617 904 708 941 783 1016 c 1
 783 1016 l 1
 858 1091 896 1182 896 1288 c 1
 896 1288 l 1
 896 1393 858 1484 783 1559 c 1
 783 1559 l 1
 708 1634 617 1672 512 1672 c 1
 512 1672 l 1
 406 1672 315 1634 240 1559 c 1
 240 1559 l 1
 165 1484 128 1393 128 1288 c 1
 128 1288 l 1
 128 1182 165 1091 240 1016 c 1
 240 1016 l 1
 315 941 406 904 512 904 c 1
512 776 m 1
 512 776 l 1
 371 776 250 826 150 926 c 1
 150 926 l 1
 50 1026 0 1147 0 1288 c 1
 0 1288 l 1
 0 1429 50 1549 150 1649 c 1
 150 1649 l 1
 250 1750 371 1800 512 1800 c 1
 512 1800 l 1
 653 1800 773 1750 873 1649 c 1
 873 1649 l 1
 974 1549 1024 1429 1024 1288 c 1
 1024 1288 l 1
 1024 1147 974 1026 873 926 c 1
 873 926 l 1
 773 826 653 776 512 776 c 1
EndSplineSet
Validated: 5
EndChar

StartChar: ordfeminine
Encoding: 170 170 106
Width: 678
GlyphClass: 1
Flags: W
LayerCount: 2
Fore
SplineSet
256 1439 m 1
 256 1439 l 1
 282 1439 305 1448 324 1467 c 1
 324 1467 l 1
 343 1486 352 1509 352 1536 c 1
 352 1536 l 1
 352 1562 343 1585 324 1604 c 1
 324 1604 l 1
 305 1622 282 1631 256 1631 c 1
 256 1631 l 1
 229 1631 206 1622 187 1604 c 1
 187 1604 l 1
 169 1585 160 1562 160 1536 c 1
 160 1536 l 1
 160 1509 169 1486 187 1467 c 1
 187 1467 l 1
 206 1448 229 1439 256 1439 c 1
512 1280 m 1
 256 1280 l 2
 185 1280 125 1305 74 1354 c 1
 74 1354 l 1
 25 1405 0 1465 0 1536 c 1
 0 1536 l 1
 0 1606 25 1666 74 1717 c 1
 74 1717 l 1
 125 1767 185 1792 256 1792 c 1
 256 1792 l 1
 326 1792 386 1767 437 1717 c 1
 437 1717 l 1
 487 1666 512 1606 512 1536 c 1
 512 1536 l 1
 512 1280 l 1
EndSplineSet
Validated: 5
EndChar

StartChar: guillemotleft
Encoding: 171 171 107
Width: 1150
GlyphClass: 1
Flags: W
LayerCount: 2
Fore
SplineSet
512 384 m 1
 512 128 l 1
 0 640 l 1
 512 1152 l 1
 512 896 l 1
 256 640 l 1
 512 384 l 1
1024 384 m 1
 1024 128 l 1
 512 640 l 1
 1024 1152 l 1
 1024 896 l 1
 768 640 l 1
 1024 384 l 1
EndSplineSet
Validated: 1
EndChar

StartChar: logicalnot
Encoding: 172 172 108
Width: 1150
GlyphClass: 1
Flags: W
LayerCount: 2
Fore
SplineSet
1024 256 m 1
 768 256 l 1
 768 512 l 1
 0 512 l 1
 0 768 l 1
 1024 768 l 1
 1024 256 l 1
EndSplineSet
Validated: 1
EndChar

StartChar: uni00AD
Encoding: 173 173 109
Width: 1200
GlyphClass: 1
Flags: W
LayerCount: 2
Fore
SplineSet
1088 512 m 1
 64 512 l 1
 64 768 l 1
 1088 768 l 1
 1088 512 l 1
EndSplineSet
Validated: 1
EndChar

StartChar: registered
Encoding: 174 174 110
Width: 1150
GlyphClass: 1
Flags: W
LayerCount: 2
Fore
SplineSet
768 1032 m 1
 256 1032 l 1
 256 1288 l 2
 256 1358 281 1418 330 1469 c 1
 330 1469 l 1
 381 1519 441 1544 512 1544 c 1
 512 1544 l 1
 582 1544 642 1519 693 1469 c 1
 693 1469 l 1
 743 1418 768 1358 768 1288 c 1
 768 1288 l 1
 640 1288 l 1
 768 1032 l 1
512 904 m 1
 512 904 l 1
 617 904 708 941 783 1016 c 1
 783 1016 l 1
 858 1091 896 1182 896 1288 c 1
 896 1288 l 1
 896 1393 858 1484 783 1559 c 1
 783 1559 l 1
 708 1634 617 1672 512 1672 c 1
 512 1672 l 1
 406 1672 315 1634 240 1559 c 1
 240 1559 l 1
 165 1484 128 1393 128 1288 c 1
 128 1288 l 1
 128 1182 165 1091 240 1016 c 1
 240 1016 l 1
 315 941 406 904 512 904 c 1
512 776 m 1
 512 776 l 1
 371 776 250 826 150 926 c 1
 150 926 l 1
 50 1026 0 1147 0 1288 c 1
 0 1288 l 1
 0 1429 50 1549 150 1649 c 1
 150 1649 l 1
 250 1750 371 1800 512 1800 c 1
 512 1800 l 1
 653 1800 773 1750 873 1649 c 1
 873 1649 l 1
 974 1549 1024 1429 1024 1288 c 1
 1024 1288 l 1
 1024 1147 974 1026 873 926 c 1
 873 926 l 1
 773 826 653 776 512 776 c 1
EndSplineSet
Validated: 5
EndChar

StartChar: macron
Encoding: 175 175 111
Width: 1300
GlyphClass: 1
Flags: W
LayerCount: 2
Fore
SplineSet
1088 1280 m 1
 64 1280 l 1
 64 1536 l 1
 1088 1536 l 1
 1088 1280 l 1
EndSplineSet
Validated: 1
EndChar

StartChar: degree
Encoding: 176 176 112
Width: 742
GlyphClass: 1
Flags: W
LayerCount: 2
Fore
SplineSet
256 1433 m 1
 256 1433 l 1
 284 1433 308 1443 328 1463 c 1
 328 1463 l 1
 348 1483 358 1507 358 1536 c 1
 358 1536 l 1
 358 1564 348 1588 328 1608 c 1
 328 1608 l 1
 308 1628 284 1638 256 1638 c 1
 256 1638 l 1
 227 1638 203 1628 183 1608 c 1
 183 1608 l 1
 163 1588 153 1564 153 1536 c 1
 153 1536 l 1
 153 1507 163 1483 183 1463 c 1
 183 1463 l 1
 203 1443 227 1433 256 1433 c 1
256 1280 m 1
 256 1280 l 1
 185 1280 125 1305 74 1354 c 1
 74 1354 l 1
 25 1405 0 1465 0 1536 c 1
 0 1536 l 1
 0 1606 25 1666 74 1717 c 1
 74 1717 l 1
 125 1767 185 1792 256 1792 c 1
 256 1792 l 1
 326 1792 386 1767 437 1717 c 1
 437 1717 l 1
 487 1666 512 1606 512 1536 c 1
 512 1536 l 1
 512 1465 487 1405 437 1354 c 1
 437 1354 l 1
 386 1305 326 1280 256 1280 c 1
EndSplineSet
Validated: 5
EndChar

StartChar: plusminus
Encoding: 177 177 113
Width: 1150
GlyphClass: 1
Flags: W
LayerCount: 2
Fore
SplineSet
1024 0 m 1
 0 0 l 1
 0 256 l 1
 384 256 l 1
 384 512 l 1
 0 512 l 1
 0 768 l 1
 384 768 l 1
 384 1152 l 1
 640 1152 l 1
 640 768 l 1
 1024 768 l 1
 1024 512 l 1
 640 512 l 1
 640 256 l 1
 1024 256 l 1
 1024 0 l 1
EndSplineSet
Validated: 1
EndChar

StartChar: uni00B2
Encoding: 178 178 114
Width: 600
GlyphClass: 1
Flags: W
LayerCount: 2
Fore
SplineSet
512 1152 m 1
 0 1152 l 1
 256 1664 l 1
 0 1664 l 1
 0 1734 25 1794 74 1845 c 1
 74 1845 l 1
 125 1895 185 1920 256 1920 c 1
 256 1920 l 1
 326 1920 386 1895 437 1845 c 1
 437 1845 l 1
 487 1794 512 1734 512 1664 c 1
 512 1664 l 1
 384 1408 l 1
 512 1408 l 1
 512 1152 l 1
EndSplineSet
Validated: 5
EndChar

StartChar: uni00B3
Encoding: 179 179 115
Width: 600
GlyphClass: 1
Flags: W
LayerCount: 2
Fore
SplineSet
256 1152 m 1
 256 1152 l 1
 185 1152 125 1177 74 1226 c 1
 74 1226 l 1
 25 1277 0 1337 0 1408 c 1
 0 1408 l 1
 256 1408 l 1
 256 1664 l 1
 0 1664 l 1
 0 1734 25 1794 74 1845 c 1
 74 1845 l 1
 125 1895 185 1920 256 1920 c 1
 256 1920 l 1
 326 1920 386 1895 437 1845 c 1
 437 1845 l 1
 487 1794 512 1734 512 1664 c 1
 512 1664 l 1
 512 1408 l 2
 512 1337 487 1277 437 1226 c 1
 437 1226 l 1
 386 1177 326 1152 256 1152 c 1
EndSplineSet
Validated: 5
EndChar

StartChar: acute
Encoding: 180 180 116
Width: 742
GlyphClass: 1
Flags: W
LayerCount: 2
Fore
SplineSet
256 1024 m 1
 0 1024 l 1
 256 1536 l 1
 512 1536 l 1
 256 1024 l 1
EndSplineSet
Validated: 1
EndChar

StartChar: mu
Encoding: 181 181 117
Width: 1190
GlyphClass: 1
Flags: W
LayerCount: 2
Fore
SplineSet
256 -512 m 1
 0 -512 l 1
 0 1024 l 1
 256 1024 l 1
 256 512 l 2
 256 441 281 381 331 331 c 1
 331 331 l 1
 381 281 441 256 512 256 c 1
 512 256 l 1
 582 256 642 281 692 331 c 1
 692 331 l 1
 743 381 768 441 768 512 c 1
 768 512 l 1
 768 1024 l 1
 1024 1024 l 1
 1024 0 l 1
 768 0 l 1
 768 67 l 1
 691 22 606 0 512 0 c 1
 512 0 l 1
 417 0 332 22 256 67 c 1
 256 67 l 1
 256 -512 l 1
EndSplineSet
Validated: 5
EndChar

StartChar: paragraph
Encoding: 182 182 118
Width: 1254
GlyphClass: 1
Flags: W
LayerCount: 2
Fore
SplineSet
640 0 m 1
 384 0 l 1
 384 526 l 1
 383 526 l 1
 296 548 218 593 150 662 c 1
 150 662 l 1
 50 762 0 883 0 1024 c 1
 0 1024 l 1
 0 1165 50 1286 150 1385 c 1
 150 1385 l 1
 218 1454 296 1499 384 1520 c 1
 384 1520 l 1
 384 1536 l 1
 1024 1536 l 1
 1024 0 l 1
 768 0 l 1
 768 1280 l 1
 640 1280 l 1
 640 0 l 1
EndSplineSet
Validated: 5
EndChar

StartChar: periodcentered
Encoding: 183 183 119
Width: 678
GlyphClass: 1
Flags: W
LayerCount: 2
Fore
SplineSet
256 563 m 1
 256 563 l 1
 199 563 151 583 111 623 c 1
 111 623 l 1
 71 663 51 711 51 768 c 1
 51 768 l 1
 51 824 71 872 111 912 c 1
 111 912 l 1
 151 952 199 972 256 972 c 1
 256 972 l 1
 312 972 360 952 400 912 c 1
 400 912 l 1
 440 872 460 824 460 768 c 1
 460 768 l 1
 460 711 440 663 400 623 c 1
 400 623 l 1
 360 583 312 563 256 563 c 1
EndSplineSet
Validated: 5
EndChar

StartChar: cedilla
Encoding: 184 184 120
Width: 742
GlyphClass: 1
Flags: W
LayerCount: 2
Fore
SplineSet
0 -512 m 1
 0 -512 l 1
 0 -256 l 1
 70 -256 146 -231 196 -180 c 1
 196 -180 l 1
 213 -164 227 -147 238 -128 c 1
 238 -128 l 1
 0 -128 l 1
 0 384 l 1
 256 384 l 1
 256 128 l 1
 512 128 l 1
 512 -128 l 1
 512 -128 l 1
 491 -215 446 -293 377 -361 c 1
 377 -361 l 1
 277 -462 141 -512 0 -512 c 1
EndSplineSet
Validated: 5
EndChar

StartChar: uni00B9
Encoding: 185 185 121
Width: 600
GlyphClass: 1
Flags: W
LayerCount: 2
Fore
SplineSet
418 1152 m 1
 162 1152 l 1
 162 1664 l 1
 -30 1664 l 1
 162 1856 l 1
 162 1920 l 1
 418 1920 l 1
 418 1152 l 1
EndSplineSet
Validated: 1
EndChar

StartChar: ordmasculine
Encoding: 186 186 122
Width: 678
GlyphClass: 1
Flags: W
LayerCount: 2
Fore
SplineSet
256 1439 m 1
 256 1439 l 1
 282 1439 305 1448 324 1467 c 1
 324 1467 l 1
 343 1486 352 1509 352 1536 c 1
 352 1536 l 1
 352 1562 343 1585 324 1604 c 1
 324 1604 l 1
 305 1622 282 1631 256 1631 c 1
 256 1631 l 1
 229 1631 206 1622 187 1604 c 1
 187 1604 l 1
 169 1585 160 1562 160 1536 c 1
 160 1536 l 1
 160 1509 169 1486 187 1467 c 1
 187 1467 l 1
 206 1448 229 1439 256 1439 c 1
256 1280 m 1
 256 1280 l 1
 185 1280 125 1305 74 1354 c 1
 74 1354 l 1
 25 1405 0 1465 0 1536 c 1
 0 1536 l 1
 0 1606 25 1666 74 1717 c 1
 74 1717 l 1
 125 1767 185 1792 256 1792 c 1
 256 1792 l 1
 326 1792 386 1767 437 1717 c 1
 437 1717 l 1
 487 1666 512 1606 512 1536 c 1
 512 1536 l 1
 512 1465 487 1405 437 1354 c 1
 437 1354 l 1
 386 1305 326 1280 256 1280 c 1
EndSplineSet
Validated: 5
EndChar

StartChar: guillemotright
Encoding: 187 187 123
Width: 1150
GlyphClass: 1
Flags: W
LayerCount: 2
Fore
SplineSet
512 640 m 1
 0 128 l 1
 0 384 l 1
 256 640 l 1
 0 896 l 1
 0 1152 l 1
 512 640 l 1
1024 640 m 1
 512 128 l 1
 512 384 l 1
 768 640 l 1
 512 896 l 1
 512 1152 l 1
 1024 640 l 1
EndSplineSet
Validated: 1
EndChar

StartChar: onequarter
Encoding: 188 188 124
Width: 1702
GlyphClass: 1
Flags: W
LayerCount: 2
Fore
SplineSet
1536 128 m 1
 1280 128 l 1
 1280 384 l 1
 1024 384 l 1
 1024 640 l 1
 1280 896 l 1
 1536 896 l 1
 1536 128 l 1
512 0 m 1
 256 0 l 1
 1024 1536 l 1
 1280 1536 l 1
 512 0 l 1
512 1152 m 1
 256 1152 l 1
 256 1664 l 1
 64 1664 l 1
 256 1856 l 1
 256 1920 l 1
 512 1920 l 1
 512 1152 l 1
EndSplineSet
Validated: 1
EndChar

StartChar: onehalf
Encoding: 189 189 125
Width: 1702
GlyphClass: 1
Flags: W
LayerCount: 2
Fore
SplineSet
1536 128 m 1
 1024 128 l 1
 1280 640 l 1
 1024 640 l 1
 1024 710 1049 770 1098 821 c 1
 1098 821 l 1
 1149 871 1209 896 1280 896 c 1
 1280 896 l 1
 1350 896 1410 871 1461 821 c 1
 1461 821 l 1
 1511 770 1536 710 1536 640 c 1
 1536 640 l 1
 1408 384 l 1
 1536 384 l 1
 1536 128 l 1
512 0 m 1
 256 0 l 1
 1024 1536 l 1
 1280 1536 l 1
 512 0 l 1
512 1152 m 1
 256 1152 l 1
 256 1664 l 1
 64 1664 l 1
 256 1856 l 1
 256 1920 l 1
 512 1920 l 1
 512 1152 l 1
EndSplineSet
Validated: 5
EndChar

StartChar: threequarters
Encoding: 190 190 126
Width: 1702
GlyphClass: 1
Flags: W
LayerCount: 2
Fore
SplineSet
1536 128 m 1
 1280 128 l 1
 1280 384 l 1
 1024 384 l 1
 1024 640 l 1
 1280 896 l 1
 1536 896 l 1
 1536 128 l 1
512 0 m 1
 256 0 l 1
 1024 1536 l 1
 1280 1536 l 1
 512 0 l 1
256 1152 m 1
 256 1152 l 1
 185 1152 125 1177 74 1226 c 1
 74 1226 l 1
 25 1277 0 1337 0 1408 c 1
 0 1408 l 1
 256 1408 l 1
 256 1664 l 1
 0 1664 l 1
 0 1734 25 1794 74 1845 c 1
 74 1845 l 1
 125 1895 185 1920 256 1920 c 1
 256 1920 l 1
 326 1920 386 1895 437 1845 c 1
 437 1845 l 1
 487 1794 512 1734 512 1664 c 1
 512 1664 l 1
 512 1408 l 2
 512 1337 487 1277 437 1226 c 1
 437 1226 l 1
 386 1177 326 1152 256 1152 c 1
EndSplineSet
Validated: 5
EndChar

StartChar: questiondown
Encoding: 191 191 127
Width: 1150
GlyphClass: 1
Flags: W
LayerCount: 2
Fore
SplineSet
512 -256 m 1
 512 -256 l 1
 371 -256 250 -206 150 -105 c 1
 150 -105 l 1
 50 -6 0 115 0 256 c 1
 0 256 l 1
 0 397 50 517 150 617 c 1
 150 617 l 1
 218 686 296 731 384 752 c 1
 384 752 l 1
 384 896 l 1
 640 896 l 1
 640 512 l 1
 512 512 l 2
 441 512 381 487 331 436 c 1
 331 436 l 1
 281 386 256 326 256 256 c 1
 256 256 l 1
 256 185 281 125 331 75 c 1
 331 75 l 1
 381 25 441 0 512 0 c 1
 512 0 l 1
 582 0 642 25 692 75 c 1
 692 75 l 1
 743 125 768 185 768 256 c 1
 768 256 l 1
 1024 256 l 1
 1024 115 974 -6 873 -105 c 1
 873 -105 l 1
 773 -206 653 -256 512 -256 c 1
640 1024 m 1
 384 1024 l 1
 384 1280 l 1
 640 1280 l 1
 640 1024 l 1
EndSplineSet
Validated: 5
EndChar

StartChar: Agrave
Encoding: 192 192 128
Width: 1704
GlyphClass: 1
Flags: W
LayerCount: 2
Fore
SplineSet
1052 1600 m 1
 796 1600 l 1
 540 2112 l 1
 796 2112 l 1
 1052 1600 l 1
569 704 m 1
 1023 704 l 1
 796 1215 l 1
 569 704 l 1
256 0 m 1
 0 0 l 1
 682 1536 l 1
 910 1536 l 1
 1592 0 l 1
 1365 0 l 2
 1336 0 1137 447 1137 447 c 1
 455 447 l 1
 256 0 l 1
EndSplineSet
Validated: 1
EndChar

StartChar: Aacute
Encoding: 193 193 129
Width: 1704
GlyphClass: 1
Flags: W
LayerCount: 2
Fore
SplineSet
796 1600 m 1
 540 1600 l 1
 796 2112 l 1
 1052 2112 l 1
 796 1600 l 1
569 704 m 1
 1023 704 l 1
 796 1215 l 1
 569 704 l 1
256 0 m 1
 0 0 l 1
 682 1536 l 1
 910 1536 l 1
 1592 0 l 1
 1365 0 l 2
 1336 0 1137 447 1137 447 c 1
 455 447 l 1
 256 0 l 1
EndSplineSet
Validated: 1
EndChar

StartChar: Acircumflex
Encoding: 194 194 130
Width: 1704
GlyphClass: 1
Flags: W
LayerCount: 2
Fore
SplineSet
796 1856 m 1
 540 1600 l 1
 540 1856 l 1
 796 2112 l 1
 1052 1856 l 1
 1052 1600 l 1
 796 1856 l 1
569 704 m 1
 1023 704 l 1
 796 1215 l 1
 569 704 l 1
256 0 m 1
 0 0 l 1
 682 1536 l 1
 910 1536 l 1
 1592 0 l 1
 1365 0 l 2
 1336 0 1137 447 1137 447 c 1
 455 447 l 1
 256 0 l 1
EndSplineSet
Validated: 1
EndChar

StartChar: Atilde
Encoding: 195 195 131
Width: 1704
GlyphClass: 1
Flags: W
LayerCount: 2
Fore
SplineSet
1052 1600 m 1
 540 1856 l 1
 505 1856 471 1849 440 1836 c 1
 409 1823 382 1804 358 1781 c 1
 178 1961 l 1
 225 2008 279 2045 340 2071 c 1
 404 2098 471 2112 540 2112 c 1
 1052 1856 l 1
 1087 1856 1120 1862 1151 1875 c 1
 1182 1888 1209 1907 1233 1930 c 1
 1413 1750 l 1
 1366 1703 1312 1666 1251 1640 c 1
 1187 1613 1121 1600 1052 1600 c 1
569 704 m 1
 1023 704 l 1
 796 1215 l 1
 569 704 l 1
256 0 m 1
 0 0 l 1
 682 1536 l 1
 910 1536 l 1
 1592 0 l 1
 1365 0 l 2
 1336 0 1137 447 1137 447 c 1
 455 447 l 1
 256 0 l 1
EndSplineSet
Validated: 5
EndChar

StartChar: Adieresis
Encoding: 196 196 132
Width: 1704
GlyphClass: 1
Flags: W
LayerCount: 2
Fore
SplineSet
668 1664 m 1
 412 1664 l 1
 412 1920 l 1
 668 1920 l 1
 668 1664 l 1
1180 1664 m 1
 924 1664 l 1
 924 1920 l 1
 1180 1920 l 1
 1180 1664 l 1
569 704 m 1
 1023 704 l 1
 796 1215 l 1
 569 704 l 1
256 0 m 1
 0 0 l 1
 682 1536 l 1
 910 1536 l 1
 1592 0 l 1
 1365 0 l 2
 1336 0 1137 447 1137 447 c 1
 455 447 l 1
 256 0 l 1
EndSplineSet
Validated: 1
EndChar

StartChar: Aring
Encoding: 197 197 133
Width: 1704
GlyphClass: 1
Flags: W
LayerCount: 2
Fore
SplineSet
796 1753 m 1
 824 1753 848 1763 868 1783 c 1
 888 1803 898 1827 898 1856 c 1
 898 1884 888 1908 868 1928 c 1
 848 1948 824 1958 796 1958 c 1
 767 1958 743 1948 723 1928 c 1
 703 1908 693 1884 693 1856 c 1
 693 1827 703 1803 723 1783 c 1
 743 1763 767 1753 796 1753 c 1
796 1600 m 1
 725 1600 665 1625 614 1674 c 1
 565 1725 540 1785 540 1856 c 1
 540 1926 565 1986 614 2037 c 1
 665 2087 725 2112 796 2112 c 1
 866 2112 926 2087 977 2037 c 1
 1027 1986 1052 1926 1052 1856 c 1
 1052 1785 1027 1725 977 1674 c 1
 926 1625 866 1600 796 1600 c 1
569 704 m 1
 1023 704 l 1
 796 1215 l 1
 569 704 l 1
256 0 m 1
 0 0 l 1
 682 1536 l 1
 910 1536 l 1
 1592 0 l 1
 1365 0 l 2
 1336 0 1137 447 1137 447 c 1
 455 447 l 1
 256 0 l 1
EndSplineSet
Validated: 5
EndChar

StartChar: AE
Encoding: 198 198 134
Width: 2170
GlyphClass: 1
Flags: W
LayerCount: 2
Fore
SplineSet
704 896 m 1
 1024 896 l 1
 1024 1280 l 1
 896 1280 l 1
 704 896 l 1
256 0 m 1
 0 0 l 1
 768 1536 l 1
 2048 1536 l 1
 2048 1280 l 1
 1280 1280 l 1
 1280 896 l 1
 2048 896 l 1
 2048 640 l 1
 1280 640 l 1
 1280 256 l 1
 2048 256 l 1
 2048 0 l 1
 1024 0 l 1
 1024 640 l 1
 576 640 l 1
 256 0 l 1
EndSplineSet
Validated: 1
EndChar

StartChar: Ccedilla
Encoding: 199 199 135
Width: 1420
GlyphClass: 1
Flags: W
LayerCount: 2
Fore
SplineSet
256 -448 m 1
 256 -448 l 1
 256 -192 l 1
 326 -192 386 -167 436 -116 c 1
 436 -116 l 1
 471 -82 493 -43 504 0 c 1
 504 0 l 1
 366 1 248 51 150 150 c 1
 150 150 l 1
 50 250 0 371 0 512 c 1
 0 512 l 1
 0 1024 l 2
 0 1165 50 1285 150 1385 c 1
 150 1385 l 1
 250 1486 371 1536 512 1536 c 1
 512 1536 l 1
 768 1536 l 2
 909 1536 1029 1486 1129 1385 c 1
 1129 1385 l 1
 1230 1285 1280 1165 1280 1024 c 1
 1280 1024 l 1
 1024 1024 l 1
 1024 1094 999 1154 948 1204 c 1
 948 1204 l 1
 898 1255 838 1280 768 1280 c 1
 768 1280 l 1
 512 1280 l 2
 441 1280 381 1255 331 1204 c 1
 331 1204 l 1
 281 1154 256 1094 256 1024 c 1
 256 1024 l 1
 256 512 l 2
 256 441 281 381 331 331 c 1
 331 331 l 1
 381 281 441 256 512 256 c 1
 512 256 l 1
 768 256 l 2
 838 256 898 281 948 331 c 1
 948 331 l 1
 999 381 1024 441 1024 512 c 1
 1024 512 l 1
 1280 512 l 1
 1280 371 1230 250 1129 150 c 1
 1129 150 l 1
 1029 50 909 0 768 0 c 1
 768 0 l 1
 764 0 l 1
 751 -114 702 -213 617 -297 c 1
 617 -297 l 1
 517 -398 397 -448 256 -448 c 1
EndSplineSet
Validated: 5
EndChar

StartChar: Egrave
Encoding: 200 200 136
Width: 1150
GlyphClass: 1
Flags: W
LayerCount: 2
Fore
SplineSet
640 1600 m 1
 384 1600 l 1
 128 2112 l 1
 384 2112 l 1
 640 1600 l 1
1024 0 m 1
 0 0 l 1
 0 1536 l 1
 1024 1536 l 1
 1024 1280 l 1
 256 1280 l 1
 256 896 l 1
 1024 896 l 1
 1024 640 l 1
 256 640 l 1
 256 256 l 1
 1024 256 l 1
 1024 0 l 1
EndSplineSet
Validated: 1
EndChar

StartChar: Eacute
Encoding: 201 201 137
Width: 1150
GlyphClass: 1
Flags: W
LayerCount: 2
Fore
SplineSet
640 1600 m 1
 384 1600 l 1
 640 2112 l 1
 896 2112 l 1
 640 1600 l 1
1024 0 m 1
 0 0 l 1
 0 1536 l 1
 1024 1536 l 1
 1024 1280 l 1
 256 1280 l 1
 256 896 l 1
 1024 896 l 1
 1024 640 l 1
 256 640 l 1
 256 256 l 1
 1024 256 l 1
 1024 0 l 1
EndSplineSet
Validated: 1
EndChar

StartChar: Ecircumflex
Encoding: 202 202 138
Width: 1150
GlyphClass: 1
Flags: W
LayerCount: 2
Fore
SplineSet
512 1856 m 1
 256 1600 l 1
 256 1856 l 1
 512 2112 l 1
 768 1856 l 1
 768 1600 l 1
 512 1856 l 1
1024 0 m 1
 0 0 l 1
 0 1536 l 1
 1024 1536 l 1
 1024 1280 l 1
 256 1280 l 1
 256 896 l 1
 1024 896 l 1
 1024 640 l 1
 256 640 l 1
 256 256 l 1
 1024 256 l 1
 1024 0 l 1
EndSplineSet
Validated: 1
EndChar

StartChar: Edieresis
Encoding: 203 203 139
Width: 1150
GlyphClass: 1
Flags: W
LayerCount: 2
Fore
SplineSet
384 1664 m 1
 128 1664 l 1
 128 1920 l 1
 384 1920 l 1
 384 1664 l 1
896 1664 m 1
 640 1664 l 1
 640 1920 l 1
 896 1920 l 1
 896 1664 l 1
1024 0 m 1
 0 0 l 1
 0 1536 l 1
 1024 1536 l 1
 1024 1280 l 1
 256 1280 l 1
 256 896 l 1
 1024 896 l 1
 1024 640 l 1
 256 640 l 1
 256 256 l 1
 1024 256 l 1
 1024 0 l 1
EndSplineSet
Validated: 1
EndChar

StartChar: Igrave
Encoding: 204 204 140
Width: 436
GlyphClass: 1
Flags: W
LayerCount: 2
Fore
SplineSet
256 0 m 1
 0 0 l 1
 0 1536 l 1
 256 1536 l 1
 256 0 l 1
320 1600 m 1
 64 1600 l 1
 -192 2112 l 1
 64 2112 l 1
 320 1600 l 1
EndSplineSet
Validated: 1
EndChar

StartChar: Iacute
Encoding: 205 205 141
Width: 436
GlyphClass: 1
Flags: W
LayerCount: 2
Fore
SplineSet
256 0 m 1
 0 0 l 1
 0 1536 l 1
 256 1536 l 1
 256 0 l 1
192 1600 m 1
 -64 1600 l 1
 192 2112 l 1
 448 2112 l 1
 192 1600 l 1
EndSplineSet
Validated: 1
EndChar

StartChar: Icircumflex
Encoding: 206 206 142
Width: 436
GlyphClass: 1
Flags: W
LayerCount: 2
Fore
SplineSet
256 0 m 1
 0 0 l 1
 0 1536 l 1
 256 1536 l 1
 256 0 l 1
128 1856 m 1
 -128 1600 l 1
 -128 1856 l 1
 128 2112 l 1
 384 1856 l 1
 384 1600 l 1
 128 1856 l 1
EndSplineSet
Validated: 1
EndChar

StartChar: Idieresis
Encoding: 207 207 143
Width: 436
GlyphClass: 1
Flags: W
LayerCount: 2
Fore
SplineSet
256 0 m 1
 0 0 l 1
 0 1536 l 1
 256 1536 l 1
 256 0 l 1
0 1664 m 1
 -256 1664 l 1
 -256 1920 l 1
 0 1920 l 1
 0 1664 l 1
512 1664 m 1
 256 1664 l 1
 256 1920 l 1
 512 1920 l 1
 512 1664 l 1
EndSplineSet
Validated: 1
EndChar

StartChar: Eth
Encoding: 208 208 144
Width: 1620
GlyphClass: 1
Flags: W
LayerCount: 2
Fore
SplineSet
448 256 m 1
 960 256 l 2
 1030 256 1090 281 1140 331 c 1
 1140 331 l 1
 1191 381 1216 441 1216 512 c 1
 1216 512 l 1
 1216 1024 l 2
 1216 1094 1191 1154 1140 1204 c 1
 1140 1204 l 1
 1090 1255 1030 1280 960 1280 c 1
 960 1280 l 1
 448 1280 l 1
 448 896 l 1
 704 896 l 1
 704 640 l 1
 448 640 l 1
 448 256 l 1
960 0 m 1
 192 0 l 1
 192 640 l 1
 0 640 l 1
 0 896 l 1
 192 896 l 1
 192 1536 l 1
 960 1536 l 2
 1101 1536 1221 1486 1321 1385 c 1
 1321 1385 l 1
 1422 1285 1472 1165 1472 1024 c 1
 1472 1024 l 1
 1472 512 l 2
 1472 371 1422 250 1321 150 c 1
 1321 150 l 1
 1221 50 1101 0 960 0 c 1
 960 0 l 1
EndSplineSet
Validated: 5
EndChar

StartChar: Ntilde
Encoding: 209 209 145
Width: 1190
GlyphClass: 1
Flags: W
LayerCount: 2
Fore
SplineSet
896 1600 m 1
 896 1600 l 1
 384 1856 l 1
 349 1856 315 1849 284 1836 c 1
 284 1836 l 1
 253 1823 226 1804 202 1781 c 1
 202 1781 l 1
 23 1961 l 1
 70 2008 123 2045 184 2071 c 1
 184 2071 l 1
 248 2098 315 2112 384 2112 c 1
 384 2112 l 1
 896 1856 l 1
 931 1856 964 1862 995 1875 c 1
 995 1875 l 1
 1026 1888 1053 1907 1077 1930 c 1
 1077 1930 l 1
 1257 1750 l 1
 1210 1703 1156 1666 1095 1640 c 1
 1095 1640 l 1
 1031 1613 965 1600 896 1600 c 1
256 0 m 1
 0 0 l 1
 0 1536 l 1
 256 1536 l 1
 1024 384 l 1
 1024 1536 l 1
 1280 1536 l 1
 1280 0 l 1
 1024 0 l 1
 256 1152 l 1
 256 0 l 1
EndSplineSet
Validated: 5
EndChar

StartChar: Ograve
Encoding: 210 210 146
Width: 1420
GlyphClass: 1
Flags: W
LayerCount: 2
Fore
SplineSet
512 256 m 1
 768 256 l 2
 838 256 898 281 948 331 c 1
 948 331 l 1
 999 381 1024 441 1024 512 c 1
 1024 512 l 1
 1024 1024 l 2
 1024 1094 999 1154 948 1204 c 1
 948 1204 l 1
 898 1255 838 1280 768 1280 c 1
 768 1280 l 1
 512 1280 l 2
 441 1280 381 1255 331 1204 c 1
 331 1204 l 1
 281 1154 256 1094 256 1024 c 1
 256 1024 l 1
 256 512 l 2
 256 441 281 381 331 331 c 1
 331 331 l 1
 381 281 441 256 512 256 c 1
 512 256 l 1
768 0 m 1
 512 0 l 2
 371 0 250 50 150 150 c 1
 150 150 l 1
 50 250 0 371 0 512 c 1
 0 512 l 1
 0 1024 l 2
 0 1165 50 1285 150 1385 c 1
 150 1385 l 1
 250 1486 371 1536 512 1536 c 1
 512 1536 l 1
 768 1536 l 2
 909 1536 1029 1486 1129 1385 c 1
 1129 1385 l 1
 1230 1285 1280 1165 1280 1024 c 1
 1280 1024 l 1
 1280 512 l 2
 1280 371 1230 250 1129 150 c 1
 1129 150 l 1
 1029 50 909 0 768 0 c 1
 768 0 l 1
832 1600 m 1
 576 1600 l 1
 320 2112 l 1
 576 2112 l 1
 832 1600 l 1
EndSplineSet
Validated: 5
EndChar

StartChar: Oacute
Encoding: 211 211 147
Width: 1420
GlyphClass: 1
Flags: W
LayerCount: 2
Fore
SplineSet
512 256 m 1
 768 256 l 2
 838 256 898 281 948 331 c 1
 948 331 l 1
 999 381 1024 441 1024 512 c 1
 1024 512 l 1
 1024 1024 l 2
 1024 1094 999 1154 948 1204 c 1
 948 1204 l 1
 898 1255 838 1280 768 1280 c 1
 768 1280 l 1
 512 1280 l 2
 441 1280 381 1255 331 1204 c 1
 331 1204 l 1
 281 1154 256 1094 256 1024 c 1
 256 1024 l 1
 256 512 l 2
 256 441 281 381 331 331 c 1
 331 331 l 1
 381 281 441 256 512 256 c 1
 512 256 l 1
768 0 m 1
 512 0 l 2
 371 0 250 50 150 150 c 1
 150 150 l 1
 50 250 0 371 0 512 c 1
 0 512 l 1
 0 1024 l 2
 0 1165 50 1285 150 1385 c 1
 150 1385 l 1
 250 1486 371 1536 512 1536 c 1
 512 1536 l 1
 768 1536 l 2
 909 1536 1029 1486 1129 1385 c 1
 1129 1385 l 1
 1230 1285 1280 1165 1280 1024 c 1
 1280 1024 l 1
 1280 512 l 2
 1280 371 1230 250 1129 150 c 1
 1129 150 l 1
 1029 50 909 0 768 0 c 1
 768 0 l 1
704 1600 m 1
 448 1600 l 1
 704 2112 l 1
 960 2112 l 1
 704 1600 l 1
EndSplineSet
Validated: 5
EndChar

StartChar: Ocircumflex
Encoding: 212 212 148
Width: 1420
GlyphClass: 1
Flags: W
LayerCount: 2
Fore
SplineSet
512 256 m 1
 768 256 l 2
 838 256 898 281 948 331 c 1
 948 331 l 1
 999 381 1024 441 1024 512 c 1
 1024 512 l 1
 1024 1024 l 2
 1024 1094 999 1154 948 1204 c 1
 948 1204 l 1
 898 1255 838 1280 768 1280 c 1
 768 1280 l 1
 512 1280 l 2
 441 1280 381 1255 331 1204 c 1
 331 1204 l 1
 281 1154 256 1094 256 1024 c 1
 256 1024 l 1
 256 512 l 2
 256 441 281 381 331 331 c 1
 331 331 l 1
 381 281 441 256 512 256 c 1
 512 256 l 1
768 0 m 1
 512 0 l 2
 371 0 250 50 150 150 c 1
 150 150 l 1
 50 250 0 371 0 512 c 1
 0 512 l 1
 0 1024 l 2
 0 1165 50 1285 150 1385 c 1
 150 1385 l 1
 250 1486 371 1536 512 1536 c 1
 512 1536 l 1
 768 1536 l 2
 909 1536 1029 1486 1129 1385 c 1
 1129 1385 l 1
 1230 1285 1280 1165 1280 1024 c 1
 1280 1024 l 1
 1280 512 l 2
 1280 371 1230 250 1129 150 c 1
 1129 150 l 1
 1029 50 909 0 768 0 c 1
 768 0 l 1
640 1856 m 1
 384 1600 l 1
 384 1856 l 1
 640 2112 l 1
 896 1856 l 1
 896 1600 l 1
 640 1856 l 1
EndSplineSet
Validated: 5
EndChar

StartChar: Otilde
Encoding: 213 213 149
Width: 1420
GlyphClass: 1
Flags: W
LayerCount: 2
Fore
SplineSet
512 256 m 1
 768 256 l 2
 838 256 898 281 948 331 c 1
 948 331 l 1
 999 381 1024 441 1024 512 c 1
 1024 512 l 1
 1024 1024 l 2
 1024 1094 999 1154 948 1204 c 1
 948 1204 l 1
 898 1255 838 1280 768 1280 c 1
 768 1280 l 1
 512 1280 l 2
 441 1280 381 1255 331 1204 c 1
 331 1204 l 1
 281 1154 256 1094 256 1024 c 1
 256 1024 l 1
 256 512 l 2
 256 441 281 381 331 331 c 1
 331 331 l 1
 381 281 441 256 512 256 c 1
 512 256 l 1
768 0 m 1
 512 0 l 2
 371 0 250 50 150 150 c 1
 150 150 l 1
 50 250 0 371 0 512 c 1
 0 512 l 1
 0 1024 l 2
 0 1165 50 1285 150 1385 c 1
 150 1385 l 1
 250 1486 371 1536 512 1536 c 1
 512 1536 l 1
 768 1536 l 2
 909 1536 1029 1486 1129 1385 c 1
 1129 1385 l 1
 1230 1285 1280 1165 1280 1024 c 1
 1280 1024 l 1
 1280 512 l 2
 1280 371 1230 250 1129 150 c 1
 1129 150 l 1
 1029 50 909 0 768 0 c 1
 768 0 l 1
896 1600 m 1
 896 1600 l 1
 384 1856 l 1
 349 1856 315 1849 284 1836 c 1
 284 1836 l 1
 253 1823 226 1804 202 1781 c 1
 202 1781 l 1
 22 1961 l 1
 69 2008 123 2045 184 2071 c 1
 184 2071 l 1
 248 2098 315 2112 384 2112 c 1
 384 2112 l 1
 896 1856 l 1
 931 1856 964 1862 995 1875 c 1
 995 1875 l 1
 1026 1888 1053 1907 1077 1930 c 1
 1077 1930 l 1
 1257 1750 l 1
 1210 1703 1156 1666 1095 1640 c 1
 1095 1640 l 1
 1031 1613 965 1600 896 1600 c 1
EndSplineSet
Validated: 5
EndChar

StartChar: Odieresis
Encoding: 214 214 150
Width: 1420
GlyphClass: 1
Flags: W
LayerCount: 2
Fore
SplineSet
512 256 m 1
 768 256 l 2
 838 256 898 281 948 331 c 1
 948 331 l 1
 999 381 1024 441 1024 512 c 1
 1024 512 l 1
 1024 1024 l 2
 1024 1094 999 1154 948 1204 c 1
 948 1204 l 1
 898 1255 838 1280 768 1280 c 1
 768 1280 l 1
 512 1280 l 2
 441 1280 381 1255 331 1204 c 1
 331 1204 l 1
 281 1154 256 1094 256 1024 c 1
 256 1024 l 1
 256 512 l 2
 256 441 281 381 331 331 c 1
 331 331 l 1
 381 281 441 256 512 256 c 1
 512 256 l 1
768 0 m 1
 512 0 l 2
 371 0 250 50 150 150 c 1
 150 150 l 1
 50 250 0 371 0 512 c 1
 0 512 l 1
 0 1024 l 2
 0 1165 50 1285 150 1385 c 1
 150 1385 l 1
 250 1486 371 1536 512 1536 c 1
 512 1536 l 1
 768 1536 l 2
 909 1536 1029 1486 1129 1385 c 1
 1129 1385 l 1
 1230 1285 1280 1165 1280 1024 c 1
 1280 1024 l 1
 1280 512 l 2
 1280 371 1230 250 1129 150 c 1
 1129 150 l 1
 1029 50 909 0 768 0 c 1
 768 0 l 1
512 1664 m 1
 256 1664 l 1
 256 1920 l 1
 512 1920 l 1
 512 1664 l 1
1024 1664 m 1
 768 1664 l 1
 768 1920 l 1
 1024 1920 l 1
 1024 1664 l 1
EndSplineSet
Validated: 5
EndChar

StartChar: multiply
Encoding: 215 215 151
Width: 1150
GlyphClass: 1
Flags: W
LayerCount: 2
Fore
SplineSet
181 0 m 1
 0 0 l 1
 0 181 l 1
 331 512 l 1
 0 843 l 1
 0 1024 l 1
 181 1024 l 1
 512 693 l 1
 843 1024 l 1
 1024 1024 l 1
 1024 843 l 1
 693 512 l 1
 1024 181 l 1
 1024 0 l 1
 843 0 l 1
 512 313 l 1
 181 0 l 1
EndSplineSet
Validated: 1
EndChar

StartChar: Oslash
Encoding: 216 216 152
Width: 1420
GlyphClass: 1
Flags: W
LayerCount: 2
Fore
SplineSet
512 256 m 1
 768 256 l 2
 838 256 898 281 948 331 c 1
 948 331 l 1
 999 381 1024 441 1024 512 c 1
 1024 512 l 1
 1024 1024 l 2
 1024 1094 999 1154 948 1204 c 1
 948 1204 l 1
 898 1255 838 1280 768 1280 c 1
 768 1280 l 1
 512 1280 l 2
 441 1280 381 1255 331 1204 c 1
 331 1204 l 1
 281 1154 256 1094 256 1024 c 1
 256 1024 l 1
 256 512 l 2
 256 441 281 381 331 331 c 1
 331 331 l 1
 381 281 441 256 512 256 c 1
 512 256 l 1
768 0 m 1
 512 0 l 2
 371 0 250 50 150 150 c 1
 150 150 l 1
 50 250 0 371 0 512 c 1
 0 512 l 1
 0 1024 l 2
 0 1165 50 1285 150 1385 c 1
 150 1385 l 1
 250 1486 371 1536 512 1536 c 1
 512 1536 l 1
 768 1536 l 2
 909 1536 1029 1486 1129 1385 c 1
 1129 1385 l 1
 1230 1285 1280 1165 1280 1024 c 1
 1280 1024 l 1
 1280 512 l 2
 1280 371 1230 250 1129 150 c 1
 1129 150 l 1
 1029 50 909 0 768 0 c 1
 768 0 l 1
406 0 m 1
 150 0 l 1
 918 1536 l 1
 1174 1536 l 1
 406 0 l 1
EndSplineSet
Validated: 5
EndChar

StartChar: Ugrave
Encoding: 217 217 153
Width: 1420
GlyphClass: 1
Flags: W
LayerCount: 2
Fore
SplineSet
768 0 m 1
 512 0 l 2
 371 0 250 50 150 150 c 1
 150 150 l 1
 50 250 0 371 0 512 c 1
 0 512 l 1
 0 1536 l 1
 256 1536 l 1
 256 512 l 2
 256 441 281 381 331 331 c 1
 331 331 l 1
 381 281 441 256 512 256 c 1
 512 256 l 1
 768 256 l 2
 838 256 898 281 948 331 c 1
 948 331 l 1
 999 381 1024 441 1024 512 c 1
 1024 512 l 1
 1024 1536 l 1
 1280 1536 l 1
 1280 512 l 2
 1280 371 1230 250 1129 150 c 1
 1129 150 l 1
 1029 50 909 0 768 0 c 1
 768 0 l 1
832 1600 m 1
 576 1600 l 1
 320 2112 l 1
 576 2112 l 1
 832 1600 l 1
EndSplineSet
Validated: 5
EndChar

StartChar: Uacute
Encoding: 218 218 154
Width: 1420
GlyphClass: 1
Flags: W
LayerCount: 2
Fore
SplineSet
768 0 m 1
 512 0 l 2
 371 0 250 50 150 150 c 1
 150 150 l 1
 50 250 0 371 0 512 c 1
 0 512 l 1
 0 1536 l 1
 256 1536 l 1
 256 512 l 2
 256 441 281 381 331 331 c 1
 331 331 l 1
 381 281 441 256 512 256 c 1
 512 256 l 1
 768 256 l 2
 838 256 898 281 948 331 c 1
 948 331 l 1
 999 381 1024 441 1024 512 c 1
 1024 512 l 1
 1024 1536 l 1
 1280 1536 l 1
 1280 512 l 2
 1280 371 1230 250 1129 150 c 1
 1129 150 l 1
 1029 50 909 0 768 0 c 1
 768 0 l 1
704 1600 m 1
 448 1600 l 1
 704 2112 l 1
 960 2112 l 1
 704 1600 l 1
EndSplineSet
Validated: 5
EndChar

StartChar: Ucircumflex
Encoding: 219 219 155
Width: 1420
GlyphClass: 1
Flags: W
LayerCount: 2
Fore
SplineSet
768 0 m 1
 512 0 l 2
 371 0 250 50 150 150 c 1
 150 150 l 1
 50 250 0 371 0 512 c 1
 0 512 l 1
 0 1536 l 1
 256 1536 l 1
 256 512 l 2
 256 441 281 381 331 331 c 1
 331 331 l 1
 381 281 441 256 512 256 c 1
 512 256 l 1
 768 256 l 2
 838 256 898 281 948 331 c 1
 948 331 l 1
 999 381 1024 441 1024 512 c 1
 1024 512 l 1
 1024 1536 l 1
 1280 1536 l 1
 1280 512 l 2
 1280 371 1230 250 1129 150 c 1
 1129 150 l 1
 1029 50 909 0 768 0 c 1
 768 0 l 1
640 1856 m 1
 384 1600 l 1
 384 1856 l 1
 640 2112 l 1
 896 1856 l 1
 896 1600 l 1
 640 1856 l 1
EndSplineSet
Validated: 5
EndChar

StartChar: Udieresis
Encoding: 220 220 156
Width: 1420
GlyphClass: 1
Flags: W
LayerCount: 2
Fore
SplineSet
768 0 m 1
 512 0 l 2
 371 0 250 50 150 150 c 1
 150 150 l 1
 50 250 0 371 0 512 c 1
 0 512 l 1
 0 1536 l 1
 256 1536 l 1
 256 512 l 2
 256 441 281 381 331 331 c 1
 331 331 l 1
 381 281 441 256 512 256 c 1
 512 256 l 1
 768 256 l 2
 838 256 898 281 948 331 c 1
 948 331 l 1
 999 381 1024 441 1024 512 c 1
 1024 512 l 1
 1024 1536 l 1
 1280 1536 l 1
 1280 512 l 2
 1280 371 1230 250 1129 150 c 1
 1129 150 l 1
 1029 50 909 0 768 0 c 1
 768 0 l 1
512 1664 m 1
 256 1664 l 1
 256 1920 l 1
 512 1920 l 1
 512 1664 l 1
1024 1664 m 1
 768 1664 l 1
 768 1920 l 1
 1024 1920 l 1
 1024 1664 l 1
EndSplineSet
Validated: 5
EndChar

StartChar: Yacute
Encoding: 221 221 157
Width: 1140
GlyphClass: 1
Flags: W
LayerCount: 2
Fore
SplineSet
618 0 m 1
 362 0 l 1
 362 512 l 1
 -150 1536 l 1
 106 1536 l 1
 490 768 l 1
 874 1536 l 1
 1130 1536 l 1
 618 512 l 1
 618 0 l 1
554 1600 m 1
 298 1600 l 1
 554 2112 l 1
 810 2112 l 1
 554 1600 l 1
EndSplineSet
Validated: 1
EndChar

StartChar: Thorn
Encoding: 222 222 158
Width: 934
GlyphClass: 1
Flags: W
LayerCount: 2
Fore
SplineSet
256 1024 m 1
 256 512 l 1
 326 512 386 537 436 587 c 1
 436 587 l 1
 487 637 512 697 512 768 c 1
 512 768 l 1
 512 838 487 898 436 948 c 1
 436 948 l 1
 386 999 326 1024 256 1024 c 1
 256 1024 l 1
256 0 m 1
 0 0 l 1
 0 1536 l 1
 256 1536 l 1
 256 1280 l 1
 397 1280 517 1230 617 1129 c 1
 617 1129 l 1
 718 1029 768 909 768 768 c 1
 768 768 l 1
 768 627 718 506 617 406 c 1
 617 406 l 1
 517 306 397 256 256 256 c 1
 256 256 l 1
 256 0 l 1
EndSplineSet
Validated: 5
EndChar

StartChar: germandbls
Encoding: 223 223 159
Width: 1190
GlyphClass: 1
Flags: W
LayerCount: 2
Fore
SplineSet
256 0 m 1
 0 0 l 1
 0 1024 l 2
 0 1165 50 1285 150 1385 c 1
 150 1385 l 1
 250 1486 371 1536 512 1536 c 1
 512 1536 l 1
 653 1536 773 1486 873 1385 c 1
 873 1385 l 1
 974 1285 1024 1165 1024 1024 c 1
 1024 1024 l 1
 1024 768 l 1
 956 768 l 1
 1001 691 1024 606 1024 512 c 1
 1024 512 l 1
 1024 371 974 250 873 150 c 1
 873 150 l 1
 773 50 653 0 512 0 c 1
 512 0 l 1
 512 256 l 1
 582 256 642 281 692 331 c 1
 692 331 l 1
 743 381 768 441 768 512 c 1
 768 512 l 1
 768 582 743 642 692 692 c 1
 692 692 l 1
 642 743 582 768 512 768 c 1
 512 768 l 1
 512 1024 l 1
 768 1024 l 1
 768 1094 743 1154 692 1204 c 1
 692 1204 l 1
 642 1255 582 1280 512 1280 c 1
 512 1280 l 1
 441 1280 381 1255 331 1204 c 1
 331 1204 l 1
 281 1154 256 1094 256 1024 c 1
 256 1024 l 1
 256 0 l 1
EndSplineSet
Validated: 5
EndChar

StartChar: agrave
Encoding: 224 224 160
Width: 1254
GlyphClass: 1
Flags: W
LayerCount: 2
Fore
SplineSet
512 256 m 1
 512 256 l 1
 582 256 642 281 692 331 c 1
 692 331 l 1
 743 381 768 441 768 512 c 1
 768 512 l 1
 768 582 743 642 692 692 c 1
 692 692 l 1
 642 743 582 768 512 768 c 1
 512 768 l 1
 441 768 381 743 331 692 c 1
 331 692 l 1
 281 642 256 582 256 512 c 1
 256 512 l 1
 256 441 281 381 331 331 c 1
 331 331 l 1
 381 281 441 256 512 256 c 1
512 0 m 1
 512 0 l 1
 371 0 250 50 150 150 c 1
 150 150 l 1
 50 250 0 371 0 512 c 1
 0 512 l 1
 0 653 50 773 150 873 c 1
 150 873 l 1
 250 974 371 1024 512 1024 c 1
 512 1024 l 1
 653 1024 773 974 873 873 c 1
 873 873 l 1
 974 773 1024 653 1024 512 c 1
 1024 512 l 1
 1024 0 l 1
 768 0 l 1
 768 67 l 1
 691 22 606 0 512 0 c 1
704 1088 m 1
 448 1088 l 1
 192 1600 l 1
 448 1600 l 1
 704 1088 l 1
EndSplineSet
Validated: 5
EndChar

StartChar: aacute
Encoding: 225 225 161
Width: 1254
GlyphClass: 1
Flags: W
LayerCount: 2
Fore
SplineSet
512 256 m 1
 512 256 l 1
 582 256 642 281 692 331 c 1
 692 331 l 1
 743 381 768 441 768 512 c 1
 768 512 l 1
 768 582 743 642 692 692 c 1
 692 692 l 1
 642 743 582 768 512 768 c 1
 512 768 l 1
 441 768 381 743 331 692 c 1
 331 692 l 1
 281 642 256 582 256 512 c 1
 256 512 l 1
 256 441 281 381 331 331 c 1
 331 331 l 1
 381 281 441 256 512 256 c 1
512 0 m 1
 512 0 l 1
 371 0 250 50 150 150 c 1
 150 150 l 1
 50 250 0 371 0 512 c 1
 0 512 l 1
 0 653 50 773 150 873 c 1
 150 873 l 1
 250 974 371 1024 512 1024 c 1
 512 1024 l 1
 653 1024 773 974 873 873 c 1
 873 873 l 1
 974 773 1024 653 1024 512 c 1
 1024 512 l 1
 1024 0 l 1
 768 0 l 1
 768 67 l 1
 691 22 606 0 512 0 c 1
576 1088 m 1
 320 1088 l 1
 576 1600 l 1
 832 1600 l 1
 576 1088 l 1
EndSplineSet
Validated: 5
EndChar

StartChar: acircumflex
Encoding: 226 226 162
Width: 1254
GlyphClass: 1
Flags: W
LayerCount: 2
Fore
SplineSet
512 256 m 1
 512 256 l 1
 582 256 642 281 692 331 c 1
 692 331 l 1
 743 381 768 441 768 512 c 1
 768 512 l 1
 768 582 743 642 692 692 c 1
 692 692 l 1
 642 743 582 768 512 768 c 1
 512 768 l 1
 441 768 381 743 331 692 c 1
 331 692 l 1
 281 642 256 582 256 512 c 1
 256 512 l 1
 256 441 281 381 331 331 c 1
 331 331 l 1
 381 281 441 256 512 256 c 1
512 0 m 1
 512 0 l 1
 371 0 250 50 150 150 c 1
 150 150 l 1
 50 250 0 371 0 512 c 1
 0 512 l 1
 0 653 50 773 150 873 c 1
 150 873 l 1
 250 974 371 1024 512 1024 c 1
 512 1024 l 1
 653 1024 773 974 873 873 c 1
 873 873 l 1
 974 773 1024 653 1024 512 c 1
 1024 512 l 1
 1024 0 l 1
 768 0 l 1
 768 67 l 1
 691 22 606 0 512 0 c 1
512 1344 m 1
 256 1088 l 1
 256 1344 l 1
 512 1600 l 1
 768 1344 l 1
 768 1088 l 1
 512 1344 l 1
EndSplineSet
Validated: 5
EndChar

StartChar: atilde
Encoding: 227 227 163
Width: 1254
GlyphClass: 1
Flags: W
LayerCount: 2
Fore
SplineSet
512 256 m 1
 512 256 l 1
 582 256 642 281 692 331 c 1
 692 331 l 1
 743 381 768 441 768 512 c 1
 768 512 l 1
 768 582 743 642 692 692 c 1
 692 692 l 1
 642 743 582 768 512 768 c 1
 512 768 l 1
 441 768 381 743 331 692 c 1
 331 692 l 1
 281 642 256 582 256 512 c 1
 256 512 l 1
 256 441 281 381 331 331 c 1
 331 331 l 1
 381 281 441 256 512 256 c 1
512 0 m 1
 512 0 l 1
 371 0 250 50 150 150 c 1
 150 150 l 1
 50 250 0 371 0 512 c 1
 0 512 l 1
 0 653 50 773 150 873 c 1
 150 873 l 1
 250 974 371 1024 512 1024 c 1
 512 1024 l 1
 653 1024 773 974 873 873 c 1
 873 873 l 1
 974 773 1024 653 1024 512 c 1
 1024 512 l 1
 1024 0 l 1
 768 0 l 1
 768 67 l 1
 691 22 606 0 512 0 c 1
768 1088 m 1
 768 1088 l 1
 256 1344 l 1
 221 1344 187 1337 156 1324 c 1
 156 1324 l 1
 125 1311 98 1292 74 1269 c 1
 74 1269 l 1
 -105 1449 l 1
 -58 1496 -5 1533 56 1559 c 1
 56 1559 l 1
 120 1586 187 1600 256 1600 c 1
 256 1600 l 1
 768 1344 l 1
 803 1344 836 1350 867 1363 c 1
 867 1363 l 1
 898 1376 925 1395 949 1418 c 1
 949 1418 l 1
 1129 1238 l 1
 1082 1191 1028 1154 967 1128 c 1
 967 1128 l 1
 903 1101 837 1088 768 1088 c 1
EndSplineSet
Validated: 5
EndChar

StartChar: adieresis
Encoding: 228 228 164
Width: 1254
GlyphClass: 1
Flags: W
LayerCount: 2
Fore
SplineSet
512 256 m 1
 512 256 l 1
 582 256 642 281 692 331 c 1
 692 331 l 1
 743 381 768 441 768 512 c 1
 768 512 l 1
 768 582 743 642 692 692 c 1
 692 692 l 1
 642 743 582 768 512 768 c 1
 512 768 l 1
 441 768 381 743 331 692 c 1
 331 692 l 1
 281 642 256 582 256 512 c 1
 256 512 l 1
 256 441 281 381 331 331 c 1
 331 331 l 1
 381 281 441 256 512 256 c 1
512 0 m 1
 512 0 l 1
 371 0 250 50 150 150 c 1
 150 150 l 1
 50 250 0 371 0 512 c 1
 0 512 l 1
 0 653 50 773 150 873 c 1
 150 873 l 1
 250 974 371 1024 512 1024 c 1
 512 1024 l 1
 653 1024 773 974 873 873 c 1
 873 873 l 1
 974 773 1024 653 1024 512 c 1
 1024 512 l 1
 1024 0 l 1
 768 0 l 1
 768 67 l 1
 691 22 606 0 512 0 c 1
384 1152 m 1
 128 1152 l 1
 128 1408 l 1
 384 1408 l 1
 384 1152 l 1
896 1152 m 1
 640 1152 l 1
 640 1408 l 1
 896 1408 l 1
 896 1152 l 1
EndSplineSet
Validated: 5
EndChar

StartChar: aring
Encoding: 229 229 165
Width: 1254
GlyphClass: 1
Flags: W
LayerCount: 2
Fore
SplineSet
512 256 m 1
 512 256 l 1
 582 256 642 281 692 331 c 1
 692 331 l 1
 743 381 768 441 768 512 c 1
 768 512 l 1
 768 582 743 642 692 692 c 1
 692 692 l 1
 642 743 582 768 512 768 c 1
 512 768 l 1
 441 768 381 743 331 692 c 1
 331 692 l 1
 281 642 256 582 256 512 c 1
 256 512 l 1
 256 441 281 381 331 331 c 1
 331 331 l 1
 381 281 441 256 512 256 c 1
512 0 m 1
 512 0 l 1
 371 0 250 50 150 150 c 1
 150 150 l 1
 50 250 0 371 0 512 c 1
 0 512 l 1
 0 653 50 773 150 873 c 1
 150 873 l 1
 250 974 371 1024 512 1024 c 1
 512 1024 l 1
 653 1024 773 974 873 873 c 1
 873 873 l 1
 974 773 1024 653 1024 512 c 1
 1024 512 l 1
 1024 0 l 1
 768 0 l 1
 768 67 l 1
 691 22 606 0 512 0 c 1
512 1241 m 1
 512 1241 l 1
 540 1241 564 1251 584 1271 c 1
 584 1271 l 1
 604 1291 614 1315 614 1344 c 1
 614 1344 l 1
 614 1372 604 1396 584 1416 c 1
 584 1416 l 1
 564 1436 540 1446 512 1446 c 1
 512 1446 l 1
 483 1446 459 1436 439 1416 c 1
 439 1416 l 1
 419 1396 409 1372 409 1344 c 1
 409 1344 l 1
 409 1315 419 1291 439 1271 c 1
 439 1271 l 1
 459 1251 483 1241 512 1241 c 1
512 1088 m 1
 512 1088 l 1
 441 1088 381 1113 330 1162 c 1
 330 1162 l 1
 281 1213 256 1273 256 1344 c 1
 256 1344 l 1
 256 1414 281 1474 330 1525 c 1
 330 1525 l 1
 381 1575 441 1600 512 1600 c 1
 512 1600 l 1
 582 1600 642 1575 693 1525 c 1
 693 1525 l 1
 743 1474 768 1414 768 1344 c 1
 768 1344 l 1
 768 1273 743 1213 693 1162 c 1
 693 1162 l 1
 642 1113 582 1088 512 1088 c 1
EndSplineSet
Validated: 5
EndChar

StartChar: ae
Encoding: 230 230 166
Width: 1894
GlyphClass: 1
Flags: W
LayerCount: 2
Fore
SplineSet
512 256 m 1
 512 256 l 1
 582 256 642 281 692 331 c 1
 692 331 l 1
 743 381 768 441 768 512 c 1
 768 512 l 1
 768 582 743 642 692 692 c 1
 692 692 l 1
 642 743 582 768 512 768 c 1
 512 768 l 1
 441 768 381 743 331 692 c 1
 331 692 l 1
 281 642 256 582 256 512 c 1
 256 512 l 1
 256 441 281 381 331 331 c 1
 331 331 l 1
 381 281 441 256 512 256 c 1
512 0 m 1
 512 0 l 1
 371 0 250 50 150 150 c 1
 150 150 l 1
 50 250 0 371 0 512 c 1
 0 512 l 1
 0 653 50 773 150 873 c 1
 150 873 l 1
 250 974 371 1024 512 1024 c 1
 512 1024 l 1
 653 1024 773 974 873 873 c 1
 873 873 l 1
 881 866 889 858 896 850 c 1
 896 850 l 1
 903 858 910 866 918 873 c 1
 918 873 l 1
 1018 974 1139 1024 1280 1024 c 1
 1280 1024 l 1
 1421 1024 1541 974 1641 873 c 1
 1641 873 l 1
 1742 773 1792 653 1792 512 c 1
 1792 512 l 1
 1536 512 l 1
 1536 582 1511 642 1460 692 c 1
 1460 692 l 1
 1410 743 1350 768 1280 768 c 1
 1280 768 l 1
 1209 768 1149 743 1099 692 c 1
 1099 692 l 1
 1049 642 1024 582 1024 512 c 1
 1024 512 l 1
 1024 441 1049 381 1099 331 c 1
 1099 331 l 1
 1149 281 1209 256 1280 256 c 1
 1280 256 l 1
 1315 256 1348 262 1379 275 c 1
 1379 275 l 1
 1410 288 1437 307 1461 330 c 1
 1461 330 l 1
 1641 150 l 1
 1594 103 1540 66 1479 40 c 1
 1479 40 l 1
 1415 13 1349 0 1280 0 c 1
 1280 0 l 1
 1185 0 1100 22 1024 67 c 1
 1024 67 l 1
 1024 0 l 1
 768 0 l 1
 768 67 l 1
 691 22 606 0 512 0 c 1
EndSplineSet
Validated: 5
EndChar

StartChar: ccedilla
Encoding: 231 231 167
Width: 998
GlyphClass: 1
Flags: W
LayerCount: 2
Fore
SplineSet
128 -448 m 1
 128 -448 l 1
 128 -192 l 1
 198 -192 258 -167 308 -116 c 1
 308 -116 l 1
 347 -78 370 -34 379 16 c 1
 379 16 l 1
 293 38 217 83 150 150 c 1
 150 150 l 1
 50 250 0 371 0 512 c 1
 0 512 l 1
 0 653 50 773 150 873 c 1
 150 873 l 1
 250 974 371 1024 512 1024 c 1
 512 1024 l 1
 581 1024 647 1010 711 983 c 1
 711 983 l 1
 772 957 826 920 873 873 c 1
 873 873 l 1
 693 693 l 1
 669 716 642 735 611 748 c 1
 611 748 l 1
 580 761 547 768 512 768 c 1
 512 768 l 1
 441 768 381 743 331 692 c 1
 331 692 l 1
 281 642 256 582 256 512 c 1
 256 512 l 1
 256 441 281 381 331 331 c 1
 331 331 l 1
 381 281 441 256 512 256 c 1
 512 256 l 1
 547 256 580 262 611 275 c 1
 611 275 l 1
 642 288 669 307 693 330 c 1
 693 330 l 1
 873 150 l 1
 826 103 772 66 711 40 c 1
 711 40 l 1
 687 30 662 22 637 15 c 1
 637 15 l 1
 627 -105 578 -209 489 -297 c 1
 489 -297 l 1
 389 -398 269 -448 128 -448 c 1
EndSplineSet
Validated: 5
EndChar

StartChar: egrave
Encoding: 232 232 168
Width: 1190
GlyphClass: 1
Flags: W
LayerCount: 2
Fore
SplineSet
512 0 m 1
 512 0 l 1
 371 0 250 50 150 150 c 1
 150 150 l 1
 50 250 0 371 0 512 c 1
 0 512 l 1
 0 653 50 773 150 873 c 1
 150 873 l 1
 250 974 371 1024 512 1024 c 1
 512 1024 l 1
 653 1024 773 974 873 873 c 1
 873 873 l 1
 974 773 1024 653 1024 512 c 1
 1024 512 l 1
 768 512 l 1
 768 582 743 642 692 692 c 1
 692 692 l 1
 642 743 582 768 512 768 c 1
 512 768 l 1
 441 768 381 743 331 692 c 1
 331 692 l 1
 281 642 256 582 256 512 c 1
 256 512 l 1
 256 441 281 381 331 331 c 1
 331 331 l 1
 381 281 441 256 512 256 c 1
 512 256 l 1
 547 256 580 262 611 275 c 1
 611 275 l 1
 642 288 669 307 693 330 c 1
 693 330 l 1
 873 150 l 1
 826 103 772 66 711 40 c 1
 711 40 l 1
 647 13 581 0 512 0 c 1
704 1088 m 1
 448 1088 l 1
 192 1600 l 1
 448 1600 l 1
 704 1088 l 1
EndSplineSet
Validated: 5
EndChar

StartChar: eacute
Encoding: 233 233 169
Width: 1190
GlyphClass: 1
Flags: W
LayerCount: 2
Fore
SplineSet
512 0 m 1
 512 0 l 1
 371 0 250 50 150 150 c 1
 150 150 l 1
 50 250 0 371 0 512 c 1
 0 512 l 1
 0 653 50 773 150 873 c 1
 150 873 l 1
 250 974 371 1024 512 1024 c 1
 512 1024 l 1
 653 1024 773 974 873 873 c 1
 873 873 l 1
 974 773 1024 653 1024 512 c 1
 1024 512 l 1
 768 512 l 1
 768 582 743 642 692 692 c 1
 692 692 l 1
 642 743 582 768 512 768 c 1
 512 768 l 1
 441 768 381 743 331 692 c 1
 331 692 l 1
 281 642 256 582 256 512 c 1
 256 512 l 1
 256 441 281 381 331 331 c 1
 331 331 l 1
 381 281 441 256 512 256 c 1
 512 256 l 1
 547 256 580 262 611 275 c 1
 611 275 l 1
 642 288 669 307 693 330 c 1
 693 330 l 1
 873 150 l 1
 826 103 772 66 711 40 c 1
 711 40 l 1
 647 13 581 0 512 0 c 1
576 1088 m 1
 320 1088 l 1
 576 1600 l 1
 832 1600 l 1
 576 1088 l 1
EndSplineSet
Validated: 5
EndChar

StartChar: ecircumflex
Encoding: 234 234 170
Width: 1190
GlyphClass: 1
Flags: W
LayerCount: 2
Fore
SplineSet
512 0 m 1
 512 0 l 1
 371 0 250 50 150 150 c 1
 150 150 l 1
 50 250 0 371 0 512 c 1
 0 512 l 1
 0 653 50 773 150 873 c 1
 150 873 l 1
 250 974 371 1024 512 1024 c 1
 512 1024 l 1
 653 1024 773 974 873 873 c 1
 873 873 l 1
 974 773 1024 653 1024 512 c 1
 1024 512 l 1
 768 512 l 1
 768 582 743 642 692 692 c 1
 692 692 l 1
 642 743 582 768 512 768 c 1
 512 768 l 1
 441 768 381 743 331 692 c 1
 331 692 l 1
 281 642 256 582 256 512 c 1
 256 512 l 1
 256 441 281 381 331 331 c 1
 331 331 l 1
 381 281 441 256 512 256 c 1
 512 256 l 1
 547 256 580 262 611 275 c 1
 611 275 l 1
 642 288 669 307 693 330 c 1
 693 330 l 1
 873 150 l 1
 826 103 772 66 711 40 c 1
 711 40 l 1
 647 13 581 0 512 0 c 1
512 1344 m 1
 256 1088 l 1
 256 1344 l 1
 512 1600 l 1
 768 1344 l 1
 768 1088 l 1
 512 1344 l 1
EndSplineSet
Validated: 5
EndChar

StartChar: edieresis
Encoding: 235 235 171
Width: 1190
GlyphClass: 1
Flags: W
LayerCount: 2
Fore
SplineSet
512 0 m 1
 512 0 l 1
 371 0 250 50 150 150 c 1
 150 150 l 1
 50 250 0 371 0 512 c 1
 0 512 l 1
 0 653 50 773 150 873 c 1
 150 873 l 1
 250 974 371 1024 512 1024 c 1
 512 1024 l 1
 653 1024 773 974 873 873 c 1
 873 873 l 1
 974 773 1024 653 1024 512 c 1
 1024 512 l 1
 768 512 l 1
 768 582 743 642 692 692 c 1
 692 692 l 1
 642 743 582 768 512 768 c 1
 512 768 l 1
 441 768 381 743 331 692 c 1
 331 692 l 1
 281 642 256 582 256 512 c 1
 256 512 l 1
 256 441 281 381 331 331 c 1
 331 331 l 1
 381 281 441 256 512 256 c 1
 512 256 l 1
 547 256 580 262 611 275 c 1
 611 275 l 1
 642 288 669 307 693 330 c 1
 693 330 l 1
 873 150 l 1
 826 103 772 66 711 40 c 1
 711 40 l 1
 647 13 581 0 512 0 c 1
384 1152 m 1
 128 1152 l 1
 128 1408 l 1
 384 1408 l 1
 384 1152 l 1
896 1152 m 1
 640 1152 l 1
 640 1408 l 1
 896 1408 l 1
 896 1152 l 1
EndSplineSet
Validated: 5
EndChar

StartChar: igrave
Encoding: 236 236 172
Width: 486
GlyphClass: 1
Flags: W
LayerCount: 2
Fore
SplineSet
256 0 m 1
 0 0 l 1
 0 1024 l 1
 256 1024 l 1
 256 0 l 1
320 1280 m 1
 64 1280 l 1
 -192 1792 l 1
 64 1792 l 1
 320 1280 l 1
EndSplineSet
Validated: 1
EndChar

StartChar: iacute
Encoding: 237 237 173
Width: 486
GlyphClass: 1
Flags: W
LayerCount: 2
Fore
SplineSet
256 0 m 1
 0 0 l 1
 0 1024 l 1
 256 1024 l 1
 256 0 l 1
192 1280 m 1
 -64 1280 l 1
 192 1792 l 1
 448 1792 l 1
 192 1280 l 1
EndSplineSet
Validated: 1
EndChar

StartChar: icircumflex
Encoding: 238 238 174
Width: 486
GlyphClass: 1
Flags: W
LayerCount: 2
Fore
SplineSet
256 0 m 1
 0 0 l 1
 0 1024 l 1
 256 1024 l 1
 256 0 l 1
128 1344 m 1
 -128 1088 l 1
 -128 1344 l 1
 128 1600 l 1
 384 1344 l 1
 384 1088 l 1
 128 1344 l 1
EndSplineSet
Validated: 1
EndChar

StartChar: idieresis
Encoding: 239 239 175
Width: 486
GlyphClass: 1
Flags: W
LayerCount: 2
Fore
SplineSet
256 0 m 1
 0 0 l 1
 0 1024 l 1
 256 1024 l 1
 256 0 l 1
0 1280 m 1
 -256 1280 l 1
 -256 1536 l 1
 0 1536 l 1
 0 1280 l 1
512 1280 m 1
 256 1280 l 1
 256 1536 l 1
 512 1536 l 1
 512 1280 l 1
EndSplineSet
Validated: 1
EndChar

StartChar: eth
Encoding: 240 240 176
Width: 1204
GlyphClass: 1
Flags: W
LayerCount: 2
Fore
SplineSet
512 256 m 1
 512 256 l 1
 582 256 642 281 692 331 c 1
 692 331 l 1
 743 381 768 441 768 512 c 1
 768 512 l 1
 768 582 743 642 692 692 c 1
 692 692 l 1
 642 743 582 768 512 768 c 1
 512 768 l 1
 441 768 381 743 331 692 c 1
 331 692 l 1
 281 642 256 582 256 512 c 1
 256 512 l 1
 256 441 281 381 331 331 c 1
 331 331 l 1
 381 281 441 256 512 256 c 1
512 0 m 1
 512 0 l 1
 371 0 250 50 150 150 c 1
 150 150 l 1
 50 250 0 371 0 512 c 1
 0 512 l 1
 0 653 50 773 150 873 c 1
 150 873 l 1
 250 974 371 1024 512 1024 c 1
 512 1024 l 1
 606 1024 691 1001 768 956 c 1
 768 956 l 1
 768 1024 l 1
 741 1076 l 1
 672 1041 595 1024 512 1024 c 1
 512 1024 l 1
 512 1152 l 1
 575 1152 632 1165 684 1191 c 1
 684 1191 l 1
 512 1536 l 1
 768 1536 l 1
 855 1361 l 1
 882 1414 896 1472 896 1536 c 1
 896 1536 l 1
 1024 1536 l 1
 1024 1419 990 1317 921 1228 c 1
 921 1228 l 1
 1024 1024 l 1
 1024 512 l 2
 1024 371 974 250 873 150 c 1
 873 150 l 1
 773 50 653 0 512 0 c 1
EndSplineSet
Validated: 5
EndChar

StartChar: ntilde
Encoding: 241 241 177
Width: 1190
GlyphClass: 1
Flags: W
LayerCount: 2
Fore
SplineSet
256 0 m 1
 0 0 l 1
 0 1024 l 1
 256 1024 l 1
 256 956 l 1
 332 1001 417 1024 512 1024 c 1
 512 1024 l 1
 653 1024 773 974 873 873 c 1
 873 873 l 1
 974 773 1024 653 1024 512 c 1
 1024 512 l 1
 1024 0 l 1
 768 0 l 1
 768 512 l 2
 768 582 743 642 692 692 c 1
 692 692 l 1
 642 743 582 768 512 768 c 1
 512 768 l 1
 441 768 381 743 331 692 c 1
 331 692 l 1
 281 642 256 582 256 512 c 1
 256 512 l 1
 256 0 l 1
768 1088 m 1
 768 1088 l 1
 256 1344 l 1
 221 1344 187 1337 156 1324 c 1
 156 1324 l 1
 125 1311 98 1292 74 1269 c 1
 74 1269 l 1
 -105 1449 l 1
 -58 1496 -5 1533 56 1559 c 1
 56 1559 l 1
 120 1586 187 1600 256 1600 c 1
 256 1600 l 1
 768 1344 l 1
 803 1344 836 1350 867 1363 c 1
 867 1363 l 1
 898 1376 925 1395 949 1418 c 1
 949 1418 l 1
 1129 1238 l 1
 1082 1191 1028 1154 967 1128 c 1
 967 1128 l 1
 903 1101 837 1088 768 1088 c 1
EndSplineSet
Validated: 5
EndChar

StartChar: ograve
Encoding: 242 242 178
Width: 1190
GlyphClass: 1
Flags: W
LayerCount: 2
Fore
SplineSet
512 256 m 1
 512 256 l 1
 582 256 642 281 692 331 c 1
 692 331 l 1
 743 381 768 441 768 512 c 1
 768 512 l 1
 768 582 743 642 692 692 c 1
 692 692 l 1
 642 743 582 768 512 768 c 1
 512 768 l 1
 441 768 381 743 331 692 c 1
 331 692 l 1
 281 642 256 582 256 512 c 1
 256 512 l 1
 256 441 281 381 331 331 c 1
 331 331 l 1
 381 281 441 256 512 256 c 1
512 0 m 1
 512 0 l 1
 371 0 250 50 150 150 c 1
 150 150 l 1
 50 250 0 371 0 512 c 1
 0 512 l 1
 0 653 50 773 150 873 c 1
 150 873 l 1
 250 974 371 1024 512 1024 c 1
 512 1024 l 1
 653 1024 773 974 873 873 c 1
 873 873 l 1
 974 773 1024 653 1024 512 c 1
 1024 512 l 1
 1024 371 974 250 873 150 c 1
 873 150 l 1
 773 50 653 0 512 0 c 1
704 1088 m 1
 448 1088 l 1
 192 1600 l 1
 448 1600 l 1
 704 1088 l 1
EndSplineSet
Validated: 5
EndChar

StartChar: oacute
Encoding: 243 243 179
Width: 1190
GlyphClass: 1
Flags: W
LayerCount: 2
Fore
SplineSet
512 256 m 1
 512 256 l 1
 582 256 642 281 692 331 c 1
 692 331 l 1
 743 381 768 441 768 512 c 1
 768 512 l 1
 768 582 743 642 692 692 c 1
 692 692 l 1
 642 743 582 768 512 768 c 1
 512 768 l 1
 441 768 381 743 331 692 c 1
 331 692 l 1
 281 642 256 582 256 512 c 1
 256 512 l 1
 256 441 281 381 331 331 c 1
 331 331 l 1
 381 281 441 256 512 256 c 1
512 0 m 1
 512 0 l 1
 371 0 250 50 150 150 c 1
 150 150 l 1
 50 250 0 371 0 512 c 1
 0 512 l 1
 0 653 50 773 150 873 c 1
 150 873 l 1
 250 974 371 1024 512 1024 c 1
 512 1024 l 1
 653 1024 773 974 873 873 c 1
 873 873 l 1
 974 773 1024 653 1024 512 c 1
 1024 512 l 1
 1024 371 974 250 873 150 c 1
 873 150 l 1
 773 50 653 0 512 0 c 1
576 1088 m 1
 320 1088 l 1
 576 1600 l 1
 832 1600 l 1
 576 1088 l 1
EndSplineSet
Validated: 5
EndChar

StartChar: ocircumflex
Encoding: 244 244 180
Width: 1190
GlyphClass: 1
Flags: W
LayerCount: 2
Fore
SplineSet
512 256 m 1
 512 256 l 1
 582 256 642 281 692 331 c 1
 692 331 l 1
 743 381 768 441 768 512 c 1
 768 512 l 1
 768 582 743 642 692 692 c 1
 692 692 l 1
 642 743 582 768 512 768 c 1
 512 768 l 1
 441 768 381 743 331 692 c 1
 331 692 l 1
 281 642 256 582 256 512 c 1
 256 512 l 1
 256 441 281 381 331 331 c 1
 331 331 l 1
 381 281 441 256 512 256 c 1
512 0 m 1
 512 0 l 1
 371 0 250 50 150 150 c 1
 150 150 l 1
 50 250 0 371 0 512 c 1
 0 512 l 1
 0 653 50 773 150 873 c 1
 150 873 l 1
 250 974 371 1024 512 1024 c 1
 512 1024 l 1
 653 1024 773 974 873 873 c 1
 873 873 l 1
 974 773 1024 653 1024 512 c 1
 1024 512 l 1
 1024 371 974 250 873 150 c 1
 873 150 l 1
 773 50 653 0 512 0 c 1
512 1344 m 1
 256 1088 l 1
 256 1344 l 1
 512 1600 l 1
 768 1344 l 1
 768 1088 l 1
 512 1344 l 1
EndSplineSet
Validated: 5
EndChar

StartChar: otilde
Encoding: 245 245 181
Width: 1190
GlyphClass: 1
Flags: W
LayerCount: 2
Fore
SplineSet
512 256 m 1
 512 256 l 1
 582 256 642 281 692 331 c 1
 692 331 l 1
 743 381 768 441 768 512 c 1
 768 512 l 1
 768 582 743 642 692 692 c 1
 692 692 l 1
 642 743 582 768 512 768 c 1
 512 768 l 1
 441 768 381 743 331 692 c 1
 331 692 l 1
 281 642 256 582 256 512 c 1
 256 512 l 1
 256 441 281 381 331 331 c 1
 331 331 l 1
 381 281 441 256 512 256 c 1
512 0 m 1
 512 0 l 1
 371 0 250 50 150 150 c 1
 150 150 l 1
 50 250 0 371 0 512 c 1
 0 512 l 1
 0 653 50 773 150 873 c 1
 150 873 l 1
 250 974 371 1024 512 1024 c 1
 512 1024 l 1
 653 1024 773 974 873 873 c 1
 873 873 l 1
 974 773 1024 653 1024 512 c 1
 1024 512 l 1
 1024 371 974 250 873 150 c 1
 873 150 l 1
 773 50 653 0 512 0 c 1
768 1088 m 1
 768 1088 l 1
 256 1344 l 1
 221 1344 187 1337 156 1324 c 1
 156 1324 l 1
 125 1311 98 1292 74 1269 c 1
 74 1269 l 1
 -105 1449 l 1
 -58 1496 -5 1533 56 1559 c 1
 56 1559 l 1
 120 1586 187 1600 256 1600 c 1
 256 1600 l 1
 768 1344 l 1
 803 1344 836 1350 867 1363 c 1
 867 1363 l 1
 898 1376 925 1395 949 1418 c 1
 949 1418 l 1
 1129 1238 l 1
 1082 1191 1028 1154 967 1128 c 1
 967 1128 l 1
 903 1101 837 1088 768 1088 c 1
EndSplineSet
Validated: 5
EndChar

StartChar: odieresis
Encoding: 246 246 182
Width: 1190
GlyphClass: 1
Flags: W
LayerCount: 2
Fore
SplineSet
512 256 m 1
 512 256 l 1
 582 256 642 281 692 331 c 1
 692 331 l 1
 743 381 768 441 768 512 c 1
 768 512 l 1
 768 582 743 642 692 692 c 1
 692 692 l 1
 642 743 582 768 512 768 c 1
 512 768 l 1
 441 768 381 743 331 692 c 1
 331 692 l 1
 281 642 256 582 256 512 c 1
 256 512 l 1
 256 441 281 381 331 331 c 1
 331 331 l 1
 381 281 441 256 512 256 c 1
512 0 m 1
 512 0 l 1
 371 0 250 50 150 150 c 1
 150 150 l 1
 50 250 0 371 0 512 c 1
 0 512 l 1
 0 653 50 773 150 873 c 1
 150 873 l 1
 250 974 371 1024 512 1024 c 1
 512 1024 l 1
 653 1024 773 974 873 873 c 1
 873 873 l 1
 974 773 1024 653 1024 512 c 1
 1024 512 l 1
 1024 371 974 250 873 150 c 1
 873 150 l 1
 773 50 653 0 512 0 c 1
384 1152 m 1
 128 1152 l 1
 128 1408 l 1
 384 1408 l 1
 384 1152 l 1
896 1152 m 1
 640 1152 l 1
 640 1408 l 1
 896 1408 l 1
 896 1152 l 1
EndSplineSet
Validated: 5
EndChar

StartChar: divide
Encoding: 247 247 183
Width: 1190
GlyphClass: 1
Flags: W
LayerCount: 2
Fore
SplineSet
640 0 m 1
 384 0 l 1
 384 256 l 1
 640 256 l 1
 640 0 l 1
1024 384 m 1
 0 384 l 1
 0 640 l 1
 1024 640 l 1
 1024 384 l 1
640 768 m 1
 384 768 l 1
 384 1024 l 1
 640 1024 l 1
 640 768 l 1
EndSplineSet
Validated: 1
EndChar

StartChar: oslash
Encoding: 248 248 184
Width: 1150
GlyphClass: 1
Flags: W
LayerCount: 2
Fore
SplineSet
512 256 m 1
 512 256 l 1
 582 256 642 281 692 331 c 1
 692 331 l 1
 743 381 768 441 768 512 c 1
 768 512 l 1
 768 582 743 642 692 692 c 1
 692 692 l 1
 642 743 582 768 512 768 c 1
 512 768 l 1
 441 768 381 743 331 692 c 1
 331 692 l 1
 281 642 256 582 256 512 c 1
 256 512 l 1
 256 441 281 381 331 331 c 1
 331 331 l 1
 381 281 441 256 512 256 c 1
512 0 m 1
 512 0 l 1
 371 0 250 50 150 150 c 1
 150 150 l 1
 50 250 0 371 0 512 c 1
 0 512 l 1
 0 653 50 773 150 873 c 1
 150 873 l 1
 250 974 371 1024 512 1024 c 1
 512 1024 l 1
 653 1024 773 974 873 873 c 1
 873 873 l 1
 974 773 1024 653 1024 512 c 1
 1024 512 l 1
 1024 371 974 250 873 150 c 1
 873 150 l 1
 773 50 653 0 512 0 c 1
181 0 m 1
 0 0 l 1
 0 181 l 1
 843 1024 l 1
 1024 1024 l 1
 1024 843 l 1
 181 0 l 1
EndSplineSet
Validated: 5
EndChar

StartChar: ugrave
Encoding: 249 249 185
Width: 1150
GlyphClass: 1
Flags: W
LayerCount: 2
Fore
SplineSet
512 0 m 1
 512 0 l 1
 371 0 250 50 150 150 c 1
 150 150 l 1
 50 250 0 371 0 512 c 1
 0 512 l 1
 0 1024 l 1
 256 1024 l 1
 256 512 l 2
 256 441 281 381 331 331 c 1
 331 331 l 1
 381 281 441 256 512 256 c 1
 512 256 l 1
 582 256 642 281 692 331 c 1
 692 331 l 1
 743 381 768 441 768 512 c 1
 768 512 l 1
 768 1024 l 1
 1024 1024 l 1
 1024 0 l 1
 768 0 l 1
 768 67 l 1
 691 22 606 0 512 0 c 1
704 1088 m 1
 448 1088 l 1
 192 1600 l 1
 448 1600 l 1
 704 1088 l 1
EndSplineSet
Validated: 5
EndChar

StartChar: uacute
Encoding: 250 250 186
Width: 1190
GlyphClass: 1
Flags: W
LayerCount: 2
Fore
SplineSet
512 0 m 1
 512 0 l 1
 371 0 250 50 150 150 c 1
 150 150 l 1
 50 250 0 371 0 512 c 1
 0 512 l 1
 0 1024 l 1
 256 1024 l 1
 256 512 l 2
 256 441 281 381 331 331 c 1
 331 331 l 1
 381 281 441 256 512 256 c 1
 512 256 l 1
 582 256 642 281 692 331 c 1
 692 331 l 1
 743 381 768 441 768 512 c 1
 768 512 l 1
 768 1024 l 1
 1024 1024 l 1
 1024 0 l 1
 768 0 l 1
 768 67 l 1
 691 22 606 0 512 0 c 1
576 1088 m 1
 320 1088 l 1
 576 1600 l 1
 832 1600 l 1
 576 1088 l 1
EndSplineSet
Validated: 5
EndChar

StartChar: ucircumflex
Encoding: 251 251 187
Width: 1190
GlyphClass: 1
Flags: W
LayerCount: 2
Fore
SplineSet
512 0 m 1
 512 0 l 1
 371 0 250 50 150 150 c 1
 150 150 l 1
 50 250 0 371 0 512 c 1
 0 512 l 1
 0 1024 l 1
 256 1024 l 1
 256 512 l 2
 256 441 281 381 331 331 c 1
 331 331 l 1
 381 281 441 256 512 256 c 1
 512 256 l 1
 582 256 642 281 692 331 c 1
 692 331 l 1
 743 381 768 441 768 512 c 1
 768 512 l 1
 768 1024 l 1
 1024 1024 l 1
 1024 0 l 1
 768 0 l 1
 768 67 l 1
 691 22 606 0 512 0 c 1
512 1344 m 1
 256 1088 l 1
 256 1344 l 1
 512 1600 l 1
 768 1344 l 1
 768 1088 l 1
 512 1344 l 1
EndSplineSet
Validated: 5
EndChar

StartChar: udieresis
Encoding: 252 252 188
Width: 1190
GlyphClass: 1
Flags: W
LayerCount: 2
Fore
SplineSet
512 0 m 1
 512 0 l 1
 371 0 250 50 150 150 c 1
 150 150 l 1
 50 250 0 371 0 512 c 1
 0 512 l 1
 0 1024 l 1
 256 1024 l 1
 256 512 l 2
 256 441 281 381 331 331 c 1
 331 331 l 1
 381 281 441 256 512 256 c 1
 512 256 l 1
 582 256 642 281 692 331 c 1
 692 331 l 1
 743 381 768 441 768 512 c 1
 768 512 l 1
 768 1024 l 1
 1024 1024 l 1
 1024 0 l 1
 768 0 l 1
 768 67 l 1
 691 22 606 0 512 0 c 1
384 1152 m 1
 128 1152 l 1
 128 1408 l 1
 384 1408 l 1
 384 1152 l 1
896 1152 m 1
 640 1152 l 1
 640 1408 l 1
 896 1408 l 1
 896 1152 l 1
EndSplineSet
Validated: 5
EndChar

StartChar: yacute
Encoding: 253 253 189
Width: 1254
GlyphClass: 1
Flags: W
LayerCount: 2
Fore
SplineSet
512 -512 m 1
 256 -512 l 1
 256 -256 l 1
 512 -256 l 2
 582 -256 642 -231 692 -180 c 1
 692 -180 l 1
 743 -130 768 -70 768 0 c 1
 768 0 l 1
 768 67 l 1
 691 22 606 0 512 0 c 1
 512 0 l 1
 371 0 250 50 150 150 c 1
 150 150 l 1
 50 250 0 371 0 512 c 1
 0 512 l 1
 0 1024 l 1
 256 1024 l 1
 256 512 l 2
 256 441 281 381 331 331 c 1
 331 331 l 1
 381 281 441 256 512 256 c 1
 512 256 l 1
 582 256 642 281 692 331 c 1
 692 331 l 1
 743 381 768 441 768 512 c 1
 768 512 l 1
 768 1024 l 1
 1024 1024 l 1
 1024 0 l 2
 1024 -141 974 -261 873 -361 c 1
 873 -361 l 1
 773 -462 653 -512 512 -512 c 1
 512 -512 l 1
576 1088 m 1
 320 1088 l 1
 576 1600 l 1
 832 1600 l 1
 576 1088 l 1
EndSplineSet
Validated: 5
EndChar

StartChar: thorn
Encoding: 254 254 190
Width: 860
GlyphClass: 1
Flags: W
LayerCount: 2
Fore
SplineSet
256 960 m 1
 256 512 l 1
 326 512 386 537 436 587 c 1
 436 587 l 1
 479 629 503 679 510 736 c 1
 510 736 l 1
 503 793 479 842 436 884 c 1
 436 884 l 1
 386 935 326 960 256 960 c 1
 256 960 l 1
256 0 m 1
 0 0 l 1
 0 1536 l 1
 256 1536 l 1
 256 1216 l 1
 397 1216 517 1166 617 1065 c 1
 617 1065 l 1
 702 981 751 882 764 768 c 1
 764 768 l 1
 764 768 768 746 767 736 c 1
 766 736 l 1
 767 725 764 704 764 704 c 1
 751 589 702 490 617 406 c 1
 617 406 l 1
 517 306 397 256 256 256 c 1
 256 256 l 1
 256 0 l 1
EndSplineSet
Validated: 5
EndChar

StartChar: ydieresis
Encoding: 255 255 191
Width: 1150
GlyphClass: 1
Flags: W
LayerCount: 2
Fore
SplineSet
512 -512 m 1
 256 -512 l 1
 256 -256 l 1
 512 -256 l 2
 582 -256 642 -231 692 -180 c 1
 692 -180 l 1
 743 -130 768 -70 768 0 c 1
 768 0 l 1
 768 67 l 1
 691 22 606 0 512 0 c 1
 512 0 l 1
 371 0 250 50 150 150 c 1
 150 150 l 1
 50 250 0 371 0 512 c 1
 0 512 l 1
 0 1024 l 1
 256 1024 l 1
 256 512 l 2
 256 441 281 381 331 331 c 1
 331 331 l 1
 381 281 441 256 512 256 c 1
 512 256 l 1
 582 256 642 281 692 331 c 1
 692 331 l 1
 743 381 768 441 768 512 c 1
 768 512 l 1
 768 1024 l 1
 1024 1024 l 1
 1024 0 l 2
 1024 -141 974 -261 873 -361 c 1
 873 -361 l 1
 773 -462 653 -512 512 -512 c 1
 512 -512 l 1
384 1152 m 1
 128 1152 l 1
 128 1408 l 1
 384 1408 l 1
 384 1152 l 1
896 1152 m 1
 640 1152 l 1
 640 1408 l 1
 896 1408 l 1
 896 1152 l 1
EndSplineSet
Validated: 5
EndChar

StartChar: Ydieresis
Encoding: 376 376 193
Width: 1140
GlyphClass: 1
Flags: W
LayerCount: 2
Fore
SplineSet
618 0 m 1
 362 0 l 1
 362 512 l 1
 -150 1536 l 1
 106 1536 l 1
 490 768 l 1
 874 1536 l 1
 1130 1536 l 1
 618 512 l 1
 618 0 l 1
362 1664 m 1
 106 1664 l 1
 106 1920 l 1
 362 1920 l 1
 362 1664 l 1
874 1664 m 1
 618 1664 l 1
 618 1920 l 1
 874 1920 l 1
 874 1664 l 1
EndSplineSet
Validated: 1
EndChar

StartChar: uni1E9E
Encoding: 7838 7838 195
Width: 1350
GlyphClass: 1
Flags: W
LayerCount: 2
Fore
SplineSet
256 0 m 1
 0 0 l 1
 0 1024 l 2
 0 1165 50 1285 150 1385 c 1
 150 1385 l 1
 250 1486 371 1536 512 1536 c 1
 512 1536 l 1
 768 1536 l 2
 909 1536 1029 1486 1129 1385 c 1
 1129 1385 l 1
 1230 1285 1280 1165 1280 1024 c 1
 1280 1024 l 1
 1280 768 l 1
 1212 768 l 1
 1257 691 1280 606 1280 512 c 1
 1280 512 l 1
 1280 371 1230 250 1129 150 c 1
 1129 150 l 1
 1029 50 909 0 768 0 c 1
 768 0 l 1
 512 0 l 1
 512 256 l 1
 768 256 l 2
 838 256 898 281 948 331 c 1
 948 331 l 1
 999 381 1024 441 1024 512 c 1
 1024 512 l 1
 1024 582 999 642 948 692 c 1
 948 692 l 1
 898 743 838 768 768 768 c 1
 768 768 l 1
 512 768 l 1
 512 1024 l 1
 1024 1024 l 1
 1024 1094 999 1154 948 1204 c 1
 948 1204 l 1
 898 1255 838 1280 768 1280 c 1
 768 1280 l 1
 512 1280 l 2
 441 1280 381 1255 331 1204 c 1
 331 1204 l 1
 281 1154 256 1094 256 1024 c 1
 256 1024 l 1
 256 0 l 1
EndSplineSet
Validated: 5
EndChar

StartChar: emdash
Encoding: 8212 8212 198
Width: 2100
GlyphClass: 1
Flags: W
LayerCount: 2
Fore
SplineSet
1792 512 m 1
 256 512 l 1
 256 768 l 1
 1792 768 l 1
 1792 512 l 1
EndSplineSet
Validated: 1
EndChar

StartChar: quoteleft
Encoding: 8216 8216 199
Width: 350
GlyphClass: 1
Flags: W
LayerCount: 2
Fore
SplineSet
256 1288 m 1
 0 1288 l 1
 0 1544 l 1
 256 1800 l 1
 256 1288 l 1
EndSplineSet
Validated: 1
EndChar

StartChar: quoteright
Encoding: 8217 8217 200
Width: 350
GlyphClass: 1
Flags: W
LayerCount: 2
Fore
SplineSet
256 1544 m 1
 0 1288 l 1
 0 1800 l 1
 256 1800 l 1
 256 1544 l 1
EndSplineSet
Validated: 1
EndChar

StartChar: quotesinglbase
Encoding: 8218 8218 201
Width: 350
GlyphClass: 1
Flags: W
LayerCount: 2
Fore
SplineSet
256 0 m 1
 0 -256 l 1
 0 256 l 1
 256 256 l 1
 256 0 l 1
EndSplineSet
Validated: 1
EndChar

StartChar: quotereversed
Encoding: 8219 8219 202
Width: 350
GlyphClass: 1
Flags: W
LayerCount: 2
Fore
SplineSet
256 1288 m 1
 0 1288 l 1
 0 1544 l 1
 256 1800 l 1
 256 1288 l 1
EndSplineSet
Validated: 1
EndChar

StartChar: quotedblleft
Encoding: 8220 8220 203
Width: 900
GlyphClass: 1
Flags: W
LayerCount: 2
Fore
SplineSet
256 1288 m 1
 0 1288 l 1
 0 1544 l 1
 256 1800 l 1
 256 1288 l 1
768 1288 m 1
 512 1288 l 1
 512 1544 l 1
 768 1800 l 1
 768 1288 l 1
EndSplineSet
Validated: 1
EndChar

StartChar: quotedblright
Encoding: 8221 8221 204
Width: 900
GlyphClass: 1
Flags: W
LayerCount: 2
Fore
SplineSet
256 1544 m 1
 0 1288 l 1
 0 1800 l 1
 256 1800 l 1
 256 1544 l 1
768 1544 m 1
 512 1288 l 1
 512 1800 l 1
 768 1800 l 1
 768 1544 l 1
EndSplineSet
Validated: 1
EndChar

StartChar: quotedblbase
Encoding: 8222 8222 205
Width: 900
GlyphClass: 1
Flags: W
LayerCount: 2
Fore
SplineSet
256 0 m 1
 0 -256 l 1
 0 256 l 1
 256 256 l 1
 256 0 l 1
768 0 m 1
 512 -256 l 1
 512 256 l 1
 768 256 l 1
 768 0 l 1
EndSplineSet
Validated: 1
EndChar

StartChar: dagger
Encoding: 8224 8224 207
Width: 900
GlyphClass: 1
Flags: W
LayerCount: 2
Fore
SplineSet
512 0 m 1
 256 0 l 1
 256 1024 l 1
 0 1024 l 1
 0 1280 l 1
 256 1280 l 1
 256 1536 l 1
 512 1536 l 1
 512 1280 l 1
 768 1280 l 1
 768 1024 l 1
 512 1024 l 1
 512 0 l 1
EndSplineSet
Validated: 1
EndChar

StartChar: bullet
Encoding: 8226 8226 208
Width: 806
GlyphClass: 1
Flags: W
LayerCount: 2
Fore
SplineSet
256 512 m 1
 256 512 l 1
 185 512 125 537 74 586 c 1
 74 586 l 1
 25 637 0 697 0 768 c 1
 0 768 l 1
 0 838 25 898 74 949 c 1
 74 949 l 1
 125 999 185 1024 256 1024 c 1
 256 1024 l 1
 326 1024 386 999 437 949 c 1
 437 949 l 1
 487 898 512 838 512 768 c 1
 512 768 l 1
 512 697 487 637 437 586 c 1
 437 586 l 1
 386 537 326 512 256 512 c 1
EndSplineSet
Validated: 5
EndChar

StartChar: ellipsis
Encoding: 8230 8230 209
Width: 1400
GlyphClass: 1
Flags: W
LayerCount: 2
Fore
SplineSet
256 0 m 1
 0 0 l 1
 0 256 l 1
 256 256 l 1
 256 0 l 1
768 0 m 1
 512 0 l 1
 512 256 l 1
 768 256 l 1
 768 0 l 1
1280 0 m 1
 1024 0 l 1
 1024 256 l 1
 1280 256 l 1
 1280 0 l 1
EndSplineSet
Validated: 1
EndChar

StartChar: guilsinglleft
Encoding: 8249 8249 210
Width: 650
GlyphClass: 1
Flags: W
LayerCount: 2
Fore
SplineSet
512 384 m 1
 512 128 l 1
 0 640 l 1
 512 1152 l 1
 512 896 l 1
 256 640 l 1
 512 384 l 1
EndSplineSet
Validated: 1
EndChar

StartChar: guilsinglright
Encoding: 8250 8250 211
Width: 650
GlyphClass: 1
Flags: W
LayerCount: 2
Fore
SplineSet
512 640 m 1
 0 128 l 1
 0 384 l 1
 256 640 l 1
 0 896 l 1
 0 1152 l 1
 512 640 l 1
EndSplineSet
Validated: 1
EndChar

StartChar: Euro
Encoding: 8364 8364 213
Width: 1420
GlyphClass: 1
Flags: W
LayerCount: 2
Fore
SplineSet
768 0 m 1
 512 0 l 2
 371 0 250 50 150 150 c 1
 150 150 l 1
 65 234 16 333 3 448 c 1
 3 448 l 1
 -128 448 l 1
 -128 704 l 1
 0 704 l 1
 0 832 l 1
 -128 832 l 1
 -128 1088 l 1
 3 1088 l 1
 16 1202 65 1301 150 1385 c 1
 150 1385 l 1
 250 1486 371 1536 512 1536 c 1
 512 1536 l 1
 768 1536 l 2
 909 1536 1029 1486 1129 1385 c 1
 1129 1385 l 1
 1230 1285 1280 1165 1280 1024 c 1
 1280 1024 l 1
 1024 1024 l 1
 1024 1094 999 1154 948 1204 c 1
 948 1204 l 1
 898 1255 838 1280 768 1280 c 1
 768 1280 l 1
 512 1280 l 2
 441 1280 381 1255 331 1204 c 1
 331 1204 l 1
 296 1170 274 1131 263 1088 c 1
 263 1088 l 1
 512 1088 l 1
 512 832 l 1
 256 832 l 1
 256 704 l 1
 512 704 l 1
 512 448 l 1
 263 448 l 1
 274 404 296 365 331 331 c 1
 331 331 l 1
 381 281 441 256 512 256 c 1
 512 256 l 1
 768 256 l 2
 838 256 898 281 948 331 c 1
 948 331 l 1
 999 381 1024 441 1024 512 c 1
 1024 512 l 1
 1280 512 l 1
 1280 371 1230 250 1129 150 c 1
 1129 150 l 1
 1029 50 909 0 768 0 c 1
 768 0 l 1
EndSplineSet
Validated: 5
EndChar

StartChar: trademark
Encoding: 8482 8482 217
Width: 1254
GlyphClass: 1
Flags: W
LayerCount: 2
Fore
SplineSet
320 1188 m 1
 192 1188 l 1
 192 1572 l 1
 256 1572 0 1572 0 1572 c 1
 0 1700 l 1
 512 1700 l 1
 512 1572 l 1
 320 1572 l 1
 320 1188 l 1
1088 1188 m 1
 960 1188 l 1
 960 1444 l 1
 832 1316 l 1
 704 1444 l 1
 704 1188 l 1
 576 1188 l 1
 576 1697 l 1
 832 1444 l 1
 1088 1700 l 1
 1088 1188 l 1
EndSplineSet
Validated: 37
EndChar

StartChar: uniFB00
Encoding: 64256 64256 218
Width: 1670
GlyphClass: 1
Flags: W
LayerCount: 2
Fore
SplineSet
256 0 m 1
 0 0 l 1
 0 1024 l 2
 0 1165 50 1285 150 1385 c 1
 150 1385 l 1
 250 1486 371 1536 512 1536 c 1
 512 1536 l 1
 581 1536 647 1522 711 1495 c 1
 711 1495 l 1
 772 1469 826 1432 873 1385 c 1
 873 1385 l 1
 693 1205 l 1
 669 1228 642 1247 611 1260 c 1
 611 1260 l 1
 580 1273 547 1280 512 1280 c 1
 512 1280 l 1
 441 1280 381 1255 331 1204 c 1
 331 1204 l 1
 281 1154 256 1094 256 1024 c 1
 256 1024 l 1
 256 768 l 1
 512 768 l 1
 512 512 l 1
 256 512 l 1
 256 0 l 1
1024 0 m 1
 768 0 l 1
 768 1024 l 2
 768 1165 818 1285 918 1385 c 1
 918 1385 l 1
 1018 1486 1139 1536 1280 1536 c 1
 1280 1536 l 1
 1349 1536 1415 1522 1479 1495 c 1
 1479 1495 l 1
 1540 1469 1594 1432 1641 1385 c 1
 1641 1385 l 1
 1461 1205 l 1
 1437 1228 1410 1247 1379 1260 c 1
 1379 1260 l 1
 1348 1273 1315 1280 1280 1280 c 1
 1280 1280 l 1
 1209 1280 1149 1255 1099 1204 c 1
 1099 1204 l 1
 1049 1154 1024 1094 1024 1024 c 1
 1024 1024 l 1
 1024 768 l 1
 1280 768 l 1
 1280 512 l 1
 1024 512 l 1
 1024 0 l 1
EndSplineSet
Validated: 5
EndChar

StartChar: uniFB01
Encoding: 64257 64257 219
Width: 1150
GlyphClass: 1
Flags: W
LayerCount: 2
Fore
SplineSet
1024 0 m 1
 768 0 l 1
 768 1024 l 1
 1024 1024 l 1
 1024 0 l 1
256 0 m 1
 0 0 l 1
 0 1024 l 2
 0 1165 50 1285 150 1385 c 1
 150 1385 l 1
 250 1486 371 1536 512 1536 c 1
 512 1536 l 1
 581 1536 647 1522 711 1495 c 1
 711 1495 l 1
 730 1487 749 1478 768 1467 c 1
 768 1467 l 1
 768 1536 l 1
 1024 1536 l 1
 1024 1280 l 1
 768 1280 l 1
 693 1205 l 1
 669 1228 642 1247 611 1260 c 1
 611 1260 l 1
 580 1273 547 1280 512 1280 c 1
 512 1280 l 1
 441 1280 381 1255 331 1204 c 1
 331 1204 l 1
 281 1154 256 1094 256 1024 c 1
 256 1024 l 1
 256 768 l 1
 512 768 l 1
 512 512 l 1
 256 512 l 1
 256 0 l 1
EndSplineSet
Validated: 5
EndChar

StartChar: uniFB02
Encoding: 64258 64258 220
Width: 1150
GlyphClass: 1
Flags: W
LayerCount: 2
Fore
SplineSet
256 0 m 1
 0 0 l 1
 0 1024 l 2
 0 1165 50 1285 150 1385 c 1
 150 1385 l 1
 250 1486 371 1536 512 1536 c 1
 512 1536 l 1
 581 1536 647 1522 711 1495 c 1
 711 1495 l 1
 730 1487 749 1478 768 1467 c 1
 768 1467 l 1
 768 1536 l 1
 1024 1536 l 1
 1024 0 l 1
 768 0 l 1
 768 1280 l 1
 693 1205 l 1
 669 1228 642 1247 611 1260 c 1
 611 1260 l 1
 580 1273 547 1280 512 1280 c 1
 512 1280 l 1
 441 1280 381 1255 331 1204 c 1
 331 1204 l 1
 281 1154 256 1094 256 1024 c 1
 256 1024 l 1
 256 768 l 1
 512 768 l 1
 512 512 l 1
 256 512 l 1
 256 0 l 1
EndSplineSet
Validated: 5
EndChar

StartChar: uniFB03
Encoding: 64259 64259 221
Width: 1950
GlyphClass: 1
Flags: W
LayerCount: 2
Fore
SplineSet
1792 0 m 1
 1536 0 l 1
 1536 1024 l 1
 1792 1024 l 1
 1792 0 l 1
256 0 m 1
 0 0 l 1
 0 1024 l 2
 0 1165 50 1285 150 1385 c 1
 150 1385 l 1
 250 1486 371 1536 512 1536 c 1
 512 1536 l 1
 581 1536 647 1522 711 1495 c 1
 711 1495 l 1
 772 1469 826 1432 873 1385 c 1
 873 1385 l 1
 693 1205 l 1
 669 1228 642 1247 611 1260 c 1
 611 1260 l 1
 580 1273 547 1280 512 1280 c 1
 512 1280 l 1
 441 1280 381 1255 331 1204 c 1
 331 1204 l 1
 281 1154 256 1094 256 1024 c 1
 256 1024 l 1
 256 768 l 1
 512 768 l 1
 512 512 l 1
 256 512 l 1
 256 0 l 1
1024 0 m 1
 768 0 l 1
 768 1024 l 2
 768 1165 818 1285 918 1385 c 1
 918 1385 l 1
 1018 1486 1139 1536 1280 1536 c 1
 1280 1536 l 1
 1349 1536 1415 1522 1479 1495 c 1
 1479 1495 l 1
 1498 1487 1517 1478 1536 1467 c 1
 1536 1467 l 1
 1536 1536 l 1
 1792 1536 l 1
 1792 1280 l 1
 1536 1280 l 1
 1461 1205 l 1
 1437 1228 1410 1247 1379 1260 c 1
 1379 1260 l 1
 1348 1273 1315 1280 1280 1280 c 1
 1280 1280 l 1
 1209 1280 1149 1255 1099 1204 c 1
 1099 1204 l 1
 1049 1154 1024 1094 1024 1024 c 1
 1024 1024 l 1
 1024 768 l 1
 1280 768 l 1
 1280 512 l 1
 1024 512 l 1
 1024 0 l 1
EndSplineSet
Validated: 5
EndChar

StartChar: uniFB04
Encoding: 64260 64260 222
Width: 1950
GlyphClass: 1
Flags: W
LayerCount: 2
Fore
SplineSet
256 0 m 1
 0 0 l 1
 0 1024 l 2
 0 1165 50 1285 150 1385 c 1
 150 1385 l 1
 250 1486 371 1536 512 1536 c 1
 512 1536 l 1
 581 1536 647 1522 711 1495 c 1
 711 1495 l 1
 772 1469 826 1432 873 1385 c 1
 873 1385 l 1
 693 1205 l 1
 669 1228 642 1247 611 1260 c 1
 611 1260 l 1
 580 1273 547 1280 512 1280 c 1
 512 1280 l 1
 441 1280 381 1255 331 1204 c 1
 331 1204 l 1
 281 1154 256 1094 256 1024 c 1
 256 1024 l 1
 256 768 l 1
 512 768 l 1
 512 512 l 1
 256 512 l 1
 256 0 l 1
1024 0 m 1
 768 0 l 1
 768 1024 l 2
 768 1165 818 1285 918 1385 c 1
 918 1385 l 1
 1018 1486 1139 1536 1280 1536 c 1
 1280 1536 l 1
 1349 1536 1415 1522 1479 1495 c 1
 1479 1495 l 1
 1498 1487 1517 1478 1536 1467 c 1
 1536 1467 l 1
 1536 1536 l 1
 1792 1536 l 1
 1792 0 l 1
 1536 0 l 1
 1536 1280 l 1
 1461 1205 l 1
 1437 1228 1410 1247 1379 1260 c 1
 1379 1260 l 1
 1348 1273 1315 1280 1280 1280 c 1
 1280 1280 l 1
 1209 1280 1149 1255 1099 1204 c 1
 1099 1204 l 1
 1049 1154 1024 1094 1024 1024 c 1
 1024 1024 l 1
 1024 768 l 1
 1280 768 l 1
 1280 512 l 1
 1024 512 l 1
 1024 0 l 1
EndSplineSet
Validated: 5
EndChar

StartChar: uniFB05
Encoding: 64261 64261 223
Width: 1600
GlyphClass: 1
Flags: W
LayerCount: 2
Fore
SplineSet
256 0 m 1
 0 0 l 1
 0 1024 l 2
 0 1165 50 1285 150 1385 c 1
 150 1385 l 1
 250 1486 371 1536 512 1536 c 1
 512 1536 l 1
 581 1536 647 1522 711 1495 c 1
 711 1495 l 1
 772 1469 826 1432 873 1385 c 1
 873 1385 l 1
 693 1205 l 1
 669 1228 642 1247 611 1260 c 1
 611 1260 l 1
 580 1273 547 1280 512 1280 c 1
 512 1280 l 1
 441 1280 381 1255 331 1204 c 1
 331 1204 l 1
 281 1154 256 1094 256 1024 c 1
 256 1024 l 1
 256 768 l 1
 512 768 l 1
 512 512 l 1
 256 512 l 1
 256 0 l 1
1472 256 m 1
 1472 0 l 1
 1331 0 1210 50 1110 150 c 1
 1110 150 l 1
 1010 250 960 371 960 512 c 1
 960 512 l 1
 960 1536 l 1
 1216 1536 l 1
 1216 1280 l 1
 1472 1280 l 1
 1472 1024 l 1
 1216 1024 l 1
 1216 512 l 2
 1216 441 1241 381 1291 331 c 1
 1291 331 l 1
 1341 281 1401 256 1472 256 c 1
 1472 256 l 1
EndSplineSet
Validated: 5
EndChar

StartChar: uniFB06
Encoding: 64262 64262 224
Width: 1450
GlyphClass: 1
Flags: W
LayerCount: 2
Fore
SplineSet
256 0 m 1
 0 0 l 1
 0 256 l 1
 256 256 l 2
 326 256 386 281 436 331 c 1
 436 331 l 1
 487 381 512 441 512 512 c 1
 512 512 l 1
 768 512 l 1
 768 371 718 250 617 150 c 1
 617 150 l 1
 517 50 397 0 256 0 c 1
 256 0 l 1
1344 256 m 1
 1344 0 l 1
 1203 0 1082 50 982 150 c 1
 982 150 l 1
 882 250 832 371 832 512 c 1
 832 512 l 1
 832 768 l 1
 512 768 l 2
 441 768 381 743 331 692 c 1
 331 692 l 1
 281 642 256 582 256 512 c 1
 256 512 l 1
 0 512 l 1
 0 653 50 773 150 873 c 1
 150 873 l 1
 250 974 371 1024 512 1024 c 1
 512 1024 l 1
 832 1024 l 1
 832 1536 l 1
 1088 1536 l 1
 1088 1280 l 1
 1344 1280 l 1
 1344 1024 l 1
 1088 1024 l 1
 1088 512 l 2
 1088 441 1113 381 1163 331 c 1
 1163 331 l 1
 1213 281 1273 256 1344 256 c 1
 1344 256 l 1
EndSplineSet
Validated: 5
EndChar
